<?xml version="1.0" encoding="UTF-8"?>
<svg version="1.1" xmlns="http://www.w3.org/2000/svg" width="50" height="107">
<path d="M0 0 C1.42688129 4.28064386 -0.34543992 7.23071529 -1.9296875 11.24609375 C-2.2394754 12.05361588 -2.54926331 12.861138 -2.86843872 13.69313049 C-3.86188651 16.27805786 -4.86792295 18.85785557 -5.875 21.4375 C-6.87251115 24.01444385 -7.86739206 26.59237461 -8.86013794 29.17115784 C-9.47895781 30.77622875 -10.10097344 32.38007207 -10.72653198 33.98252869 C-11.00997467 34.71331131 -11.29341736 35.44409393 -11.58544922 36.19702148 C-11.83495331 36.83639145 -12.0844574 37.47576141 -12.34152222 38.13450623 C-13.02445093 40.06927047 -13.53359611 42.00299115 -14 44 C-12.93072266 44.18175781 -12.93072266 44.18175781 -11.83984375 44.3671875 C-6.44765159 45.31063969 -1.22764328 46.37362209 4 48 C2.0039651 50.33682135 0.00335954 52.66946989 -2 55 C-2.48339844 55.5671875 -2.96679688 56.134375 -3.46484375 56.71875 C-8.07217363 62.06465948 -12.8978701 67.20018081 -17.72436523 72.34716797 C-21.92933345 76.83598981 -26.05855261 81.3817753 -30.15625 85.96875 C-32.36203415 88.39885118 -34.64208193 90.71814381 -37 93 C-36.30657022 88.94891025 -35.10847912 85.25008768 -33.71484375 81.38671875 C-33.49429825 80.77230423 -33.27375275 80.15788971 -33.04652405 79.52485657 C-32.34680121 77.57786976 -31.64223285 75.63267824 -30.9375 73.6875 C-30.45996441 72.36144406 -29.98274752 71.0352733 -29.50585938 69.70898438 C-28.3403697 66.47151306 -27.17164035 63.23524939 -26 60 C-27.216875 59.85691406 -28.43375 59.71382812 -29.6875 59.56640625 C-32.83777718 59.1726216 -35.90633311 58.66257818 -39 57.9375 C-39.763125 57.76089844 -40.52625 57.58429688 -41.3125 57.40234375 C-41.869375 57.26957031 -42.42625 57.13679688 -43 57 C-43 52.63969098 -40.35899755 50.39516553 -37.6875 47.1875 C-36.57487298 45.82605002 -35.46290763 44.46405907 -34.3515625 43.1015625 C-33.78727539 42.41352539 -33.22298828 41.72548828 -32.64160156 41.01660156 C-30.23895774 38.0651087 -27.90063549 35.0651491 -25.5625 32.0625 C-20.97598834 26.19632393 -16.29054433 20.41446079 -11.58349609 14.64477539 C-7.65031841 9.81801885 -3.77987541 4.94820053 0 0 Z " fill="#0CC0DF" transform="translate(45,11)"/>
<path d="" fill="#14C2E0" transform="translate(0,0)"/>
<path d="" fill="#18C3E1" transform="translate(0,0)"/>
</svg>
