<?xml version="1.0" encoding="UTF-8"?>
<svg version="1.1" xmlns="http://www.w3.org/2000/svg" width="337" height="334">
<path d="M0 0 C13.5834442 2.08791457 26.38348065 14.90246741 36 24 C36.81210937 24.74765625 37.62421875 25.4953125 38.4609375 26.265625 C63.74082021 50.34929875 77.31383471 84.41980856 78.9453125 118.96875 C79.22456348 134.44723283 78.15848003 150.3305724 73 165 C72.76152344 165.72413086 72.52304687 166.44826172 72.27734375 167.19433594 C66.83965593 183.7055061 58.99520871 199.42452032 48 213 C47.34 213 46.68 213 46 213 C45.773125 213.556875 45.54625 214.11375 45.3125 214.6875 C43.63310363 217.64643647 41.42762479 219.61791507 39 222 C38.24460937 222.79019531 37.48921875 223.58039063 36.7109375 224.39453125 C12.86280101 249.08014411 -21.45648031 263.23805184 -55.59375 264.203125 C-66.62120077 264.34488269 -77.10789765 263.93631824 -87.9296875 261.75390625 C-88.59266846 261.63563477 -89.25564941 261.51736328 -89.9387207 261.39550781 C-92 261 -92 261 -94.14526367 260.39355469 C-103.32908716 258.4244227 -110.79983832 263.85532105 -118.5625 268.125 C-120.02941165 268.90847707 -121.49750496 269.6897459 -122.96679688 270.46875 C-129.52163498 273.95994292 -136.03303713 277.51331622 -142.41381836 281.31591797 C-142.9372583 281.54166504 -143.46069824 281.76741211 -144 282 C-144.66 281.67 -145.32 281.34 -146 281 C-145.0479279 279.99403703 -144.08812654 278.99538437 -143.125 278 C-142.32449219 277.1646875 -142.32449219 277.1646875 -141.5078125 276.3125 C-140 275 -140 275 -138 275 C-138 274.34 -138 273.68 -138 273 C-136.390625 271.4140625 -136.390625 271.4140625 -134.25 269.625 C-131.93096298 267.66242273 -129.74780716 265.7411705 -127.625 263.5625 C-126 262 -126 262 -124 262 C-124 261.34 -124 260.68 -124 260 C-122.6015625 258.58984375 -122.6015625 258.58984375 -120.625 256.9375 C-117.29345163 254.10390548 -114.00249608 251.23685108 -110.75 248.3125 C-109.94046875 247.58675781 -109.1309375 246.86101562 -108.296875 246.11328125 C-106.76145732 244.70059253 -105.27066719 243.23787345 -103.828125 241.73046875 C-102 240 -102 240 -100 240 C-100 239.34 -100 238.68 -100 238 C-99.34 238 -98.68 238 -98 238 C-98 237.34 -98 236.68 -98 236 C-96.63671875 234.625 -96.63671875 234.625 -94.6875 233 C-90.09976372 229.1180693 -85.70985957 225.04361528 -81.3203125 220.94140625 C-79 219 -79 219 -77 219 C-76.67 218.01 -76.34 217.02 -76 216 C-75.34 216 -74.68 216 -74 216 C-74 215.34 -74 214.68 -74 214 C-72.77734375 212.765625 -72.77734375 212.765625 -70.9375 211.25 C-66.71275923 207.66309753 -62.66304932 203.9184566 -58.625 200.125 C-53.64233752 195.45379217 -48.62494343 190.83161613 -43.53125 186.28125 C-39.88286642 182.9932006 -36.28758951 179.64850717 -32.6862793 176.30908203 C-29.72749366 173.57228225 -26.74299696 170.87928815 -23.6875 168.25 C-21.00755353 165.9352454 -18.48720312 163.52087898 -16 161 C-12.90315775 157.86122759 -9.6990402 154.93767388 -6.3515625 152.0703125 C-4.43809633 150.38569942 -2.56930896 148.6739577 -0.7109375 146.9296875 C-0.13045654 146.38602539 0.45002441 145.84236328 1.0480957 145.28222656 C2.2091427 144.19170671 3.36664266 143.09739598 4.52026367 141.99902344 C6.99728109 139.67726174 8.73903542 138.08698819 12 137 C12 136.34 12 135.68 12 135 C13.2578125 133.73046875 13.2578125 133.73046875 15.125 132.1875 C18.01509798 129.74443156 20.82648171 127.24528277 23.578125 124.6484375 C24.20315918 124.05909424 24.82819336 123.46975098 25.47216797 122.86254883 C26.73494241 121.6679843 27.99442307 120.46992774 29.25048828 119.26831055 C33.78014942 115 33.78014942 115 36 115 C36 114.34 36 113.68 36 113 C36.66 113 37.32 113 38 113 C38 112.34 38 111.68 38 111 C38.66 111 39.32 111 40 111 C40 110.34 40 109.68 40 109 C38.69006073 109.16076523 37.38012146 109.32153046 36.03048706 109.48716736 C31.51193187 109.98718031 27.05517798 110.16947453 22.51220703 110.20532227 C21.71545563 110.21522186 20.91870422 110.22512146 20.09780884 110.23532104 C17.48450573 110.26667804 14.87118572 110.29164287 12.2578125 110.31640625 C10.40721247 110.33704891 8.55661638 110.35804684 6.70602417 110.37937927 C2.82438494 110.42321359 -1.05726972 110.46412323 -4.93896484 110.50268555 C-9.83014706 110.55131004 -14.72125502 110.60501149 -19.61236191 110.66065407 C-40.40869697 110.89651182 -61.20209795 111.08119858 -82 111 C-80.06712197 106.93156788 -77.47469553 103.50271857 -74.75 99.9375 C-73.66068438 98.49928378 -72.57217608 97.06045583 -71.484375 95.62109375 C-70.91396484 94.86683105 -70.34355469 94.11256836 -69.75585938 93.33544922 C-66.80669137 89.41279333 -63.90436336 85.45588068 -61 81.5 C-55.99184734 74.6806684 -50.94299924 67.8944794 -45.81835938 61.16210938 C-43.8106663 58.50677338 -41.96591293 55.94118615 -40.29296875 53.0546875 C-39.86628906 52.37664062 -39.43960938 51.69859375 -39 51 C-38.34 51 -37.68 51 -37 51 C-36.71125 50.4225 -36.4225 49.845 -36.125 49.25 C-35.08333333 47.16666667 -34.04166667 45.08333333 -33 43 C-32.34 43 -31.68 43 -31 43 C-30.773125 42.30777344 -30.54625 41.61554688 -30.3125 40.90234375 C-28.70443058 37.34640453 -26.45570352 34.5543999 -24 31.5625 C-20.11041277 26.72766532 -16.37874186 21.82815506 -12.8125 16.75 C-8.75683255 10.98528491 -4.4867428 5.43923569 0 0 Z " fill="#032753" transform="translate(227,51)"/>
<path d="M0 0 C-2.73822175 5.93281379 -6.38752819 10.43371889 -11 15 C-12.98026029 17.08403535 -14.92886727 19.19661017 -16.875 21.3125 C-17.40673828 21.89008057 -17.93847656 22.46766113 -18.48632812 23.06274414 C-23.35727427 28.36710933 -28.09615427 33.77051669 -32.7734375 39.24609375 C-33.8071716 40.45583177 -34.84102914 41.66546433 -35.875 42.875 C-36.39344482 43.48158447 -36.91188965 44.08816895 -37.44604492 44.71313477 C-41.23233213 49.13195326 -45.09249542 53.47685209 -49 57.7890625 C-53.00302802 62.21428488 -56.90994182 66.72053368 -60.78515625 71.2578125 C-61.81510262 72.46354299 -62.84505058 73.66927212 -63.875 74.875 C-64.39320313 75.48206787 -64.91140625 76.08913574 -65.4453125 76.71459961 C-68.51381447 80.29884447 -71.63149702 83.82699075 -74.8125 87.3125 C-78.32619941 91.16479227 -81.51119133 95.17604867 -84.58984375 99.3828125 C-85.05519531 99.91648437 -85.52054688 100.45015625 -86 101 C-86.66 101 -87.32 101 -88 101 C-88.23589844 101.55558594 -88.47179687 102.11117187 -88.71484375 102.68359375 C-90.3127752 105.56375591 -92.305005 107.66369076 -94.5625 110.0625 C-100.19818432 116.15425126 -105.45089176 122.51600471 -110.6015625 129.0234375 C-111.69313765 130.38311883 -112.83940939 131.69873174 -114 133 C-114.66 133 -115.32 133 -116 133 C-116.23589844 133.55429688 -116.47179687 134.10859375 -116.71484375 134.6796875 C-118.3126455 137.56447242 -120.31851009 139.71172032 -122.5625 142.125 C-125.63719186 145.31507509 -125.63719186 145.31507509 -128 149 C-128.66 149 -129.32 149 -130 149 C-130.22558594 149.54527344 -130.45117188 150.09054688 -130.68359375 150.65234375 C-132.39143338 153.69807556 -134.67056229 156.05318658 -137.0625 158.5625 C-141.53772051 163.3436682 -145.7426376 168.27221962 -149.8515625 173.375 C-153.11241482 177.35916865 -156.54343471 181.18553422 -160 185 C-158.43188498 186.56811502 -156.88379296 186.14085717 -154.70372009 186.15821838 C-153.77678848 186.1680072 -152.84985687 186.17779602 -151.89483643 186.18788147 C-150.86985046 186.19363693 -149.8448645 186.1993924 -148.78881836 186.20532227 C-147.17926018 186.22017166 -147.17926018 186.22017166 -145.53718567 186.23532104 C-141.97142788 186.26704374 -138.40565675 186.29173588 -134.83984375 186.31640625 C-132.37504215 186.33696649 -129.91024414 186.3579627 -127.44544983 186.37937927 C-120.94350085 186.43469605 -114.44151954 186.48406282 -107.93951416 186.53222656 C-101.31055451 186.5818404 -94.6816489 186.63809412 -88.05273438 186.69335938 C-75.0351968 186.80105837 -62.01761899 186.90266631 -49 187 C-51.6619696 191.05210151 -54.38352792 194.76493243 -57.625 198.375 C-58.40101563 199.24898437 -59.17703125 200.12296875 -59.9765625 201.0234375 C-62 203 -62 203 -64 203 C-64.268125 203.5878125 -64.53625 204.175625 -64.8125 204.78125 C-66.01264238 207.02362128 -67.28999645 208.62557304 -69 210.5 C-71.26499562 213.01772144 -73.47616113 215.56102839 -75.61328125 218.1875 C-76.28327148 219.00831055 -76.28327148 219.00831055 -76.96679688 219.84570312 C-77.85672364 220.93970599 -78.74222926 222.03732168 -79.62304688 223.13867188 C-80.70507449 224.46266472 -81.84801932 225.73640144 -83 227 C-83.66 227 -84.32 227 -85 227 C-85.20496094 227.52464844 -85.40992188 228.04929688 -85.62109375 228.58984375 C-87.60509913 232.05763786 -90.3050851 234.69256945 -93.0625 237.5625 C-96.99661033 241.72037159 -100.81367906 245.88759943 -104.375 250.375 C-108.78260478 255.88857203 -113.60207586 260.95627968 -118.46533203 266.06420898 C-123.01680566 270.87136392 -127.22797326 275.80808151 -131.265625 281.05859375 C-133 283 -133 283 -136 284 C-136.4021875 284.8353125 -136.4021875 284.8353125 -136.8125 285.6875 C-138.57902504 289.12757508 -141.21136826 291.33261312 -144 294 C-149.69975361 291.92185975 -154.1509775 288.58344185 -159 285 C-159.79664063 284.4121875 -160.59328125 283.824375 -161.4140625 283.21875 C-166.59461773 279.23630364 -171.34281841 274.88537997 -176 270.3125 C-176.56436768 269.76577637 -177.12873535 269.21905273 -177.71020508 268.65576172 C-180.79766657 265.56312544 -182.44896805 263.13857082 -184 259 C-184.99 258.67 -185.98 258.34 -187 258 C-188.67088743 255.90686665 -190.15828674 253.85556141 -191.625 251.625 C-192.27988403 250.63209961 -192.27988403 250.63209961 -192.94799805 249.61914062 C-212.57294758 218.98991061 -220.27760338 180.66794298 -213.16015625 144.8359375 C-206.85016698 117.05340884 -194.41197143 94.6295682 -175 74 C-174.36320312 73.28714844 -173.72640625 72.57429688 -173.0703125 71.83984375 C-156.86442062 54.46737989 -135.41121181 43.7903355 -113 37 C-112.27989746 36.7726416 -111.55979492 36.5452832 -110.81787109 36.31103516 C-92.4253558 30.71368723 -70.76219942 31.62698165 -51.8046875 33.7890625 C-47.68327053 34.13513323 -46.34720566 34.17557559 -42.5625 32.26171875 C-41.716875 31.41222656 -40.87125 30.56273438 -40 29.6875 C-39.00778614 28.74857047 -38.01290396 27.81245415 -37.015625 26.87890625 C-36.51998047 26.39695801 -36.02433594 25.91500977 -35.51367188 25.41845703 C-33.07113558 23.12956415 -30.41644777 21.14453864 -27.75 19.125 C-27.22486816 18.72434326 -26.69973633 18.32368652 -26.15869141 17.91088867 C-24.44268788 16.60249362 -22.72200903 15.30048036 -21 14 C-20.31196289 13.48018555 -19.62392578 12.96037109 -18.91503906 12.42480469 C-16.73664188 10.78104314 -14.55641333 9.13975647 -12.375 7.5 C-11.68760742 6.98324707 -11.00021484 6.46649414 -10.29199219 5.93408203 C-9.64649414 5.45052246 -9.00099609 4.96696289 -8.3359375 4.46875 C-7.76407715 4.04013672 -7.1922168 3.61152344 -6.60302734 3.16992188 C-2.25959933 -0 -2.25959933 -0 0 0 Z " fill="#054F97" transform="translate(241,3)"/>
<path d="M0 0 C-2.73822175 5.93281379 -6.38752819 10.43371889 -11 15 C-12.98026029 17.08403535 -14.92886727 19.19661017 -16.875 21.3125 C-17.40673828 21.89008057 -17.93847656 22.46766113 -18.48632812 23.06274414 C-23.35727427 28.36710933 -28.09615427 33.77051669 -32.7734375 39.24609375 C-48.1492659 57.24101681 -48.1492659 57.24101681 -55 64 C-55 62.68 -55 61.36 -55 60 C-54.34 60 -53.68 60 -53 60 C-52.67 59.01 -52.34 58.02 -52 57 C-51.34 57 -50.68 57 -50 57 C-50 56.34 -50 55.68 -50 55 C-49.195625 54.21625 -48.39125 53.4325 -47.5625 52.625 C-44.59617635 49.76493506 -44.59617635 49.76493506 -44 46 C-44.96885372 44.31503702 -45.96986723 42.64821244 -47 41 C-47 39.68 -47 38.36 -47 37 C-48.175625 37.04125 -49.35125 37.0825 -50.5625 37.125 C-54.67044874 37.13221959 -58.06185728 36.19550761 -62 35 C-64.66387483 34.57246453 -67.31518306 34.28261231 -70 34 C-70 33.67 -70 33.34 -70 33 C-68.43761522 32.97182072 -66.87506098 32.95310332 -65.3125 32.9375 C-64.30703125 32.92332031 -63.3015625 32.90914062 -62.265625 32.89453125 C-59 33 -59 33 -55.796875 33.57421875 C-50.76822746 34.43054641 -47.45555972 34.86734125 -42.96484375 32.19140625 C-40.38224884 30.01032149 -37.9347205 27.77260412 -35.51367188 25.41845703 C-33.07113558 23.12956415 -30.41644777 21.14453864 -27.75 19.125 C-26.96230225 18.52401489 -26.96230225 18.52401489 -26.15869141 17.91088867 C-24.44268788 16.60249362 -22.72200903 15.30048036 -21 14 C-20.31196289 13.48018555 -19.62392578 12.96037109 -18.91503906 12.42480469 C-16.73664188 10.78104314 -14.55641333 9.13975647 -12.375 7.5 C-11.68760742 6.98324707 -11.00021484 6.46649414 -10.29199219 5.93408203 C-9.64649414 5.45052246 -9.00099609 4.96696289 -8.3359375 4.46875 C-7.47814697 3.82583008 -7.47814697 3.82583008 -6.60302734 3.16992188 C-2.25959933 0 -2.25959933 0 0 0 Z M-45 41 C-45 41.66 -45 42.32 -45 43 C-44.01 42.67 -43.02 42.34 -42 42 C-42.99 41.67 -43.98 41.34 -45 41 Z " fill="#074F94" transform="translate(241,3)"/>
<path d="M0 0 C0.66 0.33 1.32 0.66 2 1 C1.67 1.66 1.34 2.32 1 3 C0.9603287 4.66619446 0.95615553 6.33391013 1 8 C-0.98 8.99 -0.98 8.99 -3 10 C-3 10.99 -3 11.98 -3 13 C-2.34 13 -1.68 13 -1 13 C-1 13.66 -1 14.32 -1 15 C0.65 14.67 2.3 14.34 4 14 C4 14.66 4 15.32 4 16 C6.64 16.33 9.28 16.66 12 17 C12 17.66 12 18.32 12 19 C12.99 18.67 13.98 18.34 15 18 C15 18.99 15 19.98 15 21 C16.65 21 18.3 21 20 21 C20 21.33 20 21.66 20 22 C18.54166667 21.85416667 17.08333333 21.70833333 15.625 21.5625 C14.40683594 21.44068359 14.40683594 21.44068359 13.1640625 21.31640625 C10 21 10 21 7.99926758 20.45605469 C-1.31291343 18.44929686 -8.68702797 23.79327223 -16.5625 28.125 C-18.02941165 28.90847707 -19.49750496 29.6897459 -20.96679688 30.46875 C-27.52163498 33.95994292 -34.03303713 37.51331622 -40.41381836 41.31591797 C-40.9372583 41.54166504 -41.46069824 41.76741211 -42 42 C-42.66 41.67 -43.32 41.34 -44 41 C-43.0479279 39.99403703 -42.08812654 38.99538437 -41.125 38 C-40.59132813 37.443125 -40.05765625 36.88625 -39.5078125 36.3125 C-38 35 -38 35 -36 35 C-36 34.34 -36 33.68 -36 33 C-34.390625 31.4140625 -34.390625 31.4140625 -32.25 29.625 C-29.93096298 27.66242273 -27.74780716 25.7411705 -25.625 23.5625 C-24 22 -24 22 -22 22 C-22 21.34 -22 20.68 -22 20 C-20.6015625 18.58984375 -20.6015625 18.58984375 -18.625 16.9375 C-15.29345163 14.10390548 -12.00249608 11.23685108 -8.75 8.3125 C-7.94046875 7.58675781 -7.1309375 6.86101562 -6.296875 6.11328125 C-4.13902136 4.12790911 -2.05657728 2.08959572 0 0 Z " fill="#132D52" transform="translate(125,291)"/>
<path d="M0 0 C0.70602859 0.02361099 1.41205719 0.04722198 2.13948059 0.07154846 C4.39137632 0.1480357 6.64291512 0.23212372 8.89453125 0.31640625 C10.42250866 0.36964193 11.95050341 0.42238224 13.47851562 0.47460938 C17.2215796 0.60363049 20.96434144 0.73946837 24.70703125 0.87890625 C24.70703125 1.20890625 24.70703125 1.53890625 24.70703125 1.87890625 C30.64703125 2.20890625 36.58703125 2.53890625 42.70703125 2.87890625 C42.70703125 3.20890625 42.70703125 3.53890625 42.70703125 3.87890625 C32.04848712 4.03384248 21.38987131 4.18200125 10.7311182 4.32186985 C5.78008483 4.38704462 0.82910318 4.45442051 -4.12182617 4.52709961 C-8.9134111 4.59735401 -13.70504478 4.66147034 -18.49676704 4.72160149 C-20.31090765 4.74539388 -22.12502227 4.77127622 -23.93910027 4.79944038 C-35.44282931 4.97632474 -46.81761067 4.72786352 -58.29296875 3.87890625 C-55.17305876 1.79896626 -54.422868 1.62266688 -50.86914062 1.57592773 C-49.97811646 1.55928574 -49.08709229 1.54264374 -48.16906738 1.52549744 C-47.20964233 1.51708328 -46.25021729 1.50866913 -45.26171875 1.5 C-43.78052551 1.47450829 -43.78052551 1.47450829 -42.26940918 1.44850159 C-39.1106609 1.39532227 -35.95192561 1.35505894 -32.79296875 1.31640625 C-29.6340798 1.27247277 -26.47529256 1.22574924 -23.31652832 1.17359924 C-21.35005309 1.14166097 -19.3834883 1.11476501 -17.41687012 1.09336853 C-16.52584595 1.07987869 -15.63482178 1.06638885 -14.71679688 1.05249023 C-13.5412323 1.03822243 -13.5412323 1.03822243 -12.34191895 1.02366638 C-8.10226644 0.72413121 -4.37071899 -0.17263203 0 0 Z " fill="#263B59" transform="translate(215.29296875,157.12109375)"/>
<path d="M0 0 C-2.73845355 5.93331603 -6.39033881 10.43042282 -11 15 C-12.78177709 16.92744062 -14.5526926 18.86497981 -16.3125 20.8125 C-17.19550781 21.78832031 -18.07851562 22.76414062 -18.98828125 23.76953125 C-19.65214844 24.50558594 -20.31601563 25.24164062 -21 26 C-21.40863281 25.49855469 -21.81726563 24.99710938 -22.23828125 24.48046875 C-23.87756736 22.79472176 -23.87756736 22.79472176 -26.04296875 22.92578125 C-26.75066406 23.05339844 -27.45835937 23.18101563 -28.1875 23.3125 C-29.445625 23.539375 -30.70375 23.76625 -32 24 C-25.17458532 16.71955767 -16.9883419 10.92769759 -9 5 C-8.0112085 4.26015869 -8.0112085 4.26015869 -7.00244141 3.50537109 C-2.23478953 -0 -2.23478953 -0 0 0 Z " fill="#1D5590" transform="translate(241,3)"/>
<path d="M0 0 C1.32 0 2.64 0 4 0 C2.79618552 2.49361571 1.54571278 4.68143083 0 7 C36.63 7.33 73.26 7.66 111 8 C107.51122187 13.2331672 105.65360927 15.4040292 101 19 C101.57562828 15.66135596 102.59063616 14.30897368 105 12 C105.33 11.01 105.66 10.02 106 9 C70.03 9.33 34.06 9.66 -3 10 C-3 7.69 -3 5.38 -3 3 C-2.01 2.67 -1.02 2.34 0 2 C0 1.34 0 0.68 0 0 Z " fill="#1D4B7C" transform="translate(81,182)"/>
<path d="M0 0 C0.66 0.33 1.32 0.66 2 1 C1.61070312 1.43828125 1.22140625 1.8765625 0.8203125 2.328125 C-2.04667188 5.57825476 -4.88484854 8.84187952 -7.62109375 12.203125 C-8.06662598 12.74807617 -8.5121582 13.29302734 -8.97119141 13.85449219 C-9.85997275 14.9448428 -10.74384182 16.03921747 -11.62255859 17.13769531 C-12.70464706 18.46209324 -13.84778204 19.73614118 -15 21 C-15.66 21 -16.32 21 -17 21 C-17.20496094 21.52464844 -17.40992188 22.04929688 -17.62109375 22.58984375 C-19.60508026 26.05760488 -22.305013 28.69264629 -25.0625 31.5625 C-30.67553492 37.49375545 -35.93615516 43.58841352 -41 50 C-41.495 48.515 -41.495 48.515 -42 47 C-41.38125 46.4225 -40.7625 45.845 -40.125 45.25 C-38.18652947 43.19750179 -37.09985751 41.56633418 -36 39 C-35.34 39 -34.68 39 -34 39 C-34 38.01 -34 37.02 -34 36 C-32.515 35.505 -32.515 35.505 -31 35 C-30.67 34.01 -30.34 33.02 -30 32 C-29.34 32 -28.68 32 -28 32 C-27.938125 31.443125 -27.87625 30.88625 -27.8125 30.3125 C-26.6519231 27.00931958 -24.59786554 25.28105267 -22 23 C-21.34 23 -20.68 23 -20 23 C-20 22.34 -20 21.68 -20 21 C-19.34 20.67 -18.68 20.34 -18 20 C-18 18.35 -18 16.7 -18 15 C-17.360625 14.87625 -16.72125 14.7525 -16.0625 14.625 C-15.381875 14.41875 -14.70125 14.2125 -14 14 C-13.67 13.34 -13.34 12.68 -13 12 C-12.34 12 -11.68 12 -11 12 C-10.34 11.01 -9.68 10.02 -9 9 C-8.34 9 -7.68 9 -7 9 C-6.67 7.68 -6.34 6.36 -6 5 C-5.01 5 -4.02 5 -3 5 C-2.67 4.01 -2.34 3.02 -2 2 C-1.34 1.34 -0.68 0.68 0 0 Z " fill="#2B5C8F" transform="translate(173,209)"/>
<path d="M0 0 C0.33 0 0.66 0 1 0 C1.10389207 6.30278573 1.00884208 12.52722534 0.5 18.8125 C-0.69735319 34.37809153 -0.40085325 50.17933629 2.6953125 65.51171875 C3.00196657 68.01606029 2.78950834 69.62591505 2 72 C1.34573589 69.37685739 0.70152585 66.7518606 0.0625 64.125 C-0.11990234 63.39796875 -0.30230469 62.6709375 -0.49023438 61.921875 C-5.32608401 41.87508015 -4.05902155 20.05349932 0 0 Z " fill="#1B5187" transform="translate(29,143)"/>
<path d="M0 0 C0.495 1.485 0.495 1.485 1 3 C0.195625 3.61875 -0.60875 4.2375 -1.4375 4.875 C-4.03874519 6.74164041 -4.03874519 6.74164041 -5 9 C-6.32467746 9.6837045 -7.65863633 10.34964186 -9 11 C-9.66 11.66 -10.32 12.32 -11 13 C-12.3921875 13.433125 -12.3921875 13.433125 -13.8125 13.875 C-18.65246938 15.58322449 -21.24211092 17.85168321 -24.0625 22.125 C-26.0219875 25.03262662 -26.94302611 25.6296324 -30 27 C-30.33 27.99 -30.66 28.98 -31 30 C-31.97753644 31.02196992 -32.9805881 32.01979625 -34 33 C-34.515625 33.721875 -35.03125 34.44375 -35.5625 35.1875 C-36.036875 35.785625 -36.51125 36.38375 -37 37 C-37.66 37 -38.32 37 -39 37 C-39 37.99 -39 38.98 -39 40 C-39.99 40 -40.98 40 -42 40 C-40.54261299 35.26788193 -37.73286246 32.18651839 -34.375 28.6875 C-33.8279541 28.11064453 -33.2809082 27.53378906 -32.71728516 26.93945312 C-31.62971411 25.79572246 -30.53913816 24.65484027 -29.4453125 23.51708984 C-28.29516279 22.30982121 -27.17361709 21.07531751 -26.0625 19.83203125 C-19.05784511 12.22744065 -9.2731027 4.63655135 0 0 Z " fill="#346290" transform="translate(95,54)"/>
<path d="M0 0 C0.33 1.98 0.66 3.96 1 6 C2.32 6.33 3.64 6.66 5 7 C2.33395686 8.41785021 -0.33281272 9.83430492 -3 11.25 C-3.74378906 11.64574219 -4.48757812 12.04148437 -5.25390625 12.44921875 C-6.75199126 13.24385515 -8.25200178 14.03487203 -9.75390625 14.82226562 C-11.26591954 15.61508651 -12.7736922 16.41604203 -14.27734375 17.22460938 C-16.15418892 18.21054703 -18.07433789 19.11318192 -20 20 C-20.66 19.67 -21.32 19.34 -22 19 C-21.0479279 17.99403703 -20.08812654 16.99538437 -19.125 16 C-18.32449219 15.1646875 -18.32449219 15.1646875 -17.5078125 14.3125 C-16 13 -16 13 -14 13 C-14 12.34 -14 11.68 -14 11 C-12.390625 9.4140625 -12.390625 9.4140625 -10.25 7.625 C-7.93096298 5.66242273 -5.74780716 3.7411705 -3.625 1.5625 C-2 0 -2 0 0 0 Z " fill="#2E3A4A" transform="translate(103,313)"/>
<path d="M0 0 C0.33 1.32 0.66 2.64 1 4 C0.01 4.495 0.01 4.495 -1 5 C-1 5.99 -1 6.98 -1 8 C-0.34 7.67 0.32 7.34 1 7 C1.33 7.99 1.66 8.98 2 10 C1.67 10.66 1.34 11.32 1 12 C-0.33076989 12.34342449 -1.66431979 12.67619874 -3 13 C-3.66 13.66 -4.32 14.32 -5 15 C-5.99 14.67 -6.98 14.34 -8 14 C-8.66 15.32 -9.32 16.64 -10 18 C-9.34 18.33 -8.68 18.66 -8 19 C-8.33 19.66 -8.66 20.32 -9 21 C-9.66 21 -10.32 21 -11 21 C-11 21.99 -11 22.98 -11 24 C-12.65071396 25.02611949 -14.31970006 26.02308143 -16 27 C-16.53625 27.721875 -17.0725 28.44375 -17.625 29.1875 C-18.305625 30.0846875 -18.305625 30.0846875 -19 31 C-19.99 31 -20.98 31 -22 31 C-20.22522913 26.94338088 -17.56537919 23.52999366 -14.9375 20 C-14.4530542 19.34443115 -13.9686084 18.6888623 -13.46948242 18.01342773 C-9.00945865 11.98674311 -4.51453241 5.98593556 0 0 Z " fill="#1D375B" transform="translate(220,60)"/>
<path d="M0 0 C0.99 0.33 1.98 0.66 3 1 C2.18208984 1.89138672 2.18208984 1.89138672 1.34765625 2.80078125 C-2.68510604 7.23337296 -6.61695532 11.70632605 -10.375 16.375 C-16.50230832 23.94529482 -23.06410286 31.16110841 -30 38 C-30 36.68 -30 35.36 -30 34 C-29.34 34 -28.68 34 -28 34 C-27.67 33.01 -27.34 32.02 -27 31 C-26.34 31 -25.68 31 -25 31 C-25 30.34 -25 29.68 -25 29 C-24.21625 28.236875 -23.4325 27.47375 -22.625 26.6875 C-20.09947479 24.10184324 -19.06592614 22.39158318 -18 19 C-17.01 19 -16.02 19 -15 19 C-15 18.01 -15 17.02 -15 16 C-14.34 16 -13.68 16 -13 16 C-13 15.34 -13 14.68 -13 14 C-12.21625 13.38125 -11.4325 12.7625 -10.625 12.125 C-8.06434206 10.05208643 -7.3771147 8.85259474 -6 6 C-5.01 5.67 -4.02 5.34 -3 5 C-1.30117552 2.50240018 -1.30117552 2.50240018 0 0 Z " fill="#346090" transform="translate(216,29)"/>
<path d="M0 0 C0 1.32 0 2.64 0 4 C0.66 4 1.32 4 2 4 C2 4.99 2 5.98 2 7 C2.61875 7.0825 3.2375 7.165 3.875 7.25 C6 8 6 8 7.0625 10 C7.371875 10.66 7.68125 11.32 8 12 C8.99 12.33 9.98 12.66 11 13 C11.144375 13.639375 11.28875 14.27875 11.4375 14.9375 C11.77364376 17.12360262 11.77364376 17.12360262 13.625 17.9375 C14.800625 18.4634375 14.800625 18.4634375 16 19 C17.80356325 20.22017833 19.55817312 21.49683916 21.31640625 22.78125 C22.85087948 23.89205197 24.42382152 24.94921434 26 26 C25.34 26.33 24.68 26.66 24 27 C12.77009052 19.8388983 3.22390874 11.53955581 -6 2 C-2.25 0 -2.25 0 0 0 Z " fill="#23578D" transform="translate(67,267)"/>
<path d="M0 0 C1.98 0 3.96 0 6 0 C2.10430332 5.47503317 -2.15913904 10.43628859 -6.73925781 15.34008789 C-10.78941287 19.70152787 -14.52878502 24.24886208 -18.22265625 28.91796875 C-20 31 -20 31 -22 32 C-22 31.01 -22 30.02 -22 29 C-21.34 29 -20.68 29 -20 29 C-20 27.68 -20 26.36 -20 25 C-19.21625 24.773125 -18.4325 24.54625 -17.625 24.3125 C-14.27673917 22.63836958 -14.2740639 21.42404673 -13 18 C-11.3540349 16.31288577 -9.68762851 14.6454378 -8 13 C-6.70480005 10.83379456 -6.70480005 10.83379456 -6 9 C-5.34 9 -4.68 9 -4 9 C-3.67 8.01 -3.34 7.02 -3 6 C-2.34 6 -1.68 6 -1 6 C0.10836423 4.11683841 0.10836423 4.11683841 1 2 C0.67 1.34 0.34 0.68 0 0 Z " fill="#3A6593" transform="translate(180,67)"/>
<path d="M0 0 C-2.73071987 5.91655971 -6.36005391 10.47322333 -11 15 C-12.71047633 16.96751512 -14.3538615 18.97760127 -16 21 C-17.0625 19.125 -17.0625 19.125 -18 17 C-17.67 16.34 -17.34 15.68 -17 15 C-15.68 15 -14.36 15 -13 15 C-13.33 13.02 -13.66 11.04 -14 9 C-12.04594482 7.49412261 -10.08718716 5.99521356 -8.125 4.5 C-7.56941406 4.07074219 -7.01382813 3.64148438 -6.44140625 3.19921875 C-2.2265625 0 -2.2265625 0 0 0 Z " fill="#376694" transform="translate(241,3)"/>
<path d="M0 0 C0 0.99 0 1.98 0 3 C-1.65 3.33 -3.3 3.66 -5 4 C-4.34 4.66 -3.68 5.32 -3 6 C-3.66 6 -4.32 6 -5 6 C-4.67 6.99 -4.34 7.98 -4 9 C-4.99 9 -5.98 9 -7 9 C-7.33 10.32 -7.66 11.64 -8 13 C-10.16874252 12.49396008 -11.99967627 12.00016187 -14 11 C-12.05440044 6.40131014 -9.02337434 2.36875323 -4.875 -0.4375 C-3 -1 -3 -1 0 0 Z " fill="#0A2447" transform="translate(228,202)"/>
<path d="M0 0 C0.66 0.33 1.32 0.66 2 1 C0.83630874 4.49107379 0.11026462 4.85222763 -2.9375 6.6875 C-4.00291016 7.34298828 -4.00291016 7.34298828 -5.08984375 8.01171875 C-7 9 -7 9 -9 9 C-9 10.32 -9 11.64 -9 13 C-15.75988279 13.19979949 -21.5136427 13.12053989 -28 11 C-30.66343769 10.56949764 -33.31516835 10.28261386 -36 10 C-36 9.67 -36 9.34 -36 9 C-34.43761522 8.97182072 -32.87506098 8.95310332 -31.3125 8.9375 C-30.30703125 8.92332031 -29.3015625 8.90914062 -28.265625 8.89453125 C-25 9 -25 9 -21.796875 9.57421875 C-16.63203517 10.45373858 -12.90833399 10.92808004 -8.5078125 7.83984375 C-5.47105661 5.42044309 -2.70943514 2.77778125 0 0 Z " fill="#28588B" transform="translate(207,27)"/>
<path d="M0 0 C0.66 0 1.32 0 2 0 C0.4722133 3.43752007 -1.50181056 6.18953688 -4 9 C-4.66 9 -5.32 9 -6 9 C-6.21398437 9.53109375 -6.42796875 10.0621875 -6.6484375 10.609375 C-8.51344549 13.90817526 -11.04224242 16.50991708 -13.625 19.25 C-14.140625 19.80429688 -14.65625 20.35859375 -15.1875 20.9296875 C-16.45425035 22.2902712 -17.72657815 23.64565837 -19 25 C-19.625 23.125 -19.625 23.125 -20 21 C-19.34 20.34 -18.68 19.68 -18 19 C-17.01 19 -16.02 19 -15 19 C-14.938125 18.2575 -14.87625 17.515 -14.8125 16.75 C-13.75133617 13.15836857 -11.93833662 12.22166915 -9 10 C-8.67 9.29875 -8.34 8.5975 -8 7.875 C-6.58322236 5.21854193 -4.78492312 4.87944941 -2 4 C-2 3.34 -2 2.68 -2 2 C-1.34 2 -0.68 2 0 2 C0 1.34 0 0.68 0 0 Z " fill="#356392" transform="translate(117,143)"/>
<path d="M0 0 C0 0.33 0 0.66 0 1 C-13.35220357 3.19918647 -26.49652223 3.21987126 -40 3 C-40 2.67 -40 2.34 -40 2 C-31.585 1.505 -31.585 1.505 -23 1 C-23 0.67 -23 0.34 -23 0 C-15.22450441 -1.59497345 -7.7979791 -1.13425151 0 0 Z " fill="#384960" transform="translate(193,312)"/>
<path d="M0 0 C-0.52484692 4.55700425 -2.31507303 7.192874 -5.0625 10.8125 C-5.79597656 11.78832031 -6.52945312 12.76414062 -7.28515625 13.76953125 C-7.85105469 14.50558594 -8.41695313 15.24164063 -9 16 C-9.66 15.67 -10.32 15.34 -11 15 C-11.59355614 12.35139573 -11.74209269 9.70802678 -12 7 C-11.01 7 -10.02 7 -9 7 C-7.66018514 6.6937566 -6.32488113 6.36548445 -5 6 C-5 4.35 -5 2.7 -5 1 C-3 0 -3 0 0 0 Z " fill="#1C3355" transform="translate(285,246)"/>
<path d="M0 0 C0.91949918 2.48264778 1.00166383 3.99001701 0.5625 6.625 C-1.27686921 9.4208412 -1.98594779 9.52912591 -5.125 10.3125 C-7.043125 10.6528125 -7.043125 10.6528125 -9 11 C-9.04241723 8.66705225 -9.04092937 6.33297433 -9 4 C-8 3 -8 3 -5.4375 2.9375 C-4.2309375 2.9684375 -4.2309375 2.9684375 -3 3 C-3 2.34 -3 1.68 -3 1 C-2.01 0.67 -1.02 0.34 0 0 Z " fill="#0E2A49" transform="translate(112,309)"/>
<path d="M0 0 C0.66 0 1.32 0 2 0 C1.67 0.99 1.34 1.98 1 3 C-14.18 3 -29.36 3 -45 3 C-45 2.67 -45 2.34 -45 2 C-32.45555193 1.35236682 -19.95326677 0.8666521 -7.38989258 1.03710938 C-5.26000169 1.05867999 -3.12972422 1.03428128 -1 1 C-0.67 0.67 -0.34 0.34 0 0 Z " fill="#0A1F3D" transform="translate(262,157)"/>
<path d="M0 0 C0.33 0 0.66 0 1 0 C1.18907768 5.92443397 1.19885866 11.6041922 0.0625 17.4375 C-1.6496635 26.50832363 -1.68179979 35.79547675 -2 45 C-2.33 45 -2.66 45 -3 45 C-3.35006153 29.6673049 -3.04803296 15.05873426 0 0 Z " fill="#3F6894" transform="translate(29,143)"/>
<path d="M0 0 C0.99 0.33 1.98 0.66 3 1 C0.96320828 2.61069731 -1.07903153 4.21353117 -3.125 5.8125 C-3.97964844 6.49022461 -3.97964844 6.49022461 -4.8515625 7.18164062 C-8.40001828 9.94379086 -11.88506215 12.11763481 -16 14 C-16.33 13.01 -16.66 12.02 -17 11 C-16.34 11 -15.68 11 -15 11 C-15 10.01 -15 9.02 -15 8 C-13.02 7.34 -11.04 6.68 -9 6 C-9 5.34 -9 4.68 -9 4 C-7.02 4 -5.04 4 -3 4 C-3 3.34 -3 2.68 -3 2 C-2.01 2 -1.02 2 0 2 C0 1.34 0 0.68 0 0 Z " fill="#1F3557" transform="translate(255,280)"/>
<path d="M0 0 C1 3 1 3 1 5 C0.01 5 -0.98 5 -2 5 C-1.67 6.98 -1.34 8.96 -1 11 C-1.78375 11.2475 -2.5675 11.495 -3.375 11.75 C-6.32317108 13.15389099 -6.9024777 14.00675737 -8 17 C-8.66 17 -9.32 17 -10 17 C-10.33 17.66 -10.66 18.32 -11 19 C-11.66 19 -12.32 19 -13 19 C-11.87548273 16.0280615 -10.77706209 13.66559313 -9 11 C-8.34 11 -7.68 11 -7 11 C-6.71125 10.4225 -6.4225 9.845 -6.125 9.25 C-5.08333333 7.16666667 -4.04166667 5.08333333 -3 3 C-2.34 3 -1.68 3 -1 3 C-0.67 2.01 -0.34 1.02 0 0 Z " fill="#203A56" transform="translate(197,91)"/>
<path d="M0 0 C0.33 0.66 0.66 1.32 1 2 C0.01 3.32 -0.98 4.64 -2 6 C-2.33 5.67 -2.66 5.34 -3 5 C-3.61875 5.99 -4.2375 6.98 -4.875 8 C-5.57625 8.99 -6.2775 9.98 -7 11 C-7.66 11 -8.32 11 -9 11 C-9.66 12.65 -10.32 14.3 -11 16 C-12.32 16 -13.64 16 -15 16 C-15.33 16.99 -15.66 17.98 -16 19 C-17.32 18.67 -18.64 18.34 -20 18 C-17.88046983 15.99390948 -15.75486559 13.99506397 -13.625 12 C-13.02171875 11.42765625 -12.4184375 10.8553125 -11.796875 10.265625 C-11.21679688 9.72421875 -10.63671875 9.1828125 -10.0390625 8.625 C-9.50490723 8.12226563 -8.97075195 7.61953125 -8.42041016 7.1015625 C-7 6 -7 6 -5 6 C-4.67 5.01 -4.34 4.02 -4 3 C-3.34 3 -2.68 3 -2 3 C-2 2.34 -2 1.68 -2 1 C-1.34 0.67 -0.68 0.34 0 0 Z " fill="#294059" transform="translate(155,264)"/>
<path d="M0 0 C1.32 0 2.64 0 4 0 C2.79618552 2.49361571 1.54571278 4.68143083 0 7 C3.96 7 7.92 7 12 7 C12 7.66 12 8.32 12 9 C9.11584117 10.44207941 6.58278472 10.09394887 3.375 10.0625 C2.18648438 10.05347656 0.99796875 10.04445312 -0.2265625 10.03515625 C-1.14179687 10.02355469 -2.05703125 10.01195312 -3 10 C-3 7.69 -3 5.38 -3 3 C-2.01 2.67 -1.02 2.34 0 2 C0 1.34 0 0.68 0 0 Z " fill="#2D5E93" transform="translate(81,182)"/>
<path d="M0 0 C0 0.99 0 1.98 0 3 C0.66 3.33 1.32 3.66 2 4 C-1 6 -1 6 -4 6 C-3.67 6.99 -3.34 7.98 -3 9 C-4.65 9.33 -6.3 9.66 -8 10 C-8 10.66 -8 11.32 -8 12 C-9.98 12.33 -11.96 12.66 -14 13 C-14 12.34 -14 11.68 -14 11 C-12.390625 9.4140625 -12.390625 9.4140625 -10.25 7.625 C-7.93096298 5.66242273 -5.74780716 3.7411705 -3.625 1.5625 C-2 0 -2 0 0 0 Z " fill="#213752" transform="translate(117,300)"/>
<path d="M0 0 C0 0.33 0 0.66 0 1 C-3.3 1 -6.6 1 -10 1 C-10 1.66 -10 2.32 -10 3 C-18.30566989 5.01290353 -26.49174287 5.56891497 -35 6 C-31.16547185 3.4436479 -27.59084015 2.81042712 -23.125 1.875 C-22.2796167 1.69614258 -21.4342334 1.51728516 -20.56323242 1.33300781 C-13.61184764 -0.05107373 -7.09209291 -0.45837584 0 0 Z " fill="#3A6593" transform="translate(160,36)"/>
<path d="M0 0 C1.32 0.66 2.64 1.32 4 2 C3.67 2.66 3.34 3.32 3 4 C2.34 4 1.68 4 1 4 C1 4.99 1 5.98 1 7 C-0.65071396 8.02611949 -2.31970006 9.02308143 -4 10 C-4.53625 10.721875 -5.0725 11.44375 -5.625 12.1875 C-6.305625 13.0846875 -6.305625 13.0846875 -7 14 C-7.99 14 -8.98 14 -10 14 C-8.51872621 10.74715253 -6.65319465 8.11102873 -4.4375 5.3125 C-3.81746094 4.52488281 -3.19742188 3.73726563 -2.55859375 2.92578125 C-1 1 -1 1 0 0 Z " fill="#162C4E" transform="translate(208,77)"/>
<path d="M0 0 C0.33 0 0.66 0 1 0 C1.37521772 7.50435432 1.37521772 7.50435432 -0.47265625 9.9453125 C-2.33560424 12.45147783 -2.44990213 14.03774807 -2.625 17.125 C-2.91864407 21.83728814 -2.91864407 21.83728814 -4 24 C-4.99 24 -5.98 24 -7 24 C-6.40531984 18.33171945 -4.90757199 13.39677846 -2.9375 8.0625 C-2.65583984 7.28326172 -2.37417969 6.50402344 -2.08398438 5.70117188 C-1.39532294 3.79859875 -0.69850097 1.89898275 0 0 Z " fill="#295A8E" transform="translate(37,119)"/>
<path d="M0 0 C0 2.64054495 -0.35107784 4.48542662 -1 7 C-1 7.66 -1 8.32 -1 9 C-1.99 9 -2.98 9 -4 9 C-4 9.99 -4 10.98 -4 12 C-4.99 11.67 -5.98 11.34 -7 11 C-7.66 12.32 -8.32 13.64 -9 15 C-9 14.34 -9 13.68 -9 13 C-10.32 13.33 -11.64 13.66 -13 14 C-13 13.34 -13 12.68 -13 12 C-11.42578125 10.44921875 -11.42578125 10.44921875 -9.3125 8.6875 C-6.04699036 5.91500692 -2.98084015 3.07399141 0 0 Z " fill="#2B3F5E" transform="translate(252,174)"/>
<path d="M0 0 C0.33 0.66 0.66 1.32 1 2 C1.66 2 2.32 2 3 2 C3 2.66 3 3.32 3 4 C4.65 4 6.3 4 8 4 C8.144375 4.804375 8.28875 5.60875 8.4375 6.4375 C8.74135249 8.92103706 8.74135249 8.92103706 10 10 C10.04063832 11.66617115 10.042721 13.33388095 10 15 C8.62437146 13.71034824 7.29233607 12.37310707 6 11 C6 10.34 6 9.68 6 9 C5.01 8.67 4.02 8.34 3 8 C1.41034429 5.78298853 0.27672514 3.42137527 -1 1 C-0.67 0.67 -0.34 0.34 0 0 Z " fill="#285D91" transform="translate(51,253)"/>
<path d="M0 0 C1 3 1 3 0.6875 5.5 C-2.04802113 9.5526239 -6.40227436 9.9566047 -11 11 C-7.6189962 6.86378916 -4.33409466 3.18683431 0 0 Z " fill="#2D3F5A" transform="translate(167,253)"/>
<path d="M0 0 C2.76178071 1.38089035 3.09923844 3.34613875 4.20703125 6.1015625 C5.06198367 8.230278 5.06198367 8.230278 6.625 11.0625 C8.04173529 14.08916175 8.60667921 16.69610536 9 20 C8.34 20.33 7.68 20.66 7 21 C3.92163279 14.05604954 1.37179687 7.48252838 0 0 Z " fill="#355F8E" transform="translate(32,215)"/>
<path d="M0 0 C0.99 0.66 1.98 1.32 3 2 C3.99 2.33 4.98 2.66 6 3 C2.7 6.63 -0.6 10.26 -4 14 C-5.2077558 10.37673261 -4.54311128 9.35853631 -3 6 C-2.34 6 -1.68 6 -1 6 C-1.309375 5.071875 -1.309375 5.071875 -1.625 4.125 C-1.810625 3.073125 -1.810625 3.073125 -2 2 C-1.34 1.34 -0.68 0.68 0 0 Z " fill="#30608E" transform="translate(91,167)"/>
<path d="M0 0 C0.99 0.33 1.98 0.66 3 1 C2.8046875 2.85546875 2.8046875 2.85546875 2 5 C-0.1796875 6.30078125 -0.1796875 6.30078125 -2.875 7.3125 C-3.75929687 7.65925781 -4.64359375 8.00601562 -5.5546875 8.36328125 C-8 9 -8 9 -11 8 C-9.23871656 6.63343543 -7.46563912 5.28205915 -5.6875 3.9375 C-4.70136719 3.18339844 -3.71523437 2.42929688 -2.69921875 1.65234375 C-1.80847656 1.10707031 -0.91773438 0.56179688 0 0 Z " fill="#376493" transform="translate(226,13)"/>
<path d="M0 0 C0.66 0.33 1.32 0.66 2 1 C1.56429687 1.49628906 1.12859375 1.99257812 0.6796875 2.50390625 C-3.24273979 6.97819019 -7.13544286 11.47564042 -11 16 C-11.66 14.68 -12.32 13.36 -13 12 C-12.34 12 -11.68 12 -11 12 C-10.34 11.01 -9.68 10.02 -9 9 C-8.34 9 -7.68 9 -7 9 C-6.67 7.68 -6.34 6.36 -6 5 C-5.01 5 -4.02 5 -3 5 C-2.67 4.01 -2.34 3.02 -2 2 C-1.34 1.34 -0.68 0.68 0 0 Z " fill="#335F8E" transform="translate(173,209)"/>
<path d="M0 0 C3.92491136 4.52874388 7.37459686 9.60598991 10 15 C9.67 15.66 9.34 16.32 9 17 C8.34 17 7.68 17 7 17 C7 16.34 7 15.68 7 15 C6.34 15 5.68 15 5 15 C4.71125 14.030625 4.4225 13.06125 4.125 12.0625 C3.35785318 8.89335797 3.35785318 8.89335797 1 8 C0.40644386 5.35139573 0.25790731 2.70802678 0 0 Z " fill="#30445C" transform="translate(281,97)"/>
<path d="M0 0 C0.82638376 2.89234315 1 4.88742431 1 8 C-2.08350711 10.29060528 -5.41275276 11.66759388 -9 13 C-7.50923566 9.7173068 -5.61379679 7.06922559 -3.375 4.25 C-2.74335938 3.45078125 -2.11171875 2.6515625 -1.4609375 1.828125 C-0.97882813 1.22484375 -0.49671875 0.6215625 0 0 Z " fill="#293F5F" transform="translate(183,110)"/>
<path d="M0 0 C0.66 0.33 1.32 0.66 2 1 C-1.07999946 4.67230705 -3.2482602 5.56802365 -8 6 C-8.33 7.32 -8.66 8.64 -9 10 C-10.65 9.67 -12.3 9.34 -14 9 C-14 8.34 -14 7.68 -14 7 C-11.71296692 5.80274117 -9.42115138 4.61702982 -7.125 3.4375 C-6.14853516 2.92413086 -6.14853516 2.92413086 -5.15234375 2.40039062 C-3.46470143 1.53917109 -1.73420407 0.76313297 0 0 Z " fill="#2E5C8B" transform="translate(111,46)"/>
<path d="M0 0 C4.13621084 3.3810038 7.81316569 6.66590534 11 11 C9.35 11.33 7.7 11.66 6 12 C3.98030515 9.42947929 2.45745023 6.91490045 1 4 C0.34 3.34 -0.32 2.68 -1 2 C-0.67 1.34 -0.34 0.68 0 0 Z " fill="#213853" transform="translate(262,75)"/>
<path d="M0 0 C1.98 0 3.96 0 6 0 C2.62695042 4.67126797 -0.68100471 9.16089308 -5 13 C-5.66 13 -6.32 13 -7 13 C-6.67 11.68 -6.34 10.36 -6 9 C-5.34 9 -4.68 9 -4 9 C-3.67 8.01 -3.34 7.02 -3 6 C-2.34 6 -1.68 6 -1 6 C0.10836423 4.11683841 0.10836423 4.11683841 1 2 C0.67 1.34 0.34 0.68 0 0 Z " fill="#2E5C90" transform="translate(180,67)"/>
<path d="M0 0 C0.99 0.33 1.98 0.66 3 1 C1.180206 8.25160335 -1.06158371 15.12380756 -4 22 C-4.33 22 -4.66 22 -5 22 C-5.125 16.25 -5.125 16.25 -4 14 C-3.34 14 -2.68 14 -2 14 C-1.93941406 13.40832031 -1.87882812 12.81664062 -1.81640625 12.20703125 C-1.37987629 8.09021792 -0.91328654 4.04455467 0 0 Z " fill="#404E67" transform="translate(297,213)"/>
<path d="M0 0 C2.96404505 2.80804268 5.44499019 5.18315774 7 9 C6.01 9.99 5.02 10.98 4 12 C1.78286492 8.74820188 -0.34832443 5.5786304 -2 2 C-1.34 2 -0.68 2 0 2 C0 1.34 0 0.68 0 0 Z " fill="#182F53" transform="translate(274,88)"/>
<path d="M0 0 C1.65 0 3.3 0 5 0 C5.0825 0.61875 5.165 1.2375 5.25 1.875 C5.77874358 4.10716326 5.77874358 4.10716326 7.625 4.9375 C8.40875 5.288125 9.1925 5.63875 10 6 C11.80356325 7.22017833 13.55817312 8.49683916 15.31640625 9.78125 C16.85087948 10.89205197 18.42382152 11.94921434 20 13 C19.01 13.495 19.01 13.495 18 14 C11.77535843 9.98267814 5.63004244 5.83145486 0 1 C0 0.67 0 0.34 0 0 Z " fill="#3A6390" transform="translate(73,280)"/>
<path d="M0 0 C0.66 0.33 1.32 0.66 2 1 C1.01 2.32 0.02 3.64 -1 5 C-0.34 5.33 0.32 5.66 1 6 C-0.79036458 6.9765625 -2.58072917 7.953125 -4.37109375 8.9296875 C-6.16618315 9.91410024 -6.16618315 9.91410024 -7 12 C-8.32 11.67 -9.64 11.34 -11 11 C-7.37 7.37 -3.74 3.74 0 0 Z " fill="#31455E" transform="translate(215,208)"/>
<path d="M0 0 C0.33 0 0.66 0 1 0 C1.33 2.97 1.66 5.94 2 9 C-2 11 -2 11 -5 11 C-4.67 9.35 -4.34 7.7 -4 6 C-3.34 6 -2.68 6 -2 6 C-1.855625 5.195625 -1.71125 4.39125 -1.5625 3.5625 C-1 1 -1 1 0 0 Z " fill="#07214B" transform="translate(223,58)"/>
<path d="M0 0 C0.8353125 0.37125 0.8353125 0.37125 1.6875 0.75 C1.6875 1.41 1.6875 2.07 1.6875 2.75 C1.0275 2.75 0.3675 2.75 -0.3125 2.75 C-0.7146875 3.61625 -0.7146875 3.61625 -1.125 4.5 C-2.34179189 6.80550043 -3.61583879 8.77056192 -5.3125 10.75 C-5.9725 10.75 -6.6325 10.75 -7.3125 10.75 C-7.3125 7.75 -7.3125 7.75 -5.3125 5.75 C-5.9725 5.75 -6.6325 5.75 -7.3125 5.75 C-7.3125 5.09 -7.3125 4.43 -7.3125 3.75 C-3.10958131 -0.33617095 -3.10958131 -0.33617095 0 0 Z " fill="#28405B" transform="translate(273.3125,261.25)"/>
<path d="M0 0 C0.33 1.98 0.66 3.96 1 6 C2.32 6.33 3.64 6.66 5 7 C2.03 8.32 -0.94 9.64 -4 11 C-3.67 9.68 -3.34 8.36 -3 7 C-2.34 7 -1.68 7 -1 7 C-1.66 6.01 -2.32 5.02 -3 4 C-3.99 4 -4.98 4 -6 4 C-2.25 0 -2.25 0 0 0 Z " fill="#394D65" transform="translate(103,313)"/>
<path d="M0 0 C3.96 0.33 7.92 0.66 12 1 C9.57869669 3.42130331 8.19888623 3.52840504 4.875 4.125 C3.96492187 4.29257812 3.05484375 4.46015625 2.1171875 4.6328125 C1.41851562 4.75398438 0.71984375 4.87515625 0 5 C-0.33 4.01 -0.66 3.02 -1 2 C-0.67 1.34 -0.34 0.68 0 0 Z " fill="#122B4B" transform="translate(202,305)"/>
<path d="M0 0 C0.66 0.33 1.32 0.66 2 1 C0.39676273 2.77168246 -1.20755139 4.54236892 -2.8125 6.3125 C-3.26431641 6.81201172 -3.71613281 7.31152344 -4.18164062 7.82617188 C-6.40219821 10.27364776 -8.63155925 12.69450785 -11 15 C-10.6875 12.625 -10.6875 12.625 -10 10 C-9.01 9.34 -8.02 8.68 -7 8 C-5.80767387 5.94996045 -5.80767387 5.94996045 -5 4 C-4.34 4 -3.68 4 -3 4 C-3 3.01 -3 2.02 -3 1 C-2.01 0.67 -1.02 0.34 0 0 Z " fill="#386392" transform="translate(142,244)"/>
<path d="M0 0 C2 1 2 1 3 3 C1.68 3.33 0.36 3.66 -1 4 C-0.2236068 7.0745356 -0.2236068 7.0745356 2 9 C-0.88458638 10.44229319 -2.90639415 9.64450122 -6 9 C-6.66 8.67 -7.32 8.34 -8 8 C-5.36 5.36 -2.72 2.72 0 0 Z " fill="#273D5D" transform="translate(237,188)"/>
<path d="M0 0 C0.33 0.99 0.66 1.98 1 3 C0.195625 3.61875 -0.60875 4.2375 -1.4375 4.875 C-4.03874519 6.74164041 -4.03874519 6.74164041 -5 9 C-6.32467746 9.6837045 -7.65863633 10.34964186 -9 11 C-9.66 11.66 -10.32 12.32 -11 13 C-11.33 12.01 -11.66 11.02 -12 10 C-11.278125 9.443125 -10.55625 8.88625 -9.8125 8.3125 C-6.93981825 6.02680364 -6.93981825 6.02680364 -4.3125 3.3125 C-2 1 -2 1 0 0 Z " fill="#245A92" transform="translate(95,54)"/>
<path d="M0 0 C0.66 1.32 1.32 2.64 2 4 C1.01 4.495 1.01 4.495 0 5 C-0.33 5.99 -0.66 6.98 -1 8 C-2.65 8 -4.3 8 -6 8 C-5.8125 5.6875 -5.8125 5.6875 -5 3 C-2.4375 1.1875 -2.4375 1.1875 0 0 Z " fill="#152947" transform="translate(100,316)"/>
<path d="M0 0 C2.26568725 2.26568725 2.55280451 3.43233985 3.25 6.5 C3.44078125 7.2940625 3.6315625 8.088125 3.828125 8.90625 C3.91320312 9.94265625 3.91320312 9.94265625 4 11 C3.34 11.66 2.68 12.32 2 13 C2 12.01 2 11.02 2 10 C1.34 10 0.68 10 0 10 C0 9.34 0 8.68 0 8 C-0.66 8 -1.32 8 -2 8 C-2 6.68 -2 5.36 -2 4 C-1.34 4 -0.68 4 0 4 C0 2.68 0 1.36 0 0 Z " fill="#233853" transform="translate(294,121)"/>
<path d="M0 0 C1.65 0.33 3.3 0.66 5 1 C3.625 3 3.625 3 2 5 C1.34 5 0.68 5 0 5 C-0.33 5.99 -0.66 6.98 -1 8 C-2.65 8.33 -4.3 8.66 -6 9 C-4.47291037 5.56404834 -2.40072955 2.88087546 0 0 Z " fill="#2D4057" transform="translate(227,51)"/>
<path d="M0 0 C-0.53115106 4.51478398 -2.36620292 7.34666857 -5 11 C-5.5625 9.0625 -5.5625 9.0625 -6 7 C-5.67 6.67 -5.34 6.34 -5 6 C-4.95936168 4.33382885 -4.957279 2.66611905 -5 1 C-3 0 -3 0 0 0 Z " fill="#294057" transform="translate(285,246)"/>
<path d="M0 0 C0.66 0 1.32 0 2 0 C3.41030314 6.73811499 2.66561666 13.19022959 2 20 C1.34 19.67 0.68 19.34 0 19 C0 12.73 0 6.46 0 0 Z " fill="#0E2944" transform="translate(303,166)"/>
<path d="M0 0 C3.28822835 4.93234252 4.26689409 8.90375249 4.625 14.8125 C4.69976563 15.97394531 4.77453125 17.13539063 4.8515625 18.33203125 C4.90054687 19.21246094 4.94953125 20.09289062 5 21 C2.7419395 17.61290925 2.20005092 15.03357841 1.375 11.0625 C1.11460938 9.83660156 0.85421875 8.61070312 0.5859375 7.34765625 C0 4 0 4 0 0 Z " fill="#436B94" transform="translate(27,194)"/>
<path d="M0 0 C0.66 0.99 1.32 1.98 2 3 C1.05239071 7.45376368 -0.4644483 10.12736425 -4 13 C-4.66 13 -5.32 13 -6 13 C-4.58707905 8.1725201 -2.57025846 4.2837641 0 0 Z " fill="#335F92" transform="translate(44,106)"/>
<path d="M0 0 C0.66 0.33 1.32 0.66 2 1 C0.71034824 2.37562854 -0.62689293 3.70766393 -2 5 C-2.66 5 -3.32 5 -4 5 C-4.33 5.99 -4.66 6.98 -5 8 C-6.5234375 9.16796875 -6.5234375 9.16796875 -8.375 10.1875 C-8.98085937 10.53167969 -9.58671875 10.87585938 -10.2109375 11.23046875 C-12 12 -12 12 -15 12 C-13.25084555 10.56147125 -11.50064205 9.12421802 -9.75 7.6875 C-8.77546875 6.88699219 -7.8009375 6.08648437 -6.796875 5.26171875 C-4.5633738 3.45557742 -2.31312737 1.70180085 0 0 Z " fill="#3E6693" transform="translate(87,59)"/>
<path d="M0 0 C0.66 0.33 1.32 0.66 2 1 C-0.34862203 4.85845048 -1.88061998 7.15338137 -6 9 C-6.33 9.99 -6.66 10.98 -7 12 C-7.66 11.67 -8.32 11.34 -9 11 C-6.62245212 6.50907623 -3.6393937 3.47764287 0 0 Z " fill="#25558B" transform="translate(71,72)"/>
<path d="M0 0 C0.99 0.33 1.98 0.66 3 1 C-0.3 3.64 -3.6 6.28 -7 9 C-7.66 8.34 -8.32 7.68 -9 7 C-9 6.01 -9 5.02 -9 4 C-7.02 4 -5.04 4 -3 4 C-3 3.34 -3 2.68 -3 2 C-2.01 2 -1.02 2 0 2 C0 1.34 0 0.68 0 0 Z " fill="#2D4158" transform="translate(255,280)"/>
<path d="M0 0 C0.99 0.33 1.98 0.66 3 1 C-0.66666667 4.66666667 -4.33333333 8.33333333 -8 12 C-8.33 11.34 -8.66 10.68 -9 10 C-8.34 10 -7.68 10 -7 10 C-6.6596875 8.576875 -6.6596875 8.576875 -6.3125 7.125 C-5 4 -5 4 -2.375 2.625 C-1.59125 2.41875 -0.8075 2.2125 0 2 C0 1.34 0 0.68 0 0 Z " fill="#3F6799" transform="translate(122,266)"/>
<path d="M0 0 C-1.51553404 3.47775179 -3.5773456 5.9557984 -6.125 8.75 C-7.21167969 9.94882812 -7.21167969 9.94882812 -8.3203125 11.171875 C-8.87460938 11.77515625 -9.42890625 12.3784375 -10 13 C-10.33 11.68 -10.66 10.36 -11 9 C-10.34 9 -9.68 9 -9 9 C-8.67 8.01 -8.34 7.02 -8 6 C-7.34 6 -6.68 6 -6 6 C-6 5.34 -6 4.68 -6 4 C-2.47058824 0 -2.47058824 0 0 0 Z " fill="#456C96" transform="translate(197,54)"/>
<path d="M0 0 C-1.65167557 3.5786304 -3.78286492 6.74820188 -6 10 C-6.12375 9.360625 -6.2475 8.72125 -6.375 8.0625 C-6.684375 7.0415625 -6.684375 7.0415625 -7 6 C-7.66 5.67 -8.32 5.34 -9 5 C-7.87926138 4.16094435 -6.75325453 3.32892169 -5.625 2.5 C-4.99851563 2.0359375 -4.37203125 1.571875 -3.7265625 1.09375 C-2 0 -2 0 0 0 Z " fill="#70768F" transform="translate(241,3)"/>
<path d="M0 0 C0.66 0.33 1.32 0.66 2 1 C0.73948004 4.78155989 -0.56446606 5.25618367 -3.9375 7.25 C-5.28134766 8.06210937 -5.28134766 8.06210937 -6.65234375 8.890625 C-7.42707031 9.25671875 -8.20179688 9.6228125 -9 10 C-9.66 9.67 -10.32 9.34 -11 9 C-7.37 6.03 -3.74 3.06 0 0 Z " fill="#396291" transform="translate(207,27)"/>
<path d="M0 0 C3 1 3 1 4.38671875 3.50390625 C4.81597656 4.51324219 5.24523438 5.52257812 5.6875 6.5625 C6.12449219 7.57441406 6.56148437 8.58632812 7.01171875 9.62890625 C7.33785156 10.41136719 7.66398437 11.19382813 8 12 C7.01 12 6.02 12 5 12 C4.16180842 10.37750059 3.3295884 8.75191503 2.5 7.125 C2.0359375 6.22007812 1.571875 5.31515625 1.09375 4.3828125 C0 2 0 2 0 0 Z " fill="#37638F" transform="translate(40,236)"/>
<path d="M0 0 C0.99 0.33 1.98 0.66 3 1 C2.67 2.32 2.34 3.64 2 5 C1.01 5 0.02 5 -1 5 C-1 6.32 -1 7.64 -1 9 C-1.99 8.67 -2.98 8.34 -4 8 C-3.67 7.34 -3.34 6.68 -3 6 C-3.66 5.67 -4.32 5.34 -5 5 C-3.35 3.35 -1.7 1.7 0 0 Z " fill="#0A2047" transform="translate(240,187)"/>
<path d="M0 0 C0.99 0.33 1.98 0.66 3 1 C2.04882866 2.1725131 1.08882991 3.33787015 0.125 4.5 C-0.40867187 5.1496875 -0.94234375 5.799375 -1.4921875 6.46875 C-1.98976563 6.9740625 -2.48734375 7.479375 -3 8 C-3.66 8 -4.32 8 -5 8 C-5.33 8.99 -5.66 9.98 -6 11 C-6.33 9.68 -6.66 8.36 -7 7 C-6.195625 6.7525 -5.39125 6.505 -4.5625 6.25 C-1.83364774 5.28621485 -1.83364774 5.28621485 -1.25 2.9375 C-1.1675 2.298125 -1.085 1.65875 -1 1 C-0.67 0.67 -0.34 0.34 0 0 Z " fill="#3B6591" transform="translate(110,279)"/>
<path d="M0 0 C0.99 0.33 1.98 0.66 3 1 C0.36 3.97 -2.28 6.94 -5 10 C-5.33 9.34 -5.66 8.68 -6 8 C-4.6875 5.375 -4.6875 5.375 -3 3 C-2.34 3 -1.68 3 -1 3 C-0.67 2.01 -0.34 1.02 0 0 Z " fill="#396490" transform="translate(133,124)"/>
<path d="M0 0 C0.66 0.33 1.32 0.66 2 1 C0.5682479 6.01113235 -1.98445693 7.94469549 -6 11 C-5.34727108 6.75726205 -3.0234967 3.0234967 0 0 Z " fill="#082144" transform="translate(177,120)"/>
<path d="M0 0 C1.32 0.33 2.64 0.66 4 1 C1.03 4.3 -1.94 7.6 -5 11 C-5.33 10.01 -5.66 9.02 -6 8 C-4.71034824 6.62437146 -3.37310707 5.29233607 -2 4 C-1.34 4 -0.68 4 0 4 C0 2.68 0 1.36 0 0 Z " fill="#395E87" transform="translate(188,190)"/>
<path d="M0 0 C2.51884651 2.51884651 2.8257588 4.43644242 3.6875 7.875 C3.95949219 8.92429688 4.23148437 9.97359375 4.51171875 11.0546875 C4.97540921 13.85166838 4.94575698 15.372192 4 18 C1.42113193 11.94526627 0.38979206 6.55925943 0 0 Z " fill="#495B71" transform="translate(298,132)"/>
<path d="M0 0 C0.66 0 1.32 0 2 0 C2 0.99 2 1.98 2 3 C2.66 3.33 3.32 3.66 4 4 C0.5647952 6.29013653 -0.985331 6.17842973 -5 6 C-3.38405168 3.95880212 -1.7143618 1.95927063 0 0 Z " fill="#283F59" transform="translate(115,300)"/>
<path d="M0 0 C1 3 1 3 -0.125 6.0625 C-2.19821268 9.31053319 -3.35433814 10.01468598 -7 11 C-5.5140084 6.40693504 -3.14985318 3.56430755 0 0 Z " fill="#33465D" transform="translate(162,138)"/>
<path d="M0 0 C0.33 0 0.66 0 1 0 C1.61538462 7.26153846 1.61538462 7.26153846 -1.5 11 C-2.325 11.66 -3.15 12.32 -4 13 C-3.52140759 11.39566191 -3.04210442 9.79153584 -2.5625 8.1875 C-2.29566406 7.29417969 -2.02882812 6.40085937 -1.75390625 5.48046875 C-1.19612127 3.64526945 -0.60655425 1.81966274 0 0 Z " fill="#386494" transform="translate(37,119)"/>
<path d="M0 0 C0.93065133 2.60582371 1.14917407 3.64198224 0.0625 6.25 C-0.4634375 7.11625 -0.4634375 7.11625 -1 8 C-1.66 8 -2.32 8 -3 8 C-3 7.34 -3 6.68 -3 6 C-3.99 5.67 -4.98 5.34 -6 5 C-4.68 4.67 -3.36 4.34 -2 4 C-2 3.01 -2 2.02 -2 1 C-1.34 0.67 -0.68 0.34 0 0 Z " fill="#032349" transform="translate(112,309)"/>
<path d="M0 0 C1.32 0 2.64 0 4 0 C4 0.66 4 1.32 4 2 C4.99 1.67 5.98 1.34 7 1 C7 1.99 7 2.98 7 4 C8.65 4 10.3 4 12 4 C12 4.33 12 4.66 12 5 C10.3739713 4.93999894 8.74898451 4.8512115 7.125 4.75 C5.76761719 4.68039062 5.76761719 4.68039062 4.3828125 4.609375 C2 4 2 4 0.6796875 1.953125 C0.45539063 1.30859375 0.23109375 0.6640625 0 0 Z " fill="#233A56" transform="translate(133,308)"/>
<path d="M0 0 C0.99 0 1.98 0 3 0 C3 2 3 2 0.625 4.5625 C-2 7 -2 7 -4 8 C-4.99 7.67 -5.98 7.34 -7 7 C-6.67 6.01 -6.34 5.02 -6 4 C-4.68 4 -3.36 4 -2 4 C-1.34 2.68 -0.68 1.36 0 0 Z " fill="#042047" transform="translate(146,275)"/>
<path d="M0 0 C1.98 0.495 1.98 0.495 4 1 C4 2.98 4 4.96 4 7 C3.67 6.34 3.34 5.68 3 5 C0.98330173 3.86649466 0.98330173 3.86649466 -1 3 C-0.67 2.01 -0.34 1.02 0 0 Z " fill="#173358" transform="translate(301,185)"/>
<path d="M0 0 C0.66 0.33 1.32 0.66 2 1 C2 1.66 2 2.32 2 3 C1.34 3 0.68 3 0 3 C-0.2475 3.598125 -0.495 4.19625 -0.75 4.8125 C-2.16370012 7.28647521 -3.65055383 8.43370255 -6 10 C-5.34 8.02 -4.68 6.04 -4 4 C-3.34 4 -2.68 4 -2 4 C-2 3.01 -2 2.02 -2 1 C-1.34 0.67 -0.68 0.34 0 0 Z " fill="#386291" transform="translate(125,133)"/>
<path d="M0 0 C1.32 0.33 2.64 0.66 4 1 C4 1.66 4 2.32 4 3 C3.071875 3.45375 2.14375 3.9075 1.1875 4.375 C-2.03921389 5.9421633 -2.03921389 5.9421633 -5 8 C-4.34 6.35 -3.68 4.7 -3 3 C-2.34 3 -1.68 3 -1 3 C-0.67 2.01 -0.34 1.02 0 0 Z " fill="#0C2447" transform="translate(230,53)"/>
<path d="M0 0 C0.66 0.33 1.32 0.66 2 1 C1.67 1.66 1.34 2.32 1 3 C0.64830932 4.32860925 0.31229724 5.66158328 0 7 C-1.98 7 -3.96 7 -6 7 C-4.02 4.69 -2.04 2.38 0 0 Z " fill="#2C445F" transform="translate(125,291)"/>
<path d="M0 0 C1.0625 1.875 1.0625 1.875 2 4 C1.67 4.66 1.34 5.32 1 6 C-0.32 6 -1.64 6 -3 6 C-3.66 6.66 -4.32 7.32 -5 8 C-5.66 8 -6.32 8 -7 8 C-7 7.34 -7 6.68 -7 6 C-6.34 6 -5.68 6 -5 6 C-5 5.34 -5 4.68 -5 4 C-3.37373596 2.61767557 -1.7074998 1.28062485 0 0 Z " fill="#334966" transform="translate(134,283)"/>
<path d="M0 0 C0.66 0.33 1.32 0.66 2 1 C2 2.32 2 3.64 2 5 C-0.66666667 5 -3.33333333 5 -6 5 C-4.02 3.35 -2.04 1.7 0 0 Z " fill="#2F415C" transform="translate(228,197)"/>
<path d="M0 0 C0 2 0 4 0 6 C0.66 5.01 1.32 4.02 2 3 C2.33 3.99 2.66 4.98 3 6 C3.66 6.33 4.32 6.66 5 7 C2.36 7 -0.28 7 -3 7 C-2.25 2.25 -2.25 2.25 0 0 Z " fill="#2A3E52" transform="translate(150,154)"/>
<path d="M0 0 C0.33 1.32 0.66 2.64 1 4 C0.01 4.495 0.01 4.495 -1 5 C-1.28875 5.825 -1.5775 6.65 -1.875 7.5 C-3 10 -3 10 -5.125 10.8125 C-5.74375 10.874375 -6.3625 10.93625 -7 11 C-5.22054913 6.95579349 -2.60470327 3.53921513 0 0 Z " fill="#3D5067" transform="translate(173,123)"/>
<path d="M0 0 C0.99 0.33 1.98 0.66 3 1 C0.36 3.97 -2.28 6.94 -5 10 C-5.33 9.34 -5.66 8.68 -6 8 C-5.0625 5.875 -5.0625 5.875 -4 4 C-3.34 4 -2.68 4 -2 4 C-1.34 2.68 -0.68 1.36 0 0 Z " fill="#416795" transform="translate(142,114)"/>
<path d="M0 0 C0.721875 0.268125 1.44375 0.53625 2.1875 0.8125 C1.1975 1.4725 0.2075 2.1325 -0.8125 2.8125 C-1.1425 3.8025 -1.4725 4.7925 -1.8125 5.8125 C-2.8025 5.4825 -3.7925 5.1525 -4.8125 4.8125 C-5.8025 4.8125 -6.7925 4.8125 -7.8125 4.8125 C-3.50480769 -0.23365385 -3.50480769 -0.23365385 0 0 Z " fill="#273B58" transform="translate(263.8125,166.1875)"/>
<path d="M0 0 C1.32 0.66 2.64 1.32 4 2 C-1.4 5.6 -1.4 5.6 -4 7 C-4.66 6.67 -5.32 6.34 -6 6 C-4.02 4.02 -2.04 2.04 0 0 Z " fill="#5B6167" transform="translate(87,326)"/>
<path d="M0 0 C0.66 0.66 1.32 1.32 2 2 C1.625 4.125 1.625 4.125 1 6 C-0.9375 5.6875 -0.9375 5.6875 -3 5 C-3.33 4.01 -3.66 3.02 -4 2 C-2.68 1.34 -1.36 0.68 0 0 Z " fill="#082246" transform="translate(237,289)"/>
<path d="M0 0 C2.475 0.99 2.475 0.99 5 2 C3.35 3.65 1.7 5.3 0 7 C0 6.34 0 5.68 0 5 C-0.66 4.67 -1.32 4.34 -2 4 C-1.34 2.68 -0.68 1.36 0 0 Z " fill="#1E3151" transform="translate(258,273)"/>
<path d="M0 0 C0.33 0.99 0.66 1.98 1 3 C-0.75 4.125 -0.75 4.125 -3 5 C-5.25 4.125 -5.25 4.125 -7 3 C-7 2.34 -7 1.68 -7 1 C-6.34 1 -5.68 1 -5 1 C-5 1.66 -5 2.32 -5 3 C-4.34 3 -3.68 3 -3 3 C-3 2.34 -3 1.68 -3 1 C-2.01 0.67 -1.02 0.34 0 0 Z " fill="#0F284A" transform="translate(265,270)"/>
<path d="M0 0 C2 2 2 2 3 4 C-3.625 7 -3.625 7 -7 7 C-4.69 4.69 -2.38 2.38 0 0 Z " fill="#2E435F" transform="translate(186,235)"/>
<path d="M0 0 C0.66 0.66 1.32 1.32 2 2 C1.34 2 0.68 2 0 2 C-0.2165625 2.928125 -0.2165625 2.928125 -0.4375 3.875 C-1 6 -1 6 -2 8 C-3.32 8 -4.64 8 -6 8 C-5.6875 6.125 -5.6875 6.125 -5 4 C-4.01 3.34 -3.02 2.68 -2 2 C-1.34 1.34 -0.68 0.68 0 0 Z " fill="#061E42" transform="translate(200,224)"/>
<path d="M0 0 C0 0.99 0 1.98 0 3 C-4.455 3.495 -4.455 3.495 -9 4 C-6.3515138 0.02727069 -4.69305063 -1.56435021 0 0 Z " fill="#192D4C" transform="translate(228,202)"/>
<path d="M0 0 C0.99 0.33 1.98 0.66 3 1 C0.69 3.31 -1.62 5.62 -4 8 C-4.66 7.67 -5.32 7.34 -6 7 C-6 6.34 -6 5.68 -6 5 C-5.01 4.67 -4.02 4.34 -3 4 C-2.67 3.01 -2.34 2.02 -2 1 C-1.34 0.67 -0.68 0.34 0 0 Z " fill="#375F90" transform="translate(150,105)"/>
<path d="M0 0 C0.66 0 1.32 0 2 0 C2 1.65 2 3.3 2 5 C1.01 5.33 0.02 5.66 -1 6 C-1.33 6.66 -1.66 7.32 -2 8 C-2.66 8 -3.32 8 -4 8 C-2.87548273 5.0280615 -1.77706209 2.66559313 0 0 Z " fill="#37495E" transform="translate(188,102)"/>
<path d="M0 0 C3.465 1.98 3.465 1.98 7 4 C6.01 4.33 5.02 4.66 4 5 C4 5.66 4 6.32 4 7 C3.01 6.67 2.02 6.34 1 6 C0.67 4.02 0.34 2.04 0 0 Z " fill="#28425C" transform="translate(238,56)"/>
<path d="M0 0 C0 0.66 0 1.32 0 2 C0.66 2.33 1.32 2.66 2 3 C-0.31 3.33 -2.62 3.66 -5 4 C-5 3.34 -5 2.68 -5 2 C-5.99 1.67 -6.98 1.34 -8 1 C-5.23735711 0.40267181 -2.83967231 0 0 0 Z " fill="#1C3651" transform="translate(199,308)"/>
<path d="M0 0 C4.455 0.99 4.455 0.99 9 2 C7 4 7 4 3.375 4.125 C2.26125 4.08375 1.1475 4.0425 0 4 C0 2.68 0 1.36 0 0 Z " fill="#062043" transform="translate(207,302)"/>
<path d="M0 0 C0.33 0.66 0.66 1.32 1 2 C0.01 3.32 -0.98 4.64 -2 6 C-2.33 5.67 -2.66 5.34 -3 5 C-3.99 6.485 -3.99 6.485 -5 8 C-5.99 7.67 -6.98 7.34 -8 7 C-7.01 6.67 -6.02 6.34 -5 6 C-4.67 5.01 -4.34 4.02 -4 3 C-3.34 3 -2.68 3 -2 3 C-2 2.34 -2 1.68 -2 1 C-1.34 0.67 -0.68 0.34 0 0 Z " fill="#3A4E63" transform="translate(155,264)"/>
<path d="M0 0 C0.66 0 1.32 0 2 0 C2.66 2.97 3.32 5.94 4 9 C3.01 9.495 3.01 9.495 2 10 C-0.09350689 6.5980513 -0.17942163 3.94727588 0 0 Z " fill="#25588B" transform="translate(37,226)"/>
<path d="M0 0 C0.66 0.33 1.32 0.66 2 1 C2 3.64 2 6.28 2 9 C-2 4.375 -2 4.375 -2 1 C-1.34 0.67 -0.68 0.34 0 0 Z " fill="#0B4C8E" transform="translate(36,216)"/>
<path d="M0 0 C-0.8125 1.9375 -0.8125 1.9375 -2 4 C-2.99 4.33 -3.98 4.66 -5 5 C-5.33 5.99 -5.66 6.98 -6 8 C-6.75 6.25 -6.75 6.25 -7 4 C-4.66754091 1.00112403 -3.88153854 0 0 0 Z " fill="#2C5D89" transform="translate(182,201)"/>
<path d="M0 0 C0.99 0.66 1.98 1.32 3 2 C3.99 2.33 4.98 2.66 6 3 C3.64046906 5.35953094 2.22104383 5.49141413 -1 6 C-1.625 4.125 -1.625 4.125 -2 2 C-1.34 1.34 -0.68 0.68 0 0 Z " fill="#1C5B97" transform="translate(91,167)"/>
<path d="M0 0 C1.32 0 2.64 0 4 0 C4 0.66 4 1.32 4 2 C3.01 2.66 2.02 3.32 1 4 C-0.19232613 6.05003955 -0.19232613 6.05003955 -1 8 C-2.04549908 4.86350275 -2.00170317 4.0051095 -1 1 C-0.67 0.67 -0.34 0.34 0 0 Z " fill="#0A2647" transform="translate(168,132)"/>
<path d="M0 0 C6.875 3.75 6.875 3.75 8 6 C7.01 6 6.02 6 5 6 C5 5.34 5 4.68 5 4 C3.35 4 1.7 4 0 4 C0 2.68 0 1.36 0 0 Z " fill="#2C435C" transform="translate(245,61)"/>
<path d="M0 0 C0.86625 0.3403125 0.86625 0.3403125 1.75 0.6875 C1.09 1.3475 0.43 2.0075 -0.25 2.6875 C-1.24 2.6875 -2.23 2.6875 -3.25 2.6875 C-2.92 3.6775 -2.59 4.6675 -2.25 5.6875 C-3.57 5.3575 -4.89 5.0275 -6.25 4.6875 C-6.25 4.0275 -6.25 3.3675 -6.25 2.6875 C-3.02697842 -0.42041367 -3.02697842 -0.42041367 0 0 Z " fill="#052046" transform="translate(185.25,240.3125)"/>
<path d="M0 0 C0.99 0.33 1.98 0.66 3 1 C2.01 3.97 1.02 6.94 0 10 C-0.33 10 -0.66 10 -1 10 C-0.67 6.7 -0.34 3.4 0 0 Z " fill="#2C3C55" transform="translate(297,213)"/>
<path d="M0 0 C0.99 0.33 1.98 0.66 3 1 C1.35 2.98 -0.3 4.96 -2 7 C-2.66 5.68 -3.32 4.36 -4 3 C-3.34 3 -2.68 3 -2 3 C-1.34 2.01 -0.68 1.02 0 0 Z " fill="#3E6A9E" transform="translate(164,218)"/>
<path d="M0 0 C1.74627478 2.61941217 2.38722388 4.03824877 3 7 C1.33333333 7 -0.33333333 7 -2 7 C-2.33 6.01 -2.66 5.02 -3 4 C-1.5625 1.8125 -1.5625 1.8125 0 0 Z " fill="#061E3E" transform="translate(152,153)"/>
<path d="M0 0 C1.68762851 1.6454378 3.3540349 3.31288577 5 5 C5 5.33 5 5.66 5 6 C3.35 6 1.7 6 0 6 C-0.66 4.68 -1.32 3.36 -2 2 C-1.34 2 -0.68 2 0 2 C0 1.34 0 0.68 0 0 Z " fill="#293C5A" transform="translate(274,88)"/>
<path d="M0 0 C0.6875 1.75 0.6875 1.75 1 4 C-0.25 6.25 -0.25 6.25 -2 8 C-2.99 8 -3.98 8 -5 8 C-3.62845496 5.04590299 -2.01136276 2.55991624 0 0 Z " fill="#384D68" transform="translate(203,83)"/>
<path d="M0 0 C1.32 0.66 2.64 1.32 4 2 C3.34 3.32 2.68 4.64 2 6 C1.34 5.34 0.68 4.68 0 4 C-0.99 4.495 -0.99 4.495 -2 5 C-1.34 3.35 -0.68 1.7 0 0 Z " fill="#031E46" transform="translate(212,73)"/>
<path d="M0 0 C0.66 0.99 1.32 1.98 2 3 C1.01 3.99 0.02 4.98 -1 6 C-1.99 5.67 -2.98 5.34 -4 5 C-4 4.34 -4 3.68 -4 3 C-2 1.375 -2 1.375 0 0 Z " fill="#092243" transform="translate(172,250)"/>
<path d="M0 0 C1.0625 1.8125 1.0625 1.8125 2 4 C1.67 4.99 1.34 5.98 1 7 C0.01 7 -0.98 7 -2 7 C-2.125 4.625 -2.125 4.625 -2 2 C-1.34 1.34 -0.68 0.68 0 0 Z " fill="#203550" transform="translate(165,134)"/>
<path d="M0 0 C0.66 0.33 1.32 0.66 2 1 C1.1875 2.9375 1.1875 2.9375 0 5 C-0.99 5.33 -1.98 5.66 -3 6 C-3.66 6.66 -4.32 7.32 -5 8 C-5 7.34 -5 6.68 -5 6 C-5.66 5.67 -6.32 5.34 -7 5 C-6.030625 4.54625 -5.06125 4.0925 -4.0625 3.625 C-0.92920418 2.34213779 -0.92920418 2.34213779 0 0 Z " fill="#124E90" transform="translate(136,119)"/>
<path d="M0 0 C1.65 1.65 3.3 3.3 5 5 C4.34 5 3.68 5 3 5 C3 5.66 3 6.32 3 7 C2.34 7 1.68 7 1 7 C0.67 4.69 0.34 2.38 0 0 Z " fill="#253B5A" transform="translate(257,70)"/>
<path d="M0 0 C0.33 1.32 0.66 2.64 1 4 C0.01 4.495 0.01 4.495 -1 5 C-2.13350534 7.01669827 -2.13350534 7.01669827 -3 9 C-3.66 8.67 -4.32 8.34 -5 8 C-3.62845496 5.04590299 -2.01136276 2.55991624 0 0 Z " fill="#44556E" transform="translate(220,60)"/>
<path d="M0 0 C0.99 0 1.98 0 3 0 C2.67 1.65 2.34 3.3 2 5 C0.68 4.67 -0.64 4.34 -2 4 C-1.34 2.68 -0.68 1.36 0 0 Z " fill="#2B5586" transform="translate(231,9)"/>
<path d="M0 0 C2.475 0.495 2.475 0.495 5 1 C4.34 2.65 3.68 4.3 3 6 C2.01 5.67 1.02 5.34 0 5 C0 3.35 0 1.7 0 0 Z " fill="#1C324F" transform="translate(285,238)"/>
<path d="M0 0 C0.99 0.33 1.98 0.66 3 1 C2.67 2.32 2.34 3.64 2 5 C0.68 5 -0.64 5 -2 5 C-1.34 3.35 -0.68 1.7 0 0 Z " fill="#114E86" transform="translate(226,13)"/>
<path d="M0 0 C3.63 0 7.26 0 11 0 C7.55549263 2.29633824 5.06187717 2.54016485 1 3 C0.67 2.01 0.34 1.02 0 0 Z " fill="#40556C" transform="translate(201,307)"/>
<path d="M0 0 C1.32 0.99 2.64 1.98 4 3 C2.68 3 1.36 3 0 3 C0 3.99 0 4.98 0 6 C-1.32 5.34 -2.64 4.68 -4 4 C-2.68 2.68 -1.36 1.36 0 0 Z " fill="#062348" transform="translate(225,296)"/>
<path d="M0 0 C0.99 0.66 1.98 1.32 3 2 C-0.96 3.98 -0.96 3.98 -5 6 C-5 5.01 -5 4.02 -5 3 C-3.68 3 -2.36 3 -1 3 C-0.67 2.01 -0.34 1.02 0 0 Z " fill="#364863" transform="translate(230,296)"/>
<path d="M0 0 C0 0.66 0 1.32 0 2 C-0.99 2 -1.98 2 -3 2 C-3 2.66 -3 3.32 -3 4 C-4.32 3.67 -5.64 3.34 -7 3 C-7 2.34 -7 1.68 -7 1 C-4.50935112 0.31292445 -2.62113708 0 0 0 Z " fill="#0A2140" transform="translate(258,278)"/>
<path d="M0 0 C0.99 0 1.98 0 3 0 C1.63016497 3.16115776 1.0109362 3.9927092 -2 6 C-1.125 1.125 -1.125 1.125 0 0 Z " fill="#2D5D8D" transform="translate(99,162)"/>
<path d="M0 0 C1.32 0.33 2.64 0.66 4 1 C3.01 2.485 3.01 2.485 2 4 C1.34 4 0.68 4 0 4 C0 4.66 0 5.32 0 6 C-0.66 6 -1.32 6 -2 6 C-1.34 4.02 -0.68 2.04 0 0 Z " fill="#0D4F8C" transform="translate(117,139)"/>
<path d="M0 0 C0.66 0 1.32 0 2 0 C1.75 1.875 1.75 1.875 1 4 C-1.0625 5.25 -1.0625 5.25 -3 6 C-2.67 4.68 -2.34 3.36 -2 2 C-1.34 2 -0.68 2 0 2 C0 1.34 0 0.68 0 0 Z " fill="#1F5387" transform="translate(176,74)"/>
<path d="M0 0 C-0.33 1.32 -0.66 2.64 -1 4 C-2.65 3.67 -4.3 3.34 -6 3 C-6 2.34 -6 1.68 -6 1 C-4 0 -4 0 0 0 Z " fill="#1D5789" transform="translate(103,52)"/>
<path d="" fill="#ABA1A9" transform="translate(0,0)"/>
</svg>
