<?xml version="1.0" encoding="UTF-8"?>
<svg version="1.1" xmlns="http://www.w3.org/2000/svg" width="337" height="334">
<path d="M0 0 C0.99 0.33 1.98 0.66 3 1 C2.63648438 1.73476563 2.63648438 1.73476563 2.265625 2.484375 C-0.71666968 9.1371862 -2.08311273 15.82633903 -3.41992188 22.94335938 C-5.21249635 32.398311 -7.58294159 41.68838153 -10 51 C-9.27039063 51.27972656 -8.54078125 51.55945312 -7.7890625 51.84765625 C-5.21069597 52.91294774 -2.81595514 54.0912 -0.375 55.4375 C0.38039062 55.84871094 1.13578125 56.25992188 1.9140625 56.68359375 C3.9269662 57.95390938 5.35881067 59.293721 7 61 C8.65532623 62.01866229 10.32260138 63.01810813 12 64 C14.3125 65.5625 14.3125 65.5625 16 67 C16 67.66 16 68.32 16 69 C16.5775 69.2475 17.155 69.495 17.75 69.75 C20.32939979 71.18299988 22.06121592 72.78424676 24 75 C24 75.66 24 76.32 24 77 C24.61875 77.2475 25.2375 77.495 25.875 77.75 C28.35068687 79.20628639 28.95125002 80.37812506 30 83 C30.66 83 31.32 83 32 83 C33.44526736 84.73548169 34.8087222 86.53975963 36.125 88.375 C36.84945312 89.37273437 37.57390625 90.37046875 38.3203125 91.3984375 C40 94 40 94 40 96 C40.66 96 41.32 96 42 96 C61.91160379 129.41722029 71.14304453 168.19855587 61.9296875 206.71484375 C59.6790129 215.44371312 56.84306674 223.83478503 53 232 C52.56083252 232.93972656 52.56083252 232.93972656 52.11279297 233.8984375 C48.06815478 242.48532569 43.72303238 250.39255452 38 258 C37.06088173 259.37389524 36.12321637 260.74878558 35.1875 262.125 C34.465625 263.07375 33.74375 264.0225 33 265 C32.34 265 31.68 265 31 265 C30.6596875 265.8353125 30.6596875 265.8353125 30.3125 266.6875 C28.62841138 269.65470376 26.44579607 271.62021264 24 274 C23.15824219 274.82757813 22.31648437 275.65515625 21.44921875 276.5078125 C-4.08262902 300.70348153 -37.55642096 314.14581236 -72.74829102 314.24023438 C-74.90096246 314.24983701 -77.05263408 314.28087185 -79.20507812 314.3125 C-87.8525081 314.37742046 -95.85862811 313.55281835 -104.31860352 311.74511719 C-112.88349902 309.73671094 -112.88349902 309.73671094 -121.03125 312.24609375 C-121.91683594 312.75043945 -122.80242187 313.25478516 -123.71484375 313.77441406 C-125.09349609 314.5976416 -125.09349609 314.5976416 -126.5 315.4375 C-128.44684145 316.54746095 -130.39476734 317.65552187 -132.34375 318.76171875 C-133.29894531 319.31134277 -134.25414062 319.8609668 -135.23828125 320.42724609 C-139.11078451 322.63257371 -143.03187833 324.7227455 -147 326.75 C-147.62712891 327.08443115 -148.25425781 327.4188623 -148.90039062 327.76342773 C-152.75857876 329.72467337 -155.6869431 330.34188866 -160 330 C-157.09217598 322.95686888 -154.14161963 315.94215574 -151 309 C-150.56300781 308.03320312 -150.12601562 307.06640625 -149.67578125 306.0703125 C-146.19184028 298.38368056 -146.19184028 298.38368056 -145 296 C-145.86431641 295.58234375 -145.86431641 295.58234375 -146.74609375 295.15625 C-148.93172454 294.03502519 -150.98669735 292.81187528 -153.0625 291.5 C-153.73410156 291.0771875 -154.40570313 290.654375 -155.09765625 290.21875 C-156.74368832 289.16420789 -158.37345752 288.08436165 -160 287 C-160 286.34 -160 285.68 -160 285 C-160.721875 284.7525 -161.44375 284.505 -162.1875 284.25 C-165.27606582 282.87730408 -167.51011418 281.27646704 -170 279 C-170 278.34 -170 277.68 -170 277 C-170.928125 276.62875 -170.928125 276.62875 -171.875 276.25 C-174.35068687 274.79371361 -174.95125002 273.62187494 -176 271 C-176.66 271 -177.32 271 -178 271 C-178 270.34 -178 269.68 -178 269 C-178.99 268.67 -179.98 268.34 -181 268 C-182.66633199 266.1176072 -184.18478168 264.25631025 -185.6875 262.25 C-186.34951416 261.37263184 -186.34951416 261.37263184 -187.02490234 260.47753906 C-210.55609283 228.82541482 -219.27309917 192.13529507 -214.65234375 153.06005859 C-210.97222918 128.32200692 -199.63322124 102.06310273 -182.5 83.62109375 C-180.79597085 81.82816881 -180.79597085 81.82816881 -178.6875 79 C-177.8521875 78.01 -177.8521875 78.01 -177 77 C-176.34 77 -175.68 77 -175 77 C-174.73356689 76.39929688 -174.46713379 75.79859375 -174.19262695 75.1796875 C-172.96775693 72.94107142 -171.85841356 71.75204358 -169.91796875 70.125 C-169.31533203 69.61453125 -168.71269531 69.1040625 -168.09179688 68.578125 C-167.14916992 67.79695313 -167.14916992 67.79695313 -166.1875 67 C-165.57068359 66.47921875 -164.95386719 65.9584375 -164.31835938 65.421875 C-162.55425386 63.93710181 -160.77907934 62.46677342 -159 61 C-158.13117188 60.27554688 -157.26234375 59.55109375 -156.3671875 58.8046875 C-152.22668757 55.64806874 -147.60437204 53.40384099 -143 51 C-142.06929688 50.50242188 -141.13859375 50.00484375 -140.1796875 49.4921875 C-127.23381064 42.75468755 -114.36012216 38.43125089 -100 36 C-98.86111328 35.74669922 -98.86111328 35.74669922 -97.69921875 35.48828125 C-89.60857797 34.02470658 -81.51443053 33.84268773 -73.3125 33.875 C-72.31927734 33.87113281 -71.32605469 33.86726563 -70.30273438 33.86328125 C-65.09829552 33.87019745 -60.14415706 34.11420765 -55 35 C-50.54660791 35.73341092 -47.41975938 35.88845191 -43.484375 33.42578125 C-40.91552149 31.35730258 -38.45649537 29.2001997 -36 27 C-34.51467054 25.81471205 -33.01594676 24.64586934 -31.5 23.5 C-30.55640625 22.77296875 -30.55640625 22.77296875 -29.59375 22.03125 C-28 21 -28 21 -26 21 C-26 20.34 -26 19.68 -26 19 C-23.525 18.01 -23.525 18.01 -21 17 C-21 16.34 -21 15.68 -21 15 C-19.50292969 13.71899414 -19.50292969 13.71899414 -17.421875 12.28515625 C-16.67292969 11.76373047 -15.92398438 11.24230469 -15.15234375 10.70507812 C-14.35957031 10.16302734 -13.56679687 9.62097656 -12.75 9.0625 C-11.20284299 7.99129262 -9.65595931 6.91969033 -8.109375 5.84765625 C-7.07248535 5.1362146 -7.07248535 5.1362146 -6.01464844 4.41040039 C-3.94449669 3.00537497 -3.94449669 3.00537497 -1.93066406 1.25952148 C-0.97498535 0.63605835 -0.97498535 0.63605835 0 0 Z " fill="#054F97" transform="translate(241,1)"/>
<path d="M0 0 C7.66911433 0.17429805 15.21082509 4.37557182 20.70703125 9.6328125 C21.13371094 10.08398438 21.56039062 10.53515625 22 11 C23.65532623 12.01866229 25.32260138 13.01810813 27 14 C29.3125 15.5625 29.3125 15.5625 31 17 C31 17.66 31 18.32 31 19 C31.5775 19.2475 32.155 19.495 32.75 19.75 C35.32939979 21.18299988 37.06121592 22.78424676 39 25 C39 25.66 39 26.32 39 27 C39.61875 27.2475 40.2375 27.495 40.875 27.75 C43.35068687 29.20628639 43.95125002 30.37812506 45 33 C45.66 33 46.32 33 47 33 C48.44526736 34.73548169 49.8087222 36.53975963 51.125 38.375 C52.21167969 39.87160156 52.21167969 39.87160156 53.3203125 41.3984375 C55 44 55 44 55 46 C55.66 46 56.32 46 57 46 C76.91160379 79.41722029 86.14304453 118.19855587 76.9296875 156.71484375 C74.6790129 165.44371312 71.84306674 173.83478503 68 182 C67.56083252 182.93972656 67.56083252 182.93972656 67.11279297 183.8984375 C63.06815478 192.48532569 58.72303238 200.39255452 53 208 C52.06088173 209.37389524 51.12321637 210.74878558 50.1875 212.125 C49.465625 213.07375 48.74375 214.0225 48 215 C47.34 215 46.68 215 46 215 C45.773125 215.556875 45.54625 216.11375 45.3125 216.6875 C43.62841138 219.65470376 41.44579607 221.62021264 39 224 C38.15824219 224.82757813 37.31648437 225.65515625 36.44921875 226.5078125 C10.91737098 250.70348153 -22.55642096 264.14581236 -57.74829102 264.24023438 C-59.90096246 264.24983701 -62.05263408 264.28087185 -64.20507812 264.3125 C-72.8525081 264.37742046 -80.85862811 263.55281835 -89.31860352 261.74511719 C-97.88349902 259.73671094 -97.88349902 259.73671094 -106.03125 262.24609375 C-106.91699707 262.75052002 -107.80274414 263.25494629 -108.71533203 263.7746582 C-109.63427246 264.323396 -110.55321289 264.87213379 -111.5 265.4375 C-113.444227 266.54617658 -115.3895492 267.65293469 -117.3359375 268.7578125 C-118.29081055 269.30727539 -119.24568359 269.85673828 -120.22949219 270.42285156 C-124.14563684 272.65216902 -128.11231399 274.76305567 -132.125 276.8125 C-132.76888672 277.15531006 -133.41277344 277.49812012 -134.07617188 277.85131836 C-136.70840654 279.18913384 -138.44996683 280.06809092 -141.4296875 279.69921875 C-141.94789063 279.46847656 -142.46609375 279.23773438 -143 279 C-141.9171875 278.1646875 -141.9171875 278.1646875 -140.8125 277.3125 C-137.35846608 274.47251656 -134.29446323 271.34781421 -131.19921875 268.125 C-130.57660156 267.485625 -129.95398438 266.84625 -129.3125 266.1875 C-128.73113281 265.58292969 -128.14976562 264.97835938 -127.55078125 264.35546875 C-126 263 -126 263 -124 263 C-123.67 262.01 -123.34 261.02 -123 260 C-121.42638552 258.60639308 -119.79004275 257.28297912 -118.125 256 C-112.88485203 251.826912 -108.26473629 247.36901024 -103.57421875 242.578125 C-100.73493119 239.73452896 -97.77371462 237.10222962 -94.71484375 234.5 C-93.12035238 233.10527406 -91.65162399 231.65429271 -90.1875 230.125 C-88 228 -88 228 -85 227 C-84.67 226.01 -84.34 225.02 -84 224 C-78.53488372 219 -78.53488372 219 -76 219 C-75.67 218.01 -75.34 217.02 -75 216 C-74.34 216 -73.68 216 -73 216 C-73 215.34 -73 214.68 -73 214 C-71.390625 212.4140625 -71.390625 212.4140625 -69.25 210.625 C-66.93096298 208.66242273 -64.74780716 206.7411705 -62.625 204.5625 C-61 203 -61 203 -59 203 C-59 202.34 -59 201.68 -59 201 C-57.20703125 199.44921875 -57.20703125 199.44921875 -54.8125 197.6875 C-52.05671212 195.61417996 -49.63476463 193.63476463 -47.1875 191.1875 C-45 189 -45 189 -42.8125 187.9375 C-40.47139069 186.72658139 -39.95928874 185.39822186 -39 183 C-38.34 183 -37.68 183 -37 183 C-36.76796875 182.41863281 -36.5359375 181.83726562 -36.296875 181.23828125 C-34.68412056 178.45482253 -32.82594043 177.10384356 -30.25 175.1875 C-27.18615958 172.81859628 -24.46967595 170.59794182 -22.0625 167.5625 C-18.08535705 162.61090038 -12.95548101 158.92000737 -8 155 C-3.51535236 151.3785063 0.5914186 147.52213735 4.57421875 143.3515625 C6.01432104 141.86613011 7.50419464 140.42932512 9 139 C9.66 139 10.32 139 11 139 C11 138.34 11 137.68 11 137 C11.66 137 12.32 137 13 137 C13 136.34 13 135.68 13 135 C14.6796875 133.2734375 14.6796875 133.2734375 16.875 131.375 C17.59429687 130.74335938 18.31359375 130.11171875 19.0546875 129.4609375 C21 128 21 128 23 128 C23.3403125 127.15695313 23.3403125 127.15695313 23.6875 126.296875 C25.36929635 123.35373139 27.4710911 121.49955268 30 119.25 C30.886875 118.45078125 31.77375 117.6515625 32.6875 116.828125 C35 115 35 115 37 115 C37 114.34 37 113.68 37 113 C37.99 112.01 38.98 111.02 40 110 C0.73 110 -38.54 110 -79 110 C-78.01 109.67 -77.02 109.34 -76 109 C-76.33 108.01 -76.66 107.02 -77 106 C-75.74743003 101.48456258 -72.99674448 98.10851858 -70.125 94.5 C-69.69058594 93.94441406 -69.25617188 93.38882813 -68.80859375 92.81640625 C-66.84516459 90.31052819 -64.85913564 87.82774738 -62.84375 85.36328125 C-60.66384694 82.56912585 -58.9240496 79.63347399 -57.1484375 76.57421875 C-56.76945312 76.05472656 -56.39046875 75.53523438 -56 75 C-55.34 75 -54.68 75 -54 75 C-53.75894531 74.28457031 -53.51789063 73.56914063 -53.26953125 72.83203125 C-51.81823068 69.5945146 -50.00005877 67.37317749 -47.6875 64.6875 C-44.8669695 61.34095417 -42.29889286 58.07553229 -40.0625 54.3125 C-39.381875 53.219375 -38.70125 52.12625 -38 51 C-37.34 51 -36.68 51 -36 51 C-35.71125 50.4225 -35.4225 49.845 -35.125 49.25 C-34.08333333 47.16666667 -33.04166667 45.08333333 -32 43 C-31.34 43 -30.68 43 -30 43 C-29.75121094 42.29101562 -29.50242187 41.58203125 -29.24609375 40.8515625 C-27.85624999 37.6710423 -26.12517432 35.16364349 -24.0625 32.375 C-23.02802734 30.96347656 -23.02802734 30.96347656 -21.97265625 29.5234375 C-20 27 -20 27 -18.3828125 25.39453125 C-16.82634634 23.8248747 -15.87147302 22.24786449 -14.8125 20.3125 C-14.214375 19.219375 -13.61625 18.12625 -13 17 C-12.34 17 -11.68 17 -11 17 C-11 16.34 -11 15.68 -11 15 C-10.34 15 -9.68 15 -9 15 C-8.67 13.68 -8.34 12.36 -8 11 C-7.34 11 -6.68 11 -6 11 C-5.62875 9.948125 -5.62875 9.948125 -5.25 8.875 C-3.83911974 5.62997541 -2.02104602 2.89683263 0 0 Z " fill="#042753" transform="translate(226,51)"/>
<path d="M0 0 C0.99 0.33 1.98 0.66 3 1 C2.63648438 1.73476563 2.63648438 1.73476563 2.265625 2.484375 C-0.71666968 9.1371862 -2.08311273 15.82633903 -3.41992188 22.94335938 C-5.21249635 32.398311 -7.58294159 41.68838153 -10 51 C-11.65 50.67 -13.3 50.34 -15 50 C-15.37125 51.051875 -15.37125 51.051875 -15.75 52.125 C-17.17180238 55.39514548 -18.87246288 58.141122 -21 61 C-21.66 61 -22.32 61 -23 61 C-23.33 62.32 -23.66 63.64 -24 65 C-24.66 65 -25.32 65 -26 65 C-26 65.66 -26 66.32 -26 67 C-26.66 67 -27.32 67 -28 67 C-28.268125 67.721875 -28.53625 68.44375 -28.8125 69.1875 C-30.36192478 72.85719026 -31.94228774 75.98934697 -34.84375 78.76171875 C-38.22626066 82.27291188 -40.59308908 86.41098579 -43.1953125 90.515625 C-43.79085937 91.33546875 -44.38640625 92.1553125 -45 93 C-45.66 93 -46.32 93 -47 93 C-47.28875 93.763125 -47.5775 94.52625 -47.875 95.3125 C-49 98 -49 98 -51 101 C-51.66 101 -52.32 101 -53 101 C-53.22945313 101.69222656 -53.45890625 102.38445312 -53.6953125 103.09765625 C-55.2798282 106.62249207 -57.4745675 109.44570731 -59.875 112.4375 C-60.74932385 113.53883672 -61.6217369 114.64169322 -62.4921875 115.74609375 C-62.91467773 116.28089355 -63.33716797 116.81569336 -63.77246094 117.36669922 C-65.00166804 119.0022194 -66.10089269 120.68231182 -67.1953125 122.41015625 C-67.79085937 123.26480469 -68.38640625 124.11945313 -69 125 C-69.66 125 -70.32 125 -71 125 C-71.37125 126.051875 -71.37125 126.051875 -71.75 127.125 C-73.17180238 130.39514548 -74.87246288 133.141122 -77 136 C-77.66 136 -78.32 136 -79 136 C-79.23589844 136.71414062 -79.47179687 137.42828125 -79.71484375 138.1640625 C-81.66996315 142.47839893 -84.85546587 145.5899093 -88.00390625 149.0859375 C-90.58274644 152.38950557 -90.58274644 152.38950557 -91 159 C-52.72 159.33 -14.44 159.66 25 160 C24.67 160.99 24.34 161.98 24 163 C23.34 163 22.68 163 22 163 C22 163.66 22 164.32 22 165 C20.42578125 166.5859375 20.42578125 166.5859375 18.3125 168.375 C17.5803125 168.99890625 16.848125 169.6228125 16.09375 170.265625 C14.51644714 171.57219677 12.91911912 172.85465 11.3125 174.125 C7.86774115 176.91804772 4.85662762 180.09442224 1.8125 183.3125 C0 185 0 185 -2 185 C-2 185.66 -2 186.32 -2 187 C-2.66 187 -3.32 187 -4 187 C-4 187.66 -4 188.32 -4 189 C-5.3984375 190.41015625 -5.3984375 190.41015625 -7.375 192.0625 C-10.58342938 194.7907947 -13.74980367 197.55144446 -16.875 200.375 C-17.70773438 201.12394531 -18.54046875 201.87289062 -19.3984375 202.64453125 C-21.20345907 204.27880754 -22.99975974 205.92274744 -24.7890625 207.57421875 C-25.68367187 208.39535156 -26.57828125 209.21648437 -27.5 210.0625 C-28.3146875 210.81660156 -29.129375 211.57070312 -29.96875 212.34765625 C-32 214 -32 214 -34 214 C-34.268125 214.639375 -34.53625 215.27875 -34.8125 215.9375 C-36 218 -36 218 -39 219 C-39.33 219.99 -39.66 220.98 -40 222 C-41.69941201 223.49696528 -43.45912886 224.92625081 -45.25 226.3125 C-49.85520185 229.95275827 -49.85520185 229.95275827 -53.8125 234.25 C-56.31048599 237.39032524 -58.80280637 239.58434259 -62 242 C-62.66 242 -63.32 242 -64 242 C-64.33 242.99 -64.66 243.98 -65 245 C-66.55859375 246.60546875 -66.55859375 246.60546875 -68.4375 248.1875 C-69.05496094 248.71730469 -69.67242187 249.24710938 -70.30859375 249.79296875 C-72 251 -72 251 -74 251 C-74 251.66 -74 252.32 -74 253 C-75.609375 254.5859375 -75.609375 254.5859375 -77.75 256.375 C-80.06903702 258.33757727 -82.25219284 260.2588295 -84.375 262.4375 C-86 264 -86 264 -88 264 C-88 264.66 -88 265.32 -88 266 C-89.50390625 267.515625 -89.50390625 267.515625 -91.5625 269.25 C-92.65691406 270.18199219 -92.65691406 270.18199219 -93.7734375 271.1328125 C-94.50820312 271.74898438 -95.24296875 272.36515625 -96 273 C-97.23071908 274.03983204 -98.46000751 275.08136101 -99.6875 276.125 C-100.2546875 276.60710937 -100.821875 277.08921875 -101.40625 277.5859375 C-102.8953783 278.90717388 -104.29608464 280.32622615 -105.6875 281.75 C-108 284 -108 284 -110.1875 285.0625 C-112.15850958 285.85204441 -112.15850958 285.85204441 -112.8984375 287.86328125 C-114.13167606 290.2554142 -115.37234044 291.41619854 -117.4375 293.125 C-121.98964117 296.95882165 -126.33276329 300.99621751 -130.6796875 305.05859375 C-133 307 -133 307 -135 307 C-135.33 307.99 -135.66 308.98 -136 310 C-137.63671875 311.61328125 -137.63671875 311.61328125 -139.6875 313.3125 C-142.38374342 315.58760665 -144.93223742 317.8922017 -147.375 320.4375 C-150 323 -150 323 -152 323 C-152.2475 323.598125 -152.495 324.19625 -152.75 324.8125 C-154.16370012 327.28647521 -155.65055383 328.43370255 -158 330 C-158.66 329.67 -159.32 329.34 -160 329 C-159.48050781 327.92363281 -158.96101563 326.84726562 -158.42578125 325.73828125 C-157.72036054 324.2634957 -157.01601034 322.78819781 -156.3125 321.3125 C-155.94310303 320.540271 -155.57370605 319.76804199 -155.19311523 318.97241211 C-153.03649103 314.40180435 -151.19016792 309.85380416 -149.5625 305.0625 C-147.05505042 298.32006032 -143.01987456 294.02798421 -138 289 C-136.34379247 287.1969747 -134.69767202 285.38462406 -133.0625 283.5625 C-131.96615234 282.35787109 -131.96615234 282.35787109 -130.84765625 281.12890625 C-128.86672419 278.93707035 -128.86672419 278.93707035 -127 276 C-126.34 276 -125.68 276 -125 276 C-124.60748047 275.13181641 -124.60748047 275.13181641 -124.20703125 274.24609375 C-122.92707261 271.86429369 -121.48643946 270.07683354 -119.6875 268.0625 C-118.75550781 267.01642578 -118.75550781 267.01642578 -117.8046875 265.94921875 C-116.3528145 264.3810702 -114.84130176 262.86824823 -113.3125 261.375 C-110.87680696 259.02579708 -110.87680696 259.02579708 -109 255.9375 C-106.91446612 252.87437211 -104.89036646 251.28540604 -102 249 C-100.26933732 247.14354981 -98.62406108 245.22742399 -96.9765625 243.296875 C-93.99622684 239.83356004 -90.90144855 236.47514536 -87.8203125 233.1015625 C-85.96323333 231.13276579 -85.96323333 231.13276579 -85 229 C-84.34 229 -83.68 229 -83 229 C-82.63455078 228.15695313 -82.63455078 228.15695313 -82.26171875 227.296875 C-80.75819064 224.55980215 -78.93300252 222.54204059 -76.8125 220.25 C-76.00683594 219.37085938 -75.20117188 218.49171875 -74.37109375 217.5859375 C-73.58863281 216.73257813 -72.80617188 215.87921875 -72 215 C-69.65090565 212.3470187 -67.32651438 209.67278629 -65 207 C-63.83370365 205.66634273 -62.66703383 204.33301198 -61.5 203 C-60.93023437 202.34773437 -60.36046875 201.69546875 -59.7734375 201.0234375 C-58.53300718 199.60814476 -57.28781465 198.19701811 -56.0390625 196.7890625 C-55.09160156 195.71785156 -55.09160156 195.71785156 -54.125 194.625 C-53.55007812 193.97789062 -52.97515625 193.33078125 -52.3828125 192.6640625 C-50.92308178 191.03590442 -50.92308178 191.03590442 -50 189 C-86.63 189 -123.26 189 -161 189 C-159.42376647 185.84753293 -158.32458311 184.02770942 -156.06640625 181.50390625 C-155.49986328 180.86259766 -154.93332031 180.22128906 -154.34960938 179.56054688 C-153.46499023 178.57151367 -153.46499023 178.57151367 -152.5625 177.5625 C-148.94817757 173.51875312 -145.75187613 169.69240884 -143 165 C-141.4296875 163.5234375 -141.4296875 163.5234375 -139.875 162.375 C-136.79020875 160.25395783 -136.79020875 160.25395783 -136 157 C-135.29875 156.443125 -134.5975 155.88625 -133.875 155.3125 C-127.48964276 150.17645179 -122.65921912 143.37666306 -117.69921875 136.90625 C-117.13847656 136.2771875 -116.57773438 135.648125 -116 135 C-115.34 135 -114.68 135 -114 135 C-113.773125 134.278125 -113.54625 133.55625 -113.3125 132.8125 C-111.72950132 129.42035997 -109.67813729 127.61337437 -107 125 C-105.23791033 123.11539818 -103.48786238 121.21946575 -101.75 119.3125 C-100.87859375 118.35988281 -100.0071875 117.40726562 -99.109375 116.42578125 C-96.99506137 114.1979846 -96.99506137 114.1979846 -96 112 C-95.34 112 -94.68 112 -94 112 C-93.7525 111.443125 -93.505 110.88625 -93.25 110.3125 C-91.77075182 107.57589087 -90.06532561 105.32349131 -88 103 C-87.34 103 -86.68 103 -86 103 C-85.5978125 102.1028125 -85.5978125 102.1028125 -85.1875 101.1875 C-84.00691239 99.01273336 -82.73183488 97.73183488 -81 96 C-80.505 94.515 -80.505 94.515 -80 93 C-78.37105421 91.27233022 -76.71942191 89.63409079 -75 88 C-70.64225258 83.83213264 -66.58655418 79.58391163 -62.8125 74.875 C-59.2189914 70.39397545 -55.43609204 66.17638168 -51.5 62 C-46.85637238 57.06852491 -42.48742716 52.01165081 -38.25 46.72265625 C-34.83849201 42.59449467 -31.19226916 38.693881 -27.5546875 34.765625 C-22.29046613 29.06674315 -17.27088521 23.16266662 -12.25 17.25 C-11.77755859 16.69449463 -11.30511719 16.13898926 -10.81835938 15.56665039 C-8.89632242 13.29505843 -7.02414841 11.03389639 -5.296875 8.609375 C-4.86890625 8.07828125 -4.4409375 7.5471875 -4 7 C-3.34 7 -2.68 7 -2 7 C-1.34 5.35 -0.68 3.7 0 2 C-0.99 1.505 -0.99 1.505 -2 1 C-1.34 0.67 -0.68 0.34 0 0 Z " fill="#FCFDFD" transform="translate(241,1)"/>
<path d="M0 0 C0.99 0 1.98 0 3 0 C1.57880211 4.5219933 -0.66211257 6.70401074 -4 10 C-6.08188615 12.31971577 -8.10090835 14.69232645 -10.125 17.0625 C-14.25461891 21.86902855 -18.43478246 26.60941044 -22.75 31.25 C-26.9191701 35.75655959 -30.81804731 40.41195423 -34.66796875 45.19140625 C-40.11129657 51.74710592 -45.93355375 58.01839915 -52 64 C-52 62.68 -52 61.36 -52 60 C-51.34 60 -50.68 60 -50 60 C-49.67 59.01 -49.34 58.02 -49 57 C-48.34 57 -47.68 57 -47 57 C-47 56.34 -47 55.68 -47 55 C-46.195625 54.21625 -45.39125 53.4325 -44.5625 52.625 C-41.59617635 49.76493506 -41.59617635 49.76493506 -41 46 C-41.96885372 44.31503702 -42.96986723 42.64821244 -44 41 C-44 39.68 -44 38.36 -44 37 C-71.50064784 35.29801632 -71.50064784 35.29801632 -98.87109375 37.5625 C-101.95893438 37.99425799 -104.88681207 38.07512972 -108 38 C-108 38.66 -108 39.32 -108 40 C-113.82254243 41.96818336 -118.83381819 43.40214229 -125 43 C-118.36630155 36.36630155 -105.87445749 35.60887971 -97 34 C-96.23429687 33.82855469 -95.46859375 33.65710937 -94.6796875 33.48046875 C-86.59324295 32.03056688 -78.5084774 31.84271119 -70.3125 31.875 C-69.31927734 31.87113281 -68.32605469 31.86726563 -67.30273438 31.86328125 C-62.09829552 31.87019745 -57.14415706 32.11420765 -52 33 C-47.54660791 33.73341092 -44.41975938 33.88845191 -40.484375 31.42578125 C-37.91552149 29.35730258 -35.45649537 27.2001997 -33 25 C-31.51467054 23.81471205 -30.01594676 22.64586934 -28.5 21.5 C-27.55640625 20.77296875 -27.55640625 20.77296875 -26.59375 20.03125 C-25 19 -25 19 -23 19 C-23 18.34 -23 17.68 -23 17 C-21.35 16.34 -19.7 15.68 -18 15 C-18 14.34 -18 13.68 -18 13 C-16.45532227 11.68725586 -16.45532227 11.68725586 -14.31640625 10.21484375 C-13.55392578 9.68439453 -12.79144531 9.15394531 -12.00585938 8.60742188 C-11.19955078 8.05634766 -10.39324219 7.50527344 -9.5625 6.9375 C-7.98001359 5.84310578 -6.39795928 4.7480864 -4.81640625 3.65234375 C-4.10943604 3.16757568 -3.40246582 2.68280762 -2.67407227 2.18334961 C-1.04913275 1.10555219 -1.04913275 1.10555219 0 0 Z M-42 41 C-42 41.66 -42 42.32 -42 43 C-41.01 42.67 -40.02 42.34 -39 42 C-39.99 41.67 -40.98 41.34 -42 41 Z " fill="#084E93" transform="translate(238,3)"/>
<path d="M0 0 C0.99 0 1.98 0 3 0 C3.495 1.485 3.495 1.485 4 3 C4.66 3 5.32 3 6 3 C6 3.66 6 4.32 6 5 C6.99 4.67 7.98 4.34 9 4 C9 4.99 9 5.98 9 7 C11.64 7.33 14.28 7.66 17 8 C17 8.66 17 9.32 17 10 C18.32 10.66 19.64 11.32 21 12 C20.33613281 11.84402344 19.67226562 11.68804687 18.98828125 11.52734375 C18.10527344 11.33269531 17.22226563 11.13804687 16.3125 10.9375 C15.44238281 10.74027344 14.57226562 10.54304688 13.67578125 10.33984375 C7.46703825 9.55128807 2.85795596 12.44630257 -2.44140625 15.2890625 C-4.09293474 16.1565627 -5.74463258 17.02374058 -7.39648438 17.890625 C-9.98838239 19.26009691 -12.57814167 20.63334105 -15.16479492 22.01269531 C-17.66826462 23.34452505 -20.17916825 24.66136655 -22.69140625 25.9765625 C-23.85090538 26.60300156 -23.85090538 26.60300156 -25.03382874 27.24209595 C-26.1203196 27.80795914 -26.1203196 27.80795914 -27.22875977 28.38525391 C-27.86209732 28.72199127 -28.49543488 29.05872864 -29.14796448 29.40567017 C-31.44509831 30.14283484 -32.74927035 29.76660095 -35 29 C-34.278125 28.443125 -33.55625 27.88625 -32.8125 27.3125 C-29.35846608 24.47251656 -26.29446323 21.34781421 -23.19921875 18.125 C-22.57660156 17.485625 -21.95398438 16.84625 -21.3125 16.1875 C-20.73113281 15.58292969 -20.14976563 14.97835938 -19.55078125 14.35546875 C-18 13 -18 13 -16 13 C-15.67 12.01 -15.34 11.02 -15 10 C-13.22265625 8.17578125 -13.22265625 8.17578125 -11.0625 6.3125 C-10.35222656 5.68988281 -9.64195313 5.06726563 -8.91015625 4.42578125 C-7 3 -7 3 -5 3 C-4.67 4.98 -4.34 6.96 -4 9 C-3.67 8.01 -3.34 7.02 -3 6 C-2.484375 5.505 -1.96875 5.01 -1.4375 4.5 C0.34595268 2.98527194 0.34595268 2.98527194 0 0 Z " fill="#213B64" transform="translate(118,301)"/>
<path d="M0 0 C0 0.99 0 1.98 0 3 C-0.33 3.33 -0.66 3.66 -1 4 C-0.67 4.99 -0.34 5.98 0 7 C-0.99 7 -1.98 7 -3 7 C-3.66 8.65 -4.32 10.3 -5 12 C-5.99 12 -6.98 12 -8 12 C-8.33 13.32 -8.66 14.64 -9 16 C-9.598125 16.061875 -10.19625 16.12375 -10.8125 16.1875 C-13.24455676 16.8292145 -13.24455676 16.8292145 -14.4375 19.4375 C-16.34033976 22.55815721 -17.54164049 23.01189728 -21 24 C-22.65919896 24.36871088 -24.3247643 24.71281674 -26 25 C-25.57699601 20.06495347 -23.51524388 18.3325089 -20 15 C-19.48928955 14.51217041 -18.9785791 14.02434082 -18.45239258 13.52172852 C-16.81168782 11.96170191 -15.15751417 10.41714196 -13.5 8.875 C-12.66662109 8.08802734 -12.66662109 8.08802734 -11.81640625 7.28515625 C-3.97794699 0 -3.97794699 0 0 0 Z " fill="#122B4E" transform="translate(229,199)"/>
<path d="M0 0 C-1.33547866 6.82577981 -4.90871181 11.48062064 -9 17 C-9.66 17.99 -10.32 18.98 -11 20 C-11.66 20 -12.32 20 -13 20 C-13.226875 20.556875 -13.45375 21.11375 -13.6875 21.6875 C-16.59438947 26.80916241 -21.73546311 30.66263163 -26.0625 34.625 C-26.57876953 35.10195313 -27.09503906 35.57890625 -27.62695312 36.0703125 C-35.18223741 43 -35.18223741 43 -38 43 C-38.33 41.35 -38.66 39.7 -39 38 C-37.02 38 -35.04 38 -33 38 C-33 37.34 -33 36.68 -33 36 C-32.01 36 -31.02 36 -30 36 C-30 35.34 -30 34.68 -30 34 C-29.01 34 -28.02 34 -27 34 C-27 33.34 -27 32.68 -27 32 C-27.66 31.67 -28.32 31.34 -29 31 C-28.01 31 -27.02 31 -26 31 C-24.64172029 29.35360035 -23.30745749 27.68704193 -22 26 C-21.34 26 -20.68 26 -20 26 C-19.67 25.01 -19.34 24.02 -19 23 C-18.34 22.34 -17.68 21.68 -17 21 C-17.66 21 -18.32 21 -19 21 C-19 20.34 -19 19.68 -19 19 C-16.76948111 17.12996901 -14.42301608 15.46143418 -12.06640625 13.75390625 C-9.74102935 12.08749655 -9.74102935 12.08749655 -9 9 C-9.66 8.67 -10.32 8.34 -11 8 C-8 6 -8 6 -5 6 C-5 4.35 -5 2.7 -5 1 C-3 0 -3 0 0 0 Z " fill="#57677A" transform="translate(285,246)"/>
<path d="M0 0 C0.103125 0.639375 0.20625 1.27875 0.3125 1.9375 C0.6528125 2.9584375 0.6528125 2.9584375 1 4 C1.99 4.33 2.98 4.66 4 5 C2.35 5.33 0.7 5.66 -1 6 C-1 6.66 -1 7.32 -1 8 C-1.99 8 -2.98 8 -4 8 C-4.33 8.66 -4.66 9.32 -5 10 C-5.99 10 -6.98 10 -8 10 C-8.33 10.66 -8.66 11.32 -9 12 C-10.32 12 -11.64 12 -13 12 C-13 13.32 -13 14.64 -13 16 C-14.90881434 17.03544174 -16.82739204 18.05290085 -18.75 19.0625 C-19.81734375 19.63097656 -20.8846875 20.19945312 -21.984375 20.78515625 C-25.02593537 22.01044806 -26.04893565 22.25348607 -29 21 C-28.278125 20.443125 -27.55625 19.88625 -26.8125 19.3125 C-23.35846608 16.47251656 -20.29446323 13.34781421 -17.19921875 10.125 C-16.57660156 9.485625 -15.95398438 8.84625 -15.3125 8.1875 C-14.73113281 7.58292969 -14.14976563 6.97835938 -13.55078125 6.35546875 C-12 5 -12 5 -10 5 C-9.67 4.01 -9.34 3.02 -9 2 C-6.93359375 1.26953125 -6.93359375 1.26953125 -4.4375 0.8125 C-3.61121094 0.65394531 -2.78492187 0.49539063 -1.93359375 0.33203125 C-0.97646484 0.16767578 -0.97646484 0.16767578 0 0 Z " fill="#102848" transform="translate(112,309)"/>
<path d="M0 0 C1.32 0 2.64 0 4 0 C2.57568513 3.06775511 1.09219926 5.21040099 -1 8 C35.63 8 72.26 8 110 8 C107.75 13.625 107.75 13.625 104.375 16.3125 C103.42753906 17.08013672 103.42753906 17.08013672 102.4609375 17.86328125 C101.97882813 18.23839844 101.49671875 18.61351562 101 19 C101.71101125 15.67055308 102.55001304 14.34790417 105 12 C105.33 11.01 105.66 10.02 106 9 C70.03 9.33 34.06 9.66 -3 10 C-3 7.69 -3 5.38 -3 3 C-2.01 2.67 -1.02 2.34 0 2 C0 1.34 0 0.68 0 0 Z " fill="#1E4B7C" transform="translate(81,182)"/>
<path d="M0 0 C0.99394775 -0.00064453 1.98789551 -0.00128906 3.01196289 -0.00195312 C11.4273317 0.05769669 19.57044588 0.83755797 27.875 2.1875 C27.875 2.5175 27.875 2.8475 27.875 3.1875 C13.025 2.8575 -1.825 2.5275 -17.125 2.1875 C-17.125 2.8475 -17.125 3.5075 -17.125 4.1875 C-19.33251848 4.52618777 -21.54105911 4.85821689 -23.75 5.1875 C-24.97976562 5.373125 -26.20953125 5.55875 -27.4765625 5.75 C-30.7416027 6.14152516 -33.84212451 6.26830924 -37.125 6.1875 C-37.125 6.8475 -37.125 7.5075 -37.125 8.1875 C-42.94754243 10.15568336 -47.95881819 11.58964229 -54.125 11.1875 C-47.49130155 4.55380155 -34.99945749 3.79637971 -26.125 2.1875 C-24.97644531 1.93033203 -24.97644531 1.93033203 -23.8046875 1.66796875 C-15.9190984 0.25408032 -7.99472516 -0.00542705 0 0 Z " fill="#7B9BBD" transform="translate(167.125,34.8125)"/>
<path d="M0 0 C0.99 0 1.98 0 3 0 C1.582567 4.51001409 -0.6753707 6.71358483 -4 10 C-5.62781995 11.91767024 -7.23252733 13.85522043 -8.8125 15.8125 C-9.60269531 16.78832031 -10.39289063 17.76414062 -11.20703125 18.76953125 C-11.79871094 19.50558594 -12.39039063 20.24164062 -13 21 C-13.66 19.68 -14.32 18.36 -15 17 C-18.35387312 17 -20.43796318 19.696087 -22.9296875 21.78515625 C-25 23 -25 23 -27.2578125 22.68359375 C-27.83273438 22.45800781 -28.40765625 22.23242188 -29 22 C-25.25 19 -25.25 19 -23 19 C-23 18.34 -23 17.68 -23 17 C-21.35 16.34 -19.7 15.68 -18 15 C-18 14.34 -18 13.68 -18 13 C-16.45532227 11.68725586 -16.45532227 11.68725586 -14.31640625 10.21484375 C-13.55392578 9.68439453 -12.79144531 9.15394531 -12.00585938 8.60742188 C-10.79639648 7.78081055 -10.79639648 7.78081055 -9.5625 6.9375 C-7.98001359 5.84310578 -6.39795928 4.7480864 -4.81640625 3.65234375 C-4.10943604 3.16757568 -3.40246582 2.68280762 -2.67407227 2.18334961 C-1.04913275 1.10555219 -1.04913275 1.10555219 0 0 Z " fill="#2F6190" transform="translate(238,3)"/>
<path d="M0 0 C0.66 0 1.32 0 2 0 C1.67 0.99 1.34 1.98 1 3 C-8.47886293 3.20388169 -17.95800976 3.39051826 -27.4375 3.5625 C-28.1387928 3.57523327 -28.8400856 3.58796654 -29.5626297 3.60108566 C-53.73227387 4.03420804 -77.84061135 3.93573603 -102 3 C-102 2.67 -102 2.34 -102 2 C-95.29192559 1.82190115 -88.58361085 1.65659775 -81.875 1.5 C-80.84888611 1.47599121 -79.82277222 1.45198242 -78.76556396 1.42724609 C-58.47879637 0.96653044 -38.20073556 0.93016626 -17.90966797 1.03710938 C-16.78566589 1.04133911 -15.66166382 1.04556885 -14.50360107 1.04992676 C-12.38431674 1.05813625 -10.26504336 1.070561 -8.14581299 1.08776855 C-6.74936554 1.09266296 -6.74936554 1.09266296 -5.32470703 1.09765625 C-4.50938507 1.10289307 -3.69406311 1.10812988 -2.85403442 1.11352539 C-0.98364764 1.20450385 -0.98364764 1.20450385 0 0 Z " fill="#091F3F" transform="translate(262,157)"/>
<path d="M0 0 C2.33944736 0.28730055 4.6739143 0.61936779 7 1 C3.95845686 4.56083099 0.90790555 8.11089224 -2.1875 11.625 C-4.79893626 14.59881618 -7.36159582 17.61006275 -9.90722656 20.64038086 C-16.66177753 28.67754549 -23.52002722 36.62225919 -31 44 C-31 42.68 -31 41.36 -31 40 C-30.34 40 -29.68 40 -29 40 C-28.67 39.01 -28.34 38.02 -28 37 C-27.34 37 -26.68 37 -26 37 C-26 36.34 -26 35.68 -26 35 C-25.21625 34.236875 -24.4325 33.47375 -23.625 32.6875 C-21.09947479 30.10184324 -20.06592614 28.39158318 -19 25 C-18.01 25 -17.02 25 -16 25 C-16 24.01 -16 23.02 -16 22 C-15.34 22 -14.68 22 -14 22 C-14 21.34 -14 20.68 -14 20 C-13.21625 19.38125 -12.4325 18.7625 -11.625 18.125 C-9.06434206 16.05208643 -8.3771147 14.85259474 -7 12 C-6.01 11.67 -5.02 11.34 -4 11 C-1.40300585 7.53734114 -0.76225702 5.2793737 -1 1 C-0.67 0.67 -0.34 0.34 0 0 Z " fill="#3E6795" transform="translate(217,23)"/>
<path d="M0 0 C0.66666667 2.66666667 1.33333333 5.33333333 2 8 C0.01432292 8.1953125 -1.97135417 8.390625 -3.95703125 8.5859375 C-6.29988142 8.92665391 -6.29988142 8.92665391 -9 11 C-9.33 11.99 -9.66 12.98 -10 14 C-16.15834314 14.10151115 -22.2360712 14.02640573 -28.375 13.5 C-38.23370173 12.71174795 -48.11709455 12.91274262 -58 13 C-58 12.34 -58 11.68 -58 11 C-53.35929747 10.97500657 -48.71863539 10.95700323 -44.07788086 10.94506836 C-42.50398067 10.94008512 -40.930085 10.9332961 -39.35620117 10.92456055 C-30.51396518 10.87676468 -21.7949897 10.9326644 -13 12 C-12.67 11.01 -12.34 10.02 -12 9 C-10.00808238 7.34530803 -8.03653505 5.81660854 -5.9375 4.3125 C-5.36966797 3.89677734 -4.80183594 3.48105469 -4.21679688 3.05273438 C-2.81596827 2.02859918 -1.40859652 1.01342465 0 0 Z " fill="#154D88" transform="translate(208,26)"/>
<path d="M0 0 C0.33 1.32 0.66 2.64 1 4 C0.01 4.495 0.01 4.495 -1 5 C-0.938125 5.94875 -0.87625 6.8975 -0.8125 7.875 C-0.9053125 9.421875 -0.9053125 9.421875 -1 11 C-1.99 11.66 -2.98 12.32 -4 13 C-5.19232613 15.05003955 -5.19232613 15.05003955 -6 17 C-7.32 16.67 -8.64 16.34 -10 16 C-10.33 17.98 -10.66 19.96 -11 22 C-11.66 22 -12.32 22 -13 22 C-13 22.66 -13 23.32 -13 24 C-13.639375 24.20625 -14.27875 24.4125 -14.9375 24.625 C-17.34925077 25.89538209 -17.34925077 25.89538209 -17.75 29.125 C-17.8325 30.07375 -17.915 31.0225 -18 32 C-19.32 32 -20.64 32 -22 32 C-22 27.83444364 -19.74522819 25.73702617 -17.25 22.625 C-16.8065625 22.06039062 -16.363125 21.49578125 -15.90625 20.9140625 C-13.90702642 18.37387254 -11.88317124 15.85723273 -9.8359375 13.35546875 C-7.65991951 10.56368397 -5.9219501 7.6298567 -4.1484375 4.57421875 C-3.76945312 4.05472656 -3.39046875 3.53523438 -3 3 C-2.34 3 -1.68 3 -1 3 C-0.67 2.01 -0.34 1.02 0 0 Z " fill="#102947" transform="translate(173,123)"/>
<path d="M0 0 C1.32 0 2.64 0 4 0 C4 0.99 4 1.98 4 3 C6.77627845 5.67345333 9.2241456 6.47557578 13 7 C12.67 8.32 12.34 9.64 12 11 C13.98 11 15.96 11 18 11 C18.59732819 13.76264289 19 16.16032769 19 19 C17.68 19 16.36 19 15 19 C15 18.34 15 17.68 15 17 C14.34 17 13.68 17 13 17 C13 16.34 13 15.68 13 15 C12.01 14.67 11.02 14.34 10 14 C8.17892091 11.86632624 6.48317719 9.74504695 4.8125 7.5 C4.11737305 6.58927734 4.11737305 6.58927734 3.40820312 5.66015625 C0 1.15269468 0 1.15269468 0 0 Z " fill="#0F4F8C" transform="translate(50,255)"/>
<path d="M0 0 C-5.63691744 3.38215047 -12.23073168 3.12724633 -18.62109375 3.1328125 C-19.32468521 3.13376923 -20.02827667 3.13472595 -20.75318909 3.13571167 C-22.23137502 3.13638775 -23.70956402 3.13457368 -25.18774414 3.13037109 C-27.42796626 3.12502276 -29.6679872 3.13033147 -31.90820312 3.13671875 C-33.3541671 3.13605771 -34.80013096 3.13477601 -36.24609375 3.1328125 C-37.54216553 3.13168457 -38.8382373 3.13055664 -40.17358398 3.12939453 C-44.18786644 2.99364709 -48.02501915 2.55598385 -52 2 C-52 1.67 -52 1.34 -52 1 C-42.43 1 -32.86 1 -23 1 C-23 0.67 -23 0.34 -23 0 C-15.22450441 -1.59497345 -7.7979791 -1.13425151 0 0 Z " fill="#516176" transform="translate(193,312)"/>
<path d="M0 0 C1.98 0 3.96 0 6 0 C1.69830749 6.14527502 -3.1818916 11.5514907 -8.32885742 16.98681641 C-10.77148038 19.57167537 -13.08781648 22.11301468 -15.2734375 24.92578125 C-15.84320313 25.61027344 -16.41296875 26.29476562 -17 27 C-17.66 27 -18.32 27 -19 27 C-19.12375 27.639375 -19.2475 28.27875 -19.375 28.9375 C-19.58125 29.618125 -19.7875 30.29875 -20 31 C-20.66 31.33 -21.32 31.66 -22 32 C-21.51058824 26.49411765 -21.51058824 26.49411765 -19.0625 24.125 C-17 23 -17 23 -15 23 C-14.773125 22.278125 -14.54625 21.55625 -14.3125 20.8125 C-12.74790257 17.45979122 -10.63463827 15.56877231 -8 13 C-6.70480005 10.83379456 -6.70480005 10.83379456 -6 9 C-5.34 9 -4.68 9 -4 9 C-3.67 8.01 -3.34 7.02 -3 6 C-2.34 6 -1.68 6 -1 6 C0.10836423 4.11683841 0.10836423 4.11683841 1 2 C0.67 1.34 0.34 0.68 0 0 Z " fill="#336090" transform="translate(180,67)"/>
<path d="M0 0 C1.39434755 3.87318764 0.86103754 7.02598059 0 11 C-0.97772633 12.82508914 -1.9563871 14.64970473 -2.9453125 16.46875 C-5.24431839 21.98636413 -5.99075732 28.12804258 -7 34 C-7.66 34 -8.32 34 -9 34 C-9.33 35.32 -9.66 36.64 -10 38 C-9.96796048 30.1182788 -8.38773883 23.13087107 -6.125 15.625 C-5.73997314 14.34157715 -5.73997314 14.34157715 -5.34716797 13.03222656 C-3.92038154 8.45323756 -2.30166007 4.23119546 0 0 Z " fill="#3A6897" transform="translate(37,119)"/>
<path d="M0 0 C0.33 0.66 0.66 1.32 1 2 C0.67 2.66 0.34 3.32 0 4 C-0.66 4 -1.32 4 -2 4 C-2.07476562 4.57621094 -2.14953125 5.15242188 -2.2265625 5.74609375 C-3.2687055 8.78304582 -4.93089238 10.00992418 -7.375 12.0625 C-10.62664325 14.79502772 -10.62664325 14.79502772 -13.65234375 17.765625 C-14.09707031 18.17296875 -14.54179688 18.5803125 -15 19 C-17.1875 18.6875 -17.1875 18.6875 -19 18 C-17.71937515 16.2925002 -16.38232443 14.62626404 -15 13 C-14.34 13 -13.68 13 -13 13 C-12.78601563 12.43796875 -12.57203125 11.8759375 -12.3515625 11.296875 C-10.5318038 8.2043371 -8.18147612 6.46907414 -5.375 4.25 C-4.37210938 3.45078125 -3.36921875 2.6515625 -2.3359375 1.828125 C-1.56507812 1.22484375 -0.79421875 0.6215625 0 0 Z " fill="#124F8E" transform="translate(79,65)"/>
<path d="M0 0 C-1.28173488 6.55108938 -4.37131337 12.15796709 -9 17 C-11.73046875 17.7890625 -11.73046875 17.7890625 -14 18 C-13.52797514 13.75177626 -11.03344482 11.80010291 -8 9 C-8.99 8.67 -9.98 8.34 -11 8 C-8 6 -8 6 -5 6 C-5 4.35 -5 2.7 -5 1 C-3 0 -3 0 0 0 Z " fill="#2D435D" transform="translate(285,246)"/>
<path d="M0 0 C0.33 0.66 0.66 1.32 1 2 C1.99 2 2.98 2 4 2 C4.33 4.97 4.66 7.94 5 11 C6.32 10.67 7.64 10.34 9 10 C9 14.29 9 18.58 9 23 C8.34 23.33 7.68 23.66 7 24 C6.00947453 21.50399697 5.03255943 19.00395203 4.0625 16.5 C3.78470703 15.80390625 3.50691406 15.1078125 3.22070312 14.390625 C1.36375386 9.55808233 0.45899366 5.15932112 0 0 Z " fill="#17518D" transform="translate(29,206)"/>
<path d="M0 0 C0 0.33 0 0.66 0 1 C-1.87387477 1.3396019 -3.74916697 1.67138691 -5.625 2 C-6.66914063 2.185625 -7.71328125 2.37125 -8.7890625 2.5625 C-11.90574865 2.98715797 -14.85930812 3.07545206 -18 3 C-18 3.66 -18 4.32 -18 5 C-23.82254243 6.96818336 -28.83381819 8.40214229 -35 8 C-27.20995218 0.20995218 -10.34850248 -1.92938182 0 0 Z " fill="#577EA8" transform="translate(148,38)"/>
<path d="M0 0 C1 3 1 3 1 5 C17.83 5.33 34.66 5.66 52 6 C52 6.33 52 6.66 52 7 C33.52 7 15.04 7 -4 7 C-3.67 5.68 -3.34 4.36 -3 3 C-2.34 3 -1.68 3 -1 3 C-0.67 2.01 -0.34 1.02 0 0 Z " fill="#A6B7C8" transform="translate(149,155)"/>
<path d="M0 0 C2.94956528 1.36944102 5.52468811 2.87830409 8 5 C8 5.66 8 6.32 8 7 C8.5775 7.2475 9.155 7.495 9.75 7.75 C12.32939979 9.18299988 14.06121592 10.78424676 16 13 C16 13.66 16 14.32 16 15 C16.61875 15.2475 17.2375 15.495 17.875 15.75 C20.35068687 17.20628639 20.95125002 18.37812506 22 21 C21.278125 20.34 20.55625 19.68 19.8125 19 C16.78402067 16.8464147 15.60296594 16.58823246 12 17 C12 15.35 12 13.7 12 12 C11.195625 11.7525 10.39125 11.505 9.5625 11.25 C7 10 7 10 6.1875 7.875 C6.125625 7.25625 6.06375 6.6375 6 6 C4.68 6.33 3.36 6.66 2 7 C2.33 6.01 2.66 5.02 3 4 C2.34 4 1.68 4 1 4 C0.67 2.68 0.34 1.36 0 0 Z " fill="#607387" transform="translate(249,63)"/>
<path d="M0 0 C1.32 0.33 2.64 0.66 4 1 C0.83618873 4.88696813 -2.4050477 8.49722597 -6 12 C-6.7425 12.763125 -7.485 13.52625 -8.25 14.3125 C-10 16 -10 16 -11 16 C-10.01923077 7.5 -10.01923077 7.5 -8 5 C-6 4.66666667 -4 4.33333333 -2 4 C-0.56362302 2.04836882 -0.56362302 2.04836882 0 0 Z " fill="#0E4E8E" transform="translate(124,262)"/>
<path d="M0 0 C0.99 0.33 1.98 0.66 3 1 C2.57589844 1.4125 2.15179688 1.825 1.71484375 2.25 C-2.75422243 6.65031132 -6.92414665 11.23553216 -11 16 C-11.87785156 17.0209375 -11.87785156 17.0209375 -12.7734375 18.0625 C-14.18500084 19.70601037 -15.59290162 21.35266531 -17 23 C-17.33 22.34 -17.66 21.68 -18 21 C-17.0625 18.875 -17.0625 18.875 -16 17 C-15.34 17 -14.68 17 -14 17 C-14 16.01 -14 15.02 -14 14 C-13.01 13.67 -12.02 13.34 -11 13 C-10.67 12.01 -10.34 11.02 -10 10 C-9.34 10 -8.68 10 -8 10 C-7.90460938 9.40832031 -7.80921875 8.81664062 -7.7109375 8.20703125 C-6.84712351 5.52541091 -5.75673257 4.49992241 -3.625 2.6875 C-3.01914063 2.15511719 -2.41328125 1.62273437 -1.7890625 1.07421875 C-1.19867188 0.71972656 -0.60828125 0.36523438 0 0 Z " fill="#2B5B8C" transform="translate(153,231)"/>
<path d="M0 0 C3.10551666 0 4.35261084 0.5393715 7 2 C-9.25360231 14 -9.25360231 14 -15 14 C-15 12.68 -15 11.36 -15 10 C-11.33963194 8.38513174 -7.94320442 7.61338735 -4 7 C-3.34 6.67 -2.68 6.34 -2 6 C-2 5.01 -2 4.02 -2 3 C-1.34 3 -0.68 3 0 3 C0 2.01 0 1.02 0 0 Z " fill="#5B6F87" transform="translate(240,288)"/>
<path d="M0 0 C1 3 1 3 1 5 C0.01 5 -0.98 5 -2 5 C-1.67 6.98 -1.34 8.96 -1 11 C-1.78375 11.2475 -2.5675 11.495 -3.375 11.75 C-6.32317108 13.15389099 -6.9024777 14.00675737 -8 17 C-8.66 17 -9.32 17 -10 17 C-10.33 17.66 -10.66 18.32 -11 19 C-11.66 18.67 -12.32 18.34 -13 18 C-11.68 15.69 -10.36 13.38 -9 11 C-8.34 11 -7.68 11 -7 11 C-6.71125 10.4225 -6.4225 9.845 -6.125 9.25 C-5.08333333 7.16666667 -4.04166667 5.08333333 -3 3 C-2.34 3 -1.68 3 -1 3 C-0.67 2.01 -0.34 1.02 0 0 Z " fill="#203A56" transform="translate(197,91)"/>
<path d="M0 0 C0.99 0.33 1.98 0.66 3 1 C2.24074219 1.81984375 1.48148438 2.6396875 0.69921875 3.484375 C-0.30478454 4.57282716 -1.3086854 5.66137382 -2.3125 6.75 C-2.81201172 7.28882812 -3.31152344 7.82765625 -3.82617188 8.3828125 C-5.92386033 10.66109664 -7.91195415 12.87836555 -9.73046875 15.390625 C-10.14941406 15.92171875 -10.56835938 16.4528125 -11 17 C-11.66 17 -12.32 17 -13 17 C-13.33 17.99 -13.66 18.98 -14 20 C-14.33 19.34 -14.66 18.68 -15 18 C-13.6875 15.375 -13.6875 15.375 -12 13 C-11.34 13 -10.68 13 -10 13 C-9.7525 12.2575 -9.505 11.515 -9.25 10.75 C-7.89534961 7.76976913 -6.4898459 6.10080748 -4 4 C-3.34 4 -2.68 4 -2 4 C-1.34 2.68 -0.68 1.36 0 0 Z " fill="#325E8E" transform="translate(142,114)"/>
<path d="M0 0 C0.66 0.33 1.32 0.66 2 1 C2 1.66 2 2.32 2 3 C1.34 3 0.68 3 0 3 C-0.23460938 3.55171875 -0.46921875 4.1034375 -0.7109375 4.671875 C-2.32848158 7.59325764 -4.36450195 9.79574497 -6.625 12.25 C-7.44226563 13.14203125 -8.25953125 14.0340625 -9.1015625 14.953125 C-9.72804688 15.62859375 -10.35453125 16.3040625 -11 17 C-11.33 16.01 -11.66 15.02 -12 14 C-11.34 14 -10.68 14 -10 14 C-9.7834375 12.576875 -9.7834375 12.576875 -9.5625 11.125 C-9 8 -9 8 -8 6 C-6.68 6 -5.36 6 -4 6 C-4 5.34 -4 4.68 -4 4 C-3.34 4 -2.68 4 -2 4 C-2 3.01 -2 2.02 -2 1 C-1.34 0.67 -0.68 0.34 0 0 Z " fill="#255C90" transform="translate(125,133)"/>
<path d="M0 0 C-1.03094867 2.57737166 -1.5108626 3.76284247 -4.0625 5 C-4.701875 5.33 -5.34125 5.66 -6 6 C-6.35412344 7.32796291 -6.68521554 8.66216607 -7 10 C-8.9375 12.25 -8.9375 12.25 -11 14 C-11.66 14 -12.32 14 -13 14 C-13.28875 14.804375 -13.5775 15.60875 -13.875 16.4375 C-15 19 -15 19 -17 20 C-16.49942848 15.61999924 -15.06806466 13.15830185 -12 10 C-11.01 10 -10.02 10 -9 10 C-8.95875 9.278125 -8.9175 8.55625 -8.875 7.8125 C-7.66642745 3.92780252 -4.41975659 0 0 0 Z " fill="#2E5D8C" transform="translate(111,152)"/>
<path d="M0 0 C0.66 0.33 1.32 0.66 2 1 C1.54109375 1.51949219 1.0821875 2.03898438 0.609375 2.57421875 C-2.11180201 5.66698506 -4.79645548 8.73594225 -7.3125 12 C-7.869375 12.66 -8.42625 13.32 -9 14 C-9.66 14 -10.32 14 -11 14 C-11.268125 14.598125 -11.53625 15.19625 -11.8125 15.8125 C-12.98493467 17.97224808 -14.19369282 19.35790256 -16 21 C-15.25 16.25 -15.25 16.25 -13 14 C-13 13.34 -13 12.68 -13 12 C-12.34 12 -11.68 12 -11 12 C-10.34 11.01 -9.68 10.02 -9 9 C-8.34 9 -7.68 9 -7 9 C-6.67 7.68 -6.34 6.36 -6 5 C-5.01 5 -4.02 5 -3 5 C-2.67 4.01 -2.34 3.02 -2 2 C-1.34 1.34 -0.68 0.68 0 0 Z " fill="#3A6497" transform="translate(173,209)"/>
<path d="M0 0 C4.40189509 1.3450235 6.51048598 3.12742263 9 7 C9 8.32 9 9.64 9 11 C7.35 11.33 5.7 11.66 4 12 C4 11.34 4 10.68 4 10 C3.01 9.67 2.02 9.34 1 9 C0.67 8.01 0.34 7.02 0 6 C0.99 6 1.98 6 3 6 C3.23084394 3.8794682 3.23084394 3.8794682 1.5 2.4375 C1.005 1.963125 0.51 1.48875 0 1 C0 0.67 0 0.34 0 0 Z " fill="#233F61" transform="translate(241,58)"/>
<path d="M0 0 C0.33 0.99 0.66 1.98 1 3 C2.65 3 4.3 3 6 3 C3.49987316 5.08343904 0.85804682 6.71433305 -2 8.25 C-2.99 8.78367187 -2.99 8.78367187 -4 9.328125 C-6.39841683 10.13384316 -7.64518377 9.81998065 -10 9 C-9.278125 8.443125 -8.55625 7.88625 -7.8125 7.3125 C-5.02542701 5.02090666 -2.51358472 2.58540143 0 0 Z " fill="#454F5B" transform="translate(93,321)"/>
<path d="M0 0 C0.33 0 0.66 0 1 0 C1.3690205 13.6332574 1.3690205 13.6332574 -1 20 C-1.66 20 -2.32 20 -3 20 C-2.79375 18.9275 -2.5875 17.855 -2.375 16.75 C-2.0123809 13.12380904 -2.01637931 11.91708924 -4 9 C-3.01 8.67 -2.02 8.34 -1 8 C-1.020625 6.865625 -1.04125 5.73125 -1.0625 4.5625 C-1 1 -1 1 0 0 Z " fill="#0A2648" transform="translate(304,177)"/>
<path d="M0 0 C0 2.64054495 -0.35107784 4.48542662 -1 7 C-1 7.66 -1 8.32 -1 9 C-1.99 9 -2.98 9 -4 9 C-4 9.99 -4 10.98 -4 12 C-4.99 11.67 -5.98 11.34 -7 11 C-7.66 12.32 -8.32 13.64 -9 15 C-9 14.34 -9 13.68 -9 13 C-10.32 13.33 -11.64 13.66 -13 14 C-13 12 -13 12 -11.3203125 10.2734375 C-10.59585938 9.64695313 -9.87140625 9.02046875 -9.125 8.375 C-8.04605469 7.42753906 -8.04605469 7.42753906 -6.9453125 6.4609375 C-5 5 -5 5 -3 5 C-2.690625 4.360625 -2.38125 3.72125 -2.0625 3.0625 C-1 1 -1 1 0 0 Z " fill="#293D5C" transform="translate(252,174)"/>
<path d="M0 0 C2.33944736 0.28730055 4.6739143 0.61936779 7 1 C5.57701102 2.66015381 4.15344741 4.31975301 2.7265625 5.9765625 C1.58425215 7.31528821 0.45376463 8.6642017 -0.6640625 10.0234375 C-1.18742188 10.65507813 -1.71078125 11.28671875 -2.25 11.9375 C-2.72953125 12.52402344 -3.2090625 13.11054687 -3.703125 13.71484375 C-5 15 -5 15 -7 15 C-7 14.01 -7 13.02 -7 12 C-6.01 11.67 -5.02 11.34 -4 11 C-1.40300585 7.53734114 -0.76225702 5.2793737 -1 1 C-0.67 0.67 -0.34 0.34 0 0 Z " fill="#345F8E" transform="translate(217,23)"/>
<path d="M0 0 C0.33 0.66 0.66 1.32 1 2 C0.01 3.32 -0.98 4.64 -2 6 C-2.33 5.67 -2.66 5.34 -3 5 C-5.2013866 8.80427492 -5.2013866 8.80427492 -6 13 C-8.64 13.33 -11.28 13.66 -14 14 C-12.65396518 9.96189555 -10.34663277 8.52704924 -7 6 C-6.34 6 -5.68 6 -5 6 C-4.67 5.01 -4.34 4.02 -4 3 C-3.34 3 -2.68 3 -2 3 C-2 2.34 -2 1.68 -2 1 C-1.34 0.67 -0.68 0.34 0 0 Z " fill="#273D57" transform="translate(155,264)"/>
<path d="M0 0 C0.33 0 0.66 0 1 0 C1.125 5.75 1.125 5.75 0 8 C-0.66 8 -1.32 8 -2 8 C-2 8.66 -2 9.32 -2 10 C-2.639375 10.20625 -3.27875 10.4125 -3.9375 10.625 C-6.34925077 11.89538209 -6.34925077 11.89538209 -6.75 15.125 C-6.8325 16.07375 -6.915 17.0225 -7 18 C-8.32 18 -9.64 18 -11 18 C-11 13.76716463 -8.60647622 11.59230816 -6.0625 8.4375 C-2.72938699 4.41837483 -2.72938699 4.41837483 0 0 Z " fill="#374B63" transform="translate(162,137)"/>
<path d="M0 0 C1.18414294 3.55242882 0.69535532 4.69830562 -0.4375 8.1875 C-0.72496094 9.08855469 -1.01242188 9.98960938 -1.30859375 10.91796875 C-1.53675781 11.60503906 -1.76492187 12.29210937 -2 13 C-3.32 12.67 -4.64 12.34 -6 12 C-6.33 13.65 -6.66 15.3 -7 17 C-7.99 16.67 -8.98 16.34 -10 16 C-8.35 12.7 -6.7 9.4 -5 6 C-4.34 6 -3.68 6 -3 6 C-3 5.34 -3 4.68 -3 4 C-2.34 4 -1.68 4 -1 4 C-0.67 2.68 -0.34 1.36 0 0 Z " fill="#2F4561" transform="translate(218,62)"/>
<path d="M0 0 C1 4 1 4 2 8 C-3.94 8.495 -3.94 8.495 -10 9 C-7.12505529 5.01930733 -4.17882671 2.56428003 0 0 Z " fill="#45709C" transform="translate(208,26)"/>
<path d="M0 0 C0.33 0 0.66 0 1 0 C2.04518445 9.68662016 2.10371911 19.27345227 2 29 C1.67 29 1.34 29 1 29 C-1.30338938 19.12017284 -0.87648324 9.99664672 0 0 Z " fill="#63788D" transform="translate(304,156)"/>
<path d="M0 0 C-2.7881022 1.5066972 -5.58103958 3.00419804 -8.375 4.5 C-9.1690625 4.92925781 -9.963125 5.35851562 -10.78125 5.80078125 C-11.92207031 6.40986328 -11.92207031 6.40986328 -13.0859375 7.03125 C-13.7876709 7.40830078 -14.4894043 7.78535156 -15.21240234 8.17382812 C-17 9 -17 9 -19 9 C-19 8.01 -19 7.02 -19 6 C-17.68 6 -16.36 6 -15 6 C-14.67 5.01 -14.34 4.02 -14 3 C-13.01 2.67 -12.02 2.34 -11 2 C-10.34 1.67 -9.68 1.34 -9 1 C-8.34 1.33 -7.68 1.66 -7 2 C-7 1.34 -7 0.68 -7 0 C-3.98968256 -0.93423645 -3.13349732 -1.04449911 0 0 Z " fill="#55677A" transform="translate(118,315)"/>
<path d="M0 0 C1.32 0 2.64 0 4 0 C2.50163895 3.11198065 0.80066242 6.0534615 -1 9 C2.63 9 6.26 9 10 9 C10 9.33 10 9.66 10 10 C5.71 10 1.42 10 -3 10 C-3 7.69 -3 5.38 -3 3 C-2.01 2.67 -1.02 2.34 0 2 C0 1.34 0 0.68 0 0 Z " fill="#225892" transform="translate(81,182)"/>
<path d="M0 0 C5.94 0 11.88 0 18 0 C15.75 5.625 15.75 5.625 12.375 8.3125 C11.74335938 8.82425781 11.11171875 9.33601562 10.4609375 9.86328125 C9.97882813 10.23839844 9.49671875 10.61351562 9 11 C9.71101125 7.67055308 10.55001304 6.34790417 13 4 C13.33 3.01 13.66 2.02 14 1 C9.38 1 4.76 1 0 1 C0 0.67 0 0.34 0 0 Z " fill="#2A5582" transform="translate(173,190)"/>
<path d="M0 0 C0.33 1.32 0.66 2.64 1 4 C-0.32 4.33 -1.64 4.66 -3 5 C-3 7.64 -3 10.28 -3 13 C-5.31 13.66 -7.62 14.32 -10 15 C-7.88961503 9.02057593 -4.63770594 4.30644123 0 0 Z " fill="#316497" transform="translate(59,84)"/>
<path d="M0 0 C0.33 0 0.66 0 1 0 C0.85805236 2.06277107 0.71127784 4.12521031 0.5625 6.1875 C0.48128906 7.33605469 0.40007813 8.48460937 0.31640625 9.66796875 C0.04596188 12.51598171 -0.37521747 15.21210482 -1 18 C-1.66 18 -2.32 18 -3 18 C-3.33 19.32 -3.66 20.64 -4 22 C-3.61422945 14.25798419 -2.57611228 7.32328775 0 0 Z " fill="#537AA2" transform="translate(31,135)"/>
<path d="M0 0 C1.98 0 3.96 0 6 0 C2.62695042 4.67126797 -0.68100471 9.16089308 -5 13 C-5.66 13 -6.32 13 -7 13 C-6.67 11.68 -6.34 10.36 -6 9 C-5.34 9 -4.68 9 -4 9 C-3.67 8.01 -3.34 7.02 -3 6 C-2.34 6 -1.68 6 -1 6 C0.10836423 4.11683841 0.10836423 4.11683841 1 2 C0.67 1.34 0.34 0.68 0 0 Z " fill="#2E5C90" transform="translate(180,67)"/>
<path d="M0 0 C5.70709064 0.46588495 9.15939723 1.93757784 14 5 C13.401875 5.144375 12.80375 5.28875 12.1875 5.4375 C10.43849596 5.8872439 8.71322977 6.42892341 7 7 C4.8125 6.5625 4.8125 6.5625 3 6 C3 4.35 3 2.7 3 1 C2.34 1 1.68 1 1 1 C1 1.66 1 2.32 1 3 C0.34 2.67 -0.32 2.34 -1 2 C-0.67 1.34 -0.34 0.68 0 0 Z " fill="#3E5269" transform="translate(226,51)"/>
<path d="M0 0 C0.66 0.33 1.32 0.66 2 1 C0.56188795 4.54529226 -1.1314464 6.10778597 -4.3125 8.1875 C-5.07175781 8.69667969 -5.83101562 9.20585937 -6.61328125 9.73046875 C-9.10281797 11.05469041 -11.22328716 11.59209351 -14 12 C-12.71034824 10.62437146 -11.37310707 9.29233607 -10 8 C-9.34 8 -8.68 8 -8 8 C-8 7.34 -8 6.68 -8 6 C-6.35 5.34 -4.7 4.68 -3 4 C-3 3.34 -3 2.68 -3 2 C-2.01 1.34 -1.02 0.68 0 0 Z " fill="#5F81AA" transform="translate(223,14)"/>
<path d="M0 0 C0.66 0 1.32 0 2 0 C1.45318976 5.00600922 -0.24140333 8.97181067 -2.5625 13.375 C-2.89185547 14.01566406 -3.22121094 14.65632812 -3.56054688 15.31640625 C-4.36639482 16.88138632 -5.18218493 18.44124021 -6 20 C-6.33 20 -6.66 20 -7 20 C-7.08226668 16.95613276 -6.97608217 14.92824652 -6 12 C-5.01 12 -4.02 12 -3 12 C-3.020625 11.05125 -3.04125 10.1025 -3.0625 9.125 C-3 6 -3 6 -2 4 C-1.34 4 -0.68 4 0 4 C0 2.68 0 1.36 0 0 Z " fill="#58677B" transform="translate(295,223)"/>
<path d="M0 0 C3.63 0 7.26 0 11 0 C7.75060437 2.16626375 4.74326193 3.26863301 1.0625 4.5625 C-0.16339844 4.99691406 -1.38929688 5.43132812 -2.65234375 5.87890625 C-5.10289348 6.69956876 -7.4823646 7.43842218 -10 8 C-10.33 6.68 -10.66 5.36 -11 4 C-9.96875 4.04125 -8.9375 4.0825 -7.875 4.125 C-4.13170373 4.00424851 -1.46265453 3.35127982 2 2 C1.34 1.34 0.68 0.68 0 0 Z " fill="#576A7F" transform="translate(212,303)"/>
<path d="M0 0 C0.66 0 1.32 0 2 0 C2 0.66 2 1.32 2 2 C2.66 2.33 3.32 2.66 4 3 C3.360625 3.12375 2.72125 3.2475 2.0625 3.375 C1.381875 3.58125 0.70125 3.7875 0 4 C-0.33 4.66 -0.66 5.32 -1 6 C-1.66 6 -2.32 6 -3 6 C-3.33 7.65 -3.66 9.3 -4 11 C-5.98 11 -7.96 11 -10 11 C-10 10.34 -10 9.68 -10 9 C-8.06640625 7.34375 -8.06640625 7.34375 -5.5625 5.5 C-2.25143208 3.20089737 -2.25143208 3.20089737 0 0 Z " fill="#2E445E" transform="translate(177,243)"/>
<path d="M0 0 C2 1 2 1 2.6328125 2.71484375 C3.92456079 8.54821499 4.2241478 14.03517796 4 20 C1.30811936 16.66409415 0.38370589 14.31669125 0 10 C0.33 9.67 0.66 9.34 1 9 C0.91062197 7.47480724 0.75462854 5.95318071 0.5625 4.4375 C0.46066406 3.61121094 0.35882813 2.78492188 0.25390625 1.93359375 C0.17011719 1.29550781 0.08632813 0.65742188 0 0 Z " fill="#071E40" transform="translate(300,146)"/>
<path d="M0 0 C0.33 0.66 0.66 1.32 1 2 C0.67 2.66 0.34 3.32 0 4 C-0.99 4.33 -1.98 4.66 -3 5 C-4.65637688 6.63044124 -4.65637688 6.63044124 -6.1875 8.5625 C-6.71730469 9.20316406 -7.24710937 9.84382813 -7.79296875 10.50390625 C-8.19128906 10.99761719 -8.58960937 11.49132812 -9 12 C-10.32 11.67 -11.64 11.34 -13 11 C-11.21079529 9.3514184 -9.4187995 7.70606879 -7.625 6.0625 C-6.86316406 5.35963867 -6.86316406 5.35963867 -6.0859375 4.64257812 C-2.2265625 1.11328125 -2.2265625 1.11328125 0 0 Z " fill="#547AA6" transform="translate(79,65)"/>
<path d="M0 0 C0.66 0.33 1.32 0.66 2 1 C1 4 1 4 -1.14453125 5.203125 C-2.02496094 5.54859375 -2.90539062 5.8940625 -3.8125 6.25 C-4.68519531 6.60578125 -5.55789062 6.9615625 -6.45703125 7.328125 C-9.13641236 8.03604136 -10.43212123 7.9337741 -13 7 C-11.39805929 6.01719585 -9.79336258 5.03888283 -8.1875 4.0625 C-7.29417969 3.51722656 -6.40085937 2.97195312 -5.48046875 2.41015625 C-3 1 -3 1 0 0 Z " fill="#4E77A1" transform="translate(110,46)"/>
<path d="M0 0 C1.0326802 2.78823655 1.04509293 3.8677274 0.0625 6.75 C-0.288125 7.4925 -0.63875 8.235 -1 9 C-1.66 9 -2.32 9 -3 9 C-2.67 9.99 -2.34 10.98 -2 12 C-2.66 12 -3.32 12 -4 12 C-4.8125 8.8125 -4.8125 8.8125 -5 5 C-2.5625 2.0625 -2.5625 2.0625 0 0 Z " fill="#112A47" transform="translate(118,298)"/>
<path d="M0 0 C0.66 0.33 1.32 0.66 2 1 C1.01 2.485 1.01 2.485 0 4 C0.66 4 1.32 4 2 4 C2 4.66 2 5.32 2 6 C1.01 6.495 1.01 6.495 0 7 C0.66 7.66 1.32 8.32 2 9 C-0.88458638 10.44229319 -2.90639415 9.64450122 -6 9 C-6.66 8.67 -7.32 8.34 -8 8 C-7.0479279 6.99403703 -6.08812654 5.99538437 -5.125 5 C-4.59132812 4.443125 -4.05765625 3.88625 -3.5078125 3.3125 C-2 2 -2 2 0 2 C0 1.34 0 0.68 0 0 Z " fill="#243A5C" transform="translate(237,188)"/>
<path d="M0 0 C0 0.66 0 1.32 0 2 C-4.38461538 5 -4.38461538 5 -7 5 C-7.33 5.99 -7.66 6.98 -8 8 C-9.8125 9.75 -9.8125 9.75 -12 11 C-14.13671875 10.578125 -14.13671875 10.578125 -16 10 C-5.03333333 0 -5.03333333 0 0 0 Z " fill="#6789AF" transform="translate(96,54)"/>
<path d="M0 0 C-1.35021826 4.41889613 -3.26115668 6.34345343 -7 9 C-7 8.34 -7 7.68 -7 7 C-8.32 6.67 -9.64 6.34 -11 6 C-9.73608512 4.99126984 -8.46359117 3.99328178 -7.1875 3 C-6.47980469 2.443125 -5.77210938 1.88625 -5.04296875 1.3125 C-3 0 -3 0 0 0 Z " fill="#737B95" transform="translate(241,3)"/>
<path d="M0 0 C4.455 0.99 4.455 0.99 9 2 C5.30827405 5.53790403 1.90609405 5.59115883 -3 6 C-3.66 5.01 -4.32 4.02 -5 3 C-3.35 3 -1.7 3 0 3 C0 2.01 0 1.02 0 0 Z " fill="#072042" transform="translate(207,302)"/>
<path d="M0 0 C0 0.99 0 1.98 0 3 C0.33 3 0.66 3 1 3 C1.33 3.66 1.66 4.32 2 5 C-0.77079887 8.80984844 -4.62868145 9.06840752 -9 10 C-8.06409496 8.8944811 -7.12620142 7.79064547 -6.1875 6.6875 C-5.66542969 6.07261719 -5.14335937 5.45773437 -4.60546875 4.82421875 C-3.12827531 3.14575321 -1.59960869 1.56117966 0 0 Z " fill="#364964" transform="translate(165,254)"/>
<path d="M0 0 C3.0247891 2.55466059 4.20620611 5.37016273 5.6875 9 C6.12449219 10.051875 6.56148438 11.10375 7.01171875 12.1875 C8 15 8 15 8 18 C7.34 18 6.68 18 6 18 C5.67 15.69 5.34 13.38 5 11 C4.34 11 3.68 11 3 11 C2.87625 10.360625 2.7525 9.72125 2.625 9.0625 C2.41875 8.381875 2.2125 7.70125 2 7 C1.34 6.67 0.68 6.34 0 6 C0 4.02 0 2.04 0 0 Z " fill="#617483" transform="translate(289,110)"/>
<path d="M0 0 C0.33 0.66 0.66 1.32 1 2 C-0.39852912 4.79705825 -2.13651858 4.90914993 -5 6 C-5.99 6.66 -6.98 7.32 -8 8 C-8.66 8 -9.32 8 -10 8 C-10.99 8.33 -11.98 8.66 -13 9 C-13 8.34 -13 7.68 -13 7 C-10.4385343 4.70351351 -9.52032428 4 -6 4 C-6 3.34 -6 2.68 -6 2 C-4.02 1.34 -2.04 0.68 0 0 Z " fill="#11518C" transform="translate(102,52)"/>
<path d="M0 0 C0.763125 0.0825 1.52625 0.165 2.3125 0.25 C1.625 2.625 1.625 2.625 0.3125 5.25 C-2.3125 6.5625 -2.3125 6.5625 -4.6875 7.25 C-5.0175 6.26 -5.3475 5.27 -5.6875 4.25 C-4.12435347 1.21054842 -3.46963346 0.3227566 0 0 Z " fill="#1B3555" transform="translate(141.6875,277.75)"/>
<path d="M0 0 C0.103125 0.639375 0.20625 1.27875 0.3125 1.9375 C0.539375 2.618125 0.76625 3.29875 1 4 C1.99 4.33 2.98 4.66 4 5 C2.35 5.33 0.7 5.66 -1 6 C-1 6.66 -1 7.32 -1 8 C-1.66 8 -2.32 8 -3 8 C-3 7.34 -3 6.68 -3 6 C-3.99 5.67 -4.98 5.34 -6 5 C-4.68 4.67 -3.36 4.34 -2 4 C-2 3.01 -2 2.02 -2 1 C-1.34 0.67 -0.68 0.34 0 0 Z " fill="#042348" transform="translate(112,309)"/>
<path d="M0 0 C1.65 0 3.3 0 5 0 C5.226875 0.78375 5.45375 1.5675 5.6875 2.375 C6.78125 5.21875 6.78125 5.21875 9.625 6.3125 C10.800625 6.6528125 10.800625 6.6528125 12 7 C11.67 7.99 11.34 8.98 11 10 C10.01 9.34 9.02 8.68 8 8 C8 7.34 8 6.68 8 6 C7.236875 5.7525 6.47375 5.505 5.6875 5.25 C2.7635955 3.89004442 1.69995644 2.68414174 0 0 Z " fill="#466C98" transform="translate(73,280)"/>
<path d="M0 0 C0.66 1.32 1.32 2.64 2 4 C1.38125 4.061875 0.7625 4.12375 0.125 4.1875 C-2.27761141 4.828919 -2.27761141 4.828919 -3.25 7.5625 C-3.4975 8.366875 -3.745 9.17125 -4 10 C-4.99 9.67 -5.98 9.34 -7 9 C-7.99 9 -8.98 9 -10 9 C-8.37660195 7.29115995 -6.70680947 5.62553283 -5 4 C-4.34 4 -3.68 4 -3 4 C-3 3.34 -3 2.68 -3 2 C-2.01 1.34 -1.02 0.68 0 0 Z " fill="#283D58" transform="translate(266,162)"/>
<path d="M0 0 C0.33 0.99 0.66 1.98 1 3 C1.66 3 2.32 3 3 3 C2.67 4.32 2.34 5.64 2 7 C1.01 6.67 0.02 6.34 -1 6 C-1.66 7.65 -2.32 9.3 -3 11 C-3.66 10.67 -4.32 10.34 -5 10 C-4.690625 9.236875 -4.38125 8.47375 -4.0625 7.6875 C-3.32106407 5.81210323 -2.63771783 3.91315348 -2 2 C-1.34 2 -0.68 2 0 2 C0 1.34 0 0.68 0 0 Z " fill="#0D4D8D" transform="translate(45,107)"/>
<path d="M0 0 C-5.009197 4.26709374 -9.5921853 4.12564343 -16 4 C-13.45718331 1.45718331 -11.47356329 1.16836595 -8 0.3125 C-6.9275 0.04050781 -5.855 -0.23148438 -4.75 -0.51171875 C-2 -1 -2 -1 0 0 Z " fill="#396798" transform="translate(129,42)"/>
<path d="M0 0 C0 0.66 0 1.32 0 2 C-3.01490557 3.00496852 -5.04181692 3.10335303 -8.1875 3.0625 C-9.53908203 3.04896484 -9.53908203 3.04896484 -10.91796875 3.03515625 C-11.60503906 3.02355469 -12.29210937 3.01195312 -13 3 C-13 2.34 -13 1.68 -13 1 C-11.20994059 0.63779734 -9.41787943 0.28547531 -7.625 -0.0625 C-6.12839844 -0.35833984 -6.12839844 -0.35833984 -4.6015625 -0.66015625 C-2 -1 -2 -1 0 0 Z " fill="#0A2340" transform="translate(198,309)"/>
<path d="M0 0 C0.33 1.65 0.66 3.3 1 5 C-1.97 5.66 -4.94 6.32 -8 7 C-6.76759083 3.3027725 -4.20634615 0 0 0 Z " fill="#2B4059" transform="translate(113,304)"/>
<path d="M0 0 C-1.51553404 3.47775179 -3.5773456 5.9557984 -6.125 8.75 C-7.21167969 9.94882812 -7.21167969 9.94882812 -8.3203125 11.171875 C-8.87460938 11.77515625 -9.42890625 12.3784375 -10 13 C-10.33 11.68 -10.66 10.36 -11 9 C-10.34 9 -9.68 9 -9 9 C-8.67 8.01 -8.34 7.02 -8 6 C-7.34 6 -6.68 6 -6 6 C-6 5.34 -6 4.68 -6 4 C-2.47058824 0 -2.47058824 0 0 0 Z " fill="#456C96" transform="translate(197,54)"/>
<path d="M0 0 C1.32 0.33 2.64 0.66 4 1 C3.34 2.32 2.68 3.64 2 5 C-1.96 5 -5.92 5 -10 5 C-6.23312136 3.11656068 -4.97041037 2.77942165 -1 3 C-0.67 2.01 -0.34 1.02 0 0 Z " fill="#2A5D92" transform="translate(196,35)"/>
<path d="M0 0 C2.31 0.33 4.62 0.66 7 1 C7 1.66 7 2.32 7 3 C4.64561267 4.42944945 3.51967567 5.08661261 0.75 4.625 C0.1725 4.41875 -0.405 4.2125 -1 4 C-0.67 2.68 -0.34 1.36 0 0 Z " fill="#0B2246" transform="translate(118,307)"/>
<path d="M0 0 C3.97472087 3.70060219 6.87132836 6.72680102 7.1875 12.3125 C7.125625 13.199375 7.06375 14.08625 7 15 C3.49221789 10.79066147 0 5.5744558 0 0 Z " fill="#53789E" transform="translate(37,230)"/>
<path d="M0 0 C0.66 0 1.32 0 2 0 C1.67 2.31 1.34 4.62 1 7 C0.34 7 -0.32 7 -1 7 C-1 8.32 -1 9.64 -1 11 C-1.66 11 -2.32 11 -3 11 C-3.33 11.66 -3.66 12.32 -4 13 C-4.33 12.01 -4.66 11.02 -5 10 C-4.01 10 -3.02 10 -2 10 C-2.061875 8.081875 -2.061875 8.081875 -2.125 6.125 C-2.1953125 3.9453125 -2.1953125 3.9453125 -2 2 C-1.34 1.34 -0.68 0.68 0 0 Z " fill="#0A1E41" transform="translate(296,216)"/>
<path d="M0 0 C1 3 1 3 1 5 C4.3 5.33 7.6 5.66 11 6 C11 6.33 11 6.66 11 7 C6.05 7 1.1 7 -4 7 C-3.67 5.68 -3.34 4.36 -3 3 C-2.34 3 -1.68 3 -1 3 C-0.67 2.01 -0.34 1.02 0 0 Z " fill="#647583" transform="translate(149,155)"/>
<path d="M0 0 C0.66 0 1.32 0 2 0 C2 0.99 2 1.98 2 3 C1.34 3 0.68 3 0 3 C-0.103125 3.763125 -0.20625 4.52625 -0.3125 5.3125 C-1.04364039 8.17059424 -1.76951913 9.15742885 -4 11 C-4.64453125 9.234375 -4.64453125 9.234375 -5 7 C-4.07421875 5.078125 -4.07421875 5.078125 -2.6875 3.25 C-2.23761719 2.63640625 -1.78773438 2.0228125 -1.32421875 1.390625 C-0.88722656 0.93171875 -0.45023438 0.4728125 0 0 Z " fill="#3A4C67" transform="translate(206,78)"/>
<path d="M0 0 C0.99 0.33 1.98 0.66 3 1 C2.04882866 2.1725131 1.08882991 3.33787015 0.125 4.5 C-0.40867187 5.1496875 -0.94234375 5.799375 -1.4921875 6.46875 C-1.98976563 6.9740625 -2.48734375 7.479375 -3 8 C-3.66 8 -4.32 8 -5 8 C-5.33 8.99 -5.66 9.98 -6 11 C-6.33 9.68 -6.66 8.36 -7 7 C-6.195625 6.7525 -5.39125 6.505 -4.5625 6.25 C-1.83364774 5.28621485 -1.83364774 5.28621485 -1.25 2.9375 C-1.1675 2.298125 -1.085 1.65875 -1 1 C-0.67 0.67 -0.34 0.34 0 0 Z " fill="#3B6591" transform="translate(110,279)"/>
<path d="M0 0 C1.32 0 2.64 0 4 0 C4 0.99 4 1.98 4 3 C6.43750025 5.68767578 6.43750025 5.68767578 9 8 C8.67 8.99 8.34 9.98 8 11 C6.66375099 9.35653302 5.33107149 7.71016314 4 6.0625 C3.2575 5.14597656 2.515 4.22945313 1.75 3.28515625 C0 1 0 1 0 0 Z " fill="#6589B2" transform="translate(50,255)"/>
<path d="M0 0 C1 2 1 2 0.4375 3.9375 C-1.56520684 6.81094894 -3.78625892 7.72789415 -7 9 C-7.66 8.67 -8.32 8.34 -9 8 C-8.38125 7.7525 -7.7625 7.505 -7.125 7.25 C-4.60421533 5.76718549 -4.2147002 4.59136042 -3 2 C-2.01 1.34 -1.02 0.68 0 0 Z " fill="#344964" transform="translate(194,228)"/>
<path d="M0 0 C0.66 0.33 1.32 0.66 2 1 C0.5682479 6.01113235 -1.98445693 7.94469549 -6 11 C-5.34727108 6.75726205 -3.0234967 3.0234967 0 0 Z " fill="#082144" transform="translate(177,120)"/>
<path d="M0 0 C0.33 0 0.66 0 1 0 C1 1.98 1 3.96 1 6 C0.34 6 -0.32 6 -1 6 C-1 6.66 -1 7.32 -1 8 C-1.66 8 -2.32 8 -3 8 C-3 8.66 -3 9.32 -3 10 C-3.99 10.33 -4.98 10.66 -6 11 C-4.55007731 6.89188572 -2.54592427 3.53144334 0 0 Z " fill="#4973A0" transform="translate(48,99)"/>
<path d="M0 0 C0.7425 0.0825 1.485 0.165 2.25 0.25 C1.92 1.57 1.59 2.89 1.25 4.25 C-1.39 4.25 -4.03 4.25 -6.75 4.25 C-3.42692308 0.31153846 -3.42692308 0.31153846 0 0 Z " fill="#416896" transform="translate(231.75,9.75)"/>
<path d="M0 0 C0 0.99 0 1.98 0 3 C-5.75 6 -5.75 6 -8 6 C-8 4.68 -8 3.36 -8 2 C-5.09399739 0.74335022 -3.20395416 0 0 0 Z " fill="#40526D" transform="translate(233,296)"/>
<path d="M0 0 C1.79508501 0.42325583 3.5860283 0.86410735 5.375 1.3125 C6.37273437 1.55613281 7.37046875 1.79976563 8.3984375 2.05078125 C11 3 11 3 13 6 C11.296875 6.6796875 11.296875 6.6796875 9 7 C6.640625 5.8203125 6.640625 5.8203125 4.25 4.125 C3.45078125 3.57070313 2.6515625 3.01640625 1.828125 2.4453125 C1.22484375 1.96835937 0.6215625 1.49140625 0 1 C0 0.67 0 0.34 0 0 Z " fill="#597CA4" transform="translate(85,290)"/>
<path d="M0 0 C-2.31 2.64 -4.62 5.28 -7 8 C-8 5 -8 5 -7.25 2.375 C-5.32814228 -1.27652968 -3.7773231 -1.2591077 0 0 Z " fill="#30608E" transform="translate(94,173)"/>
<path d="M0 0 C0.66 0 1.32 0 2 0 C5.44419134 9.41002278 5.44419134 9.41002278 5 14 C2.41353786 12.70676893 2.36331466 11.74300003 1.4375 9.0625 C0.70177676 6.96206733 -0.00401313 4.99197374 -1 3 C-0.34 3 0.32 3 1 3 C0.67 2.01 0.34 1.02 0 0 Z " fill="#0A223D" transform="translate(295,128)"/>
<path d="M0 0 C1.70884005 1.62339805 3.37446717 3.29319053 5 5 C5 5.66 5 6.32 5 7 C4.34 7 3.68 7 3 7 C2.67 7.99 2.34 8.98 2 10 C1.01 8.35 0.02 6.7 -1 5 C-0.34 4.34 0.32 3.68 1 3 C0.67 2.01 0.34 1.02 0 0 Z " fill="#3C506F" transform="translate(276,90)"/>
<path d="M0 0 C0.99 0.33 1.98 0.66 3 1 C3 1.66 3 2.32 3 3 C3.61875 3.2475 4.2375 3.495 4.875 3.75 C7.35068687 5.20628639 7.95125002 6.37812506 9 9 C8.278125 8.34 7.55625 7.68 6.8125 7 C3.78402067 4.8464147 2.60296594 4.58823246 -1 5 C-0.67 3.35 -0.34 1.7 0 0 Z " fill="#50647C" transform="translate(262,75)"/>
<path d="M0 0 C0.66 0 1.32 0 2 0 C1.67 1.98 1.34 3.96 1 6 C-3.75 7.125 -3.75 7.125 -6 6 C-4.625 4.5 -4.625 4.5 -3 3 C-2.34 3 -1.68 3 -1 3 C-0.67 2.01 -0.34 1.02 0 0 Z " fill="#324863" transform="translate(103,311)"/>
<path d="M0 0 C0.66 0.33 1.32 0.66 2 1 C-0.64 3.97 -3.28 6.94 -6 10 C-6.33 9.34 -6.66 8.68 -7 8 C-6.0625 5.875 -6.0625 5.875 -5 4 C-4.34 4 -3.68 4 -3 4 C-3 3.01 -3 2.02 -3 1 C-2.01 0.67 -1.02 0.34 0 0 Z " fill="#346394" transform="translate(142,244)"/>
<path d="M0 0 C0.33 0.66 0.66 1.32 1 2 C1.99 2 2.98 2 4 2 C4 2.66 4 3.32 4 4 C3.34 4 2.68 4 2 4 C2 4.66 2 5.32 2 6 C-0.97 5.505 -0.97 5.505 -4 5 C-4 4.34 -4 3.68 -4 3 C-2 1.375 -2 1.375 0 0 Z " fill="#334B66" transform="translate(270,262)"/>
<path d="M0 0 C0.33 1.32 0.66 2.64 1 4 C0.34 4 -0.32 4 -1 4 C-1.33 5.32 -1.66 6.64 -2 8 C-3.32 7.34 -4.64 6.68 -6 6 C-4 4 -2 2 0 0 Z " fill="#2B3F5E" transform="translate(210,213)"/>
<path d="M0 0 C0.66 0.33 1.32 0.66 2 1 C0.88200014 2.33920838 -0.24461897 3.67122556 -1.375 5 C-2.00148437 5.7425 -2.62796875 6.485 -3.2734375 7.25 C-4.12808594 8.11625 -4.12808594 8.11625 -5 9 C-5.66 9 -6.32 9 -7 9 C-6.67 7.68 -6.34 6.36 -6 5 C-5.01 5 -4.02 5 -3 5 C-2.67 4.01 -2.34 3.02 -2 2 C-1.34 1.34 -0.68 0.68 0 0 Z " fill="#335F8E" transform="translate(173,209)"/>
<path d="M0 0 C-1.03094867 2.57737166 -1.5108626 3.76284247 -4.0625 5 C-6.21280279 5.8295822 -6.21280279 5.8295822 -6.75 8.125 C-6.8325 8.74375 -6.915 9.3625 -7 10 C-7.33 10 -7.66 10 -8 10 C-8.375 7.8125 -8.375 7.8125 -8 5 C-5.8280714 2.51971116 -3.44755208 0 0 0 Z " fill="#366392" transform="translate(111,152)"/>
<path d="M0 0 C0.66 0.33 1.32 0.66 2 1 C2 1.66 2 2.32 2 3 C1.34 3 0.68 3 0 3 C-0.2475 3.598125 -0.495 4.19625 -0.75 4.8125 C-2.16370012 7.28647521 -3.65055383 8.43370255 -6 10 C-5.34 8.02 -4.68 6.04 -4 4 C-3.34 4 -2.68 4 -2 4 C-2 3.01 -2 2.02 -2 1 C-1.34 0.67 -0.68 0.34 0 0 Z " fill="#386291" transform="translate(125,133)"/>
<path d="M0 0 C0.33 1.32 0.66 2.64 1 4 C0.01 4.495 0.01 4.495 -1 5 C-1.28875 5.825 -1.5775 6.65 -1.875 7.5 C-3 10 -3 10 -5.125 10.8125 C-5.74375 10.874375 -6.3625 10.93625 -7 11 C-5.66666667 8.33333333 -4.33333333 5.66666667 -3 3 C-2.34 3 -1.68 3 -1 3 C-0.67 2.01 -0.34 1.02 0 0 Z " fill="#42546B" transform="translate(173,123)"/>
<path d="M0 0 C2.33944736 0.28730055 4.6739143 0.61936779 7 1 C5.1875 3.5 5.1875 3.5 3 6 C2.01 6 1.02 6 0 6 C-0.38218767 4.34385343 -0.71395102 2.67542976 -1 1 C-0.67 0.67 -0.34 0.34 0 0 Z " fill="#215890" transform="translate(217,23)"/>
<path d="M0 0 C0.66 0 1.32 0 2 0 C2 0.66 2 1.32 2 2 C3.65 1.67 5.3 1.34 7 1 C7.33 2.98 7.66 4.96 8 7 C7.01 7.495 7.01 7.495 6 8 C6 7.34 6 6.68 6 6 C5.34 6 4.68 6 4 6 C4 5.34 4 4.68 4 4 C3.01 3.67 2.02 3.34 1 3 C0.67 2.01 0.34 1.02 0 0 Z " fill="#4F78A4" transform="translate(59,266)"/>
<path d="M0 0 C1.1446875 0.3403125 1.1446875 0.3403125 2.3125 0.6875 C-0.81182397 3.21099243 -4.06810496 4.96006146 -7.6875 6.6875 C-4.45731707 -0.51829268 -4.45731707 -0.51829268 0 0 Z " fill="#0A2041" transform="translate(170.6875,253.3125)"/>
<path d="M0 0 C0.33 0.66 0.66 1.32 1 2 C1.66 2 2.32 2 3 2 C3.33 5.96 3.66 9.92 4 14 C1.01520806 9.52281208 0 5.36175907 0 0 Z " fill="#7397B8" transform="translate(29,206)"/>
<path d="M0 0 C0.66 0 1.32 0 2 0 C2 0.66 2 1.32 2 2 C4.64 2.33 7.28 2.66 10 3 C10 3.66 10 4.32 10 5 C8.35333797 4.8864371 6.70763918 4.75882619 5.0625 4.625 C3.68771484 4.52058594 3.68771484 4.52058594 2.28515625 4.4140625 C1.15400391 4.20910156 1.15400391 4.20910156 0 4 C-0.33 3.34 -0.66 2.68 -1 2 C-0.67 1.34 -0.34 0.68 0 0 Z " fill="#082149" transform="translate(127,305)"/>
<path d="M0 0 C1.04449911 3.13349732 0.93423645 3.98968256 0 7 C-1.98 7 -3.96 7 -6 7 C-4.02 4.69 -2.04 2.38 0 0 Z " fill="#2B445F" transform="translate(125,291)"/>
<path d="M0 0 C1.98 0 3.96 0 6 0 C5.01 0.33 4.02 0.66 3 1 C3 2.32 3 3.64 3 5 C1.35 4.67 -0.3 4.34 -2 4 C-1.34 2.68 -0.68 1.36 0 0 Z " fill="#0D264A" transform="translate(127,290)"/>
<path d="M0 0 C0.99 0.33 1.98 0.66 3 1 C1.02 3.31 -0.96 5.62 -3 8 C-3.99 7.67 -4.98 7.34 -6 7 C-6 6.34 -6 5.68 -6 5 C-5.01 4.67 -4.02 4.34 -3 4 C-2.67 3.01 -2.34 2.02 -2 1 C-1.34 0.67 -0.68 0.34 0 0 Z " fill="#3C6393" transform="translate(150,105)"/>
<path d="M0 0 C0.66 0 1.32 0 2 0 C1.6875 3.375 1.6875 3.375 1 7 C0.01 7.66 -0.98 8.32 -2 9 C-2 6.66666667 -2 4.33333333 -2 2 C-1.34 2 -0.68 2 0 2 C0 1.34 0 0.68 0 0 Z " fill="#0F2543" transform="translate(227,52)"/>
<path d="M0 0 C0.66 0.66 1.32 1.32 2 2 C1.625 4.125 1.625 4.125 1 6 C-0.9375 5.6875 -0.9375 5.6875 -3 5 C-3.33 4.01 -3.66 3.02 -4 2 C-2.68 1.34 -1.36 0.68 0 0 Z " fill="#082246" transform="translate(237,289)"/>
<path d="M0 0 C1.98 0 3.96 0 6 0 C5.1875 1.9375 5.1875 1.9375 4 4 C3.01 4.33 2.02 4.66 1 5 C0.67 3.35 0.34 1.7 0 0 Z " fill="#314962" transform="translate(246,284)"/>
<path d="M0 0 C4.52346473 2.26173236 5.05828666 3.53405933 7 8 C6.01 8 5.02 8 4 8 C2.68 5.36 1.36 2.72 0 0 Z " fill="#577CA6" transform="translate(44,245)"/>
<path d="M0 0 C0.66 0.66 1.32 1.32 2 2 C1.34 2 0.68 2 0 2 C-0.2165625 2.928125 -0.2165625 2.928125 -0.4375 3.875 C-1 6 -1 6 -2 8 C-3.32 8 -4.64 8 -6 8 C-5.6875 6.125 -5.6875 6.125 -5 4 C-4.01 3.34 -3.02 2.68 -2 2 C-1.34 1.34 -0.68 0.68 0 0 Z " fill="#061E42" transform="translate(200,224)"/>
<path d="M0 0 C0.33 1.32 0.66 2.64 1 4 C-0.32 4.33 -1.64 4.66 -3 5 C-3.33 6.65 -3.66 8.3 -4 10 C-4.99 10 -5.98 10 -7 10 C-5.33248852 6.05860922 -2.77289351 3.2107188 0 0 Z " fill="#688BAF" transform="translate(59,84)"/>
<path d="M0 0 C0.66666667 2.66666667 1.33333333 5.33333333 2 8 C0.68 7.67 -0.64 7.34 -2 7 C-2 6.01 -2 5.02 -2 4 C-2.66 3.67 -3.32 3.34 -4 3 C-2.68 2.01 -1.36 1.02 0 0 Z " fill="#3C6CA7" transform="translate(208,26)"/>
<path d="M0 0 C1.0625 1.875 1.0625 1.875 2 4 C1.67 4.66 1.34 5.32 1 6 C-1.33333333 6 -3.66666667 6 -6 6 C-4 4 -2 2 0 0 Z " fill="#2F4664" transform="translate(134,283)"/>
<path d="M0 0 C0.33 0.66 0.66 1.32 1 2 C0.01 3.32 -0.98 4.64 -2 6 C-2.33 5.67 -2.66 5.34 -3 5 C-3.99 6.485 -3.99 6.485 -5 8 C-5.99 7.67 -6.98 7.34 -8 7 C-7.01 6.67 -6.02 6.34 -5 6 C-4.67 5.01 -4.34 4.02 -4 3 C-3.34 3 -2.68 3 -2 3 C-2 2.34 -2 1.68 -2 1 C-1.34 0.67 -0.68 0.34 0 0 Z " fill="#3A4E63" transform="translate(155,264)"/>
<path d="M0 0 C-0.8125 1.9375 -0.8125 1.9375 -2 4 C-2.99 4.33 -3.98 4.66 -5 5 C-5.33 5.99 -5.66 6.98 -6 8 C-6.75 6.25 -6.75 6.25 -7 4 C-4.66754091 1.00112403 -3.88153854 0 0 0 Z " fill="#2C5D89" transform="translate(182,201)"/>
<path d="M0 0 C1.46726798 3.81489674 0.43336419 6.29011622 -1 10 C-1.66 10 -2.32 10 -3 10 C-2.49287967 6.28111761 -1.88391785 3.26545761 0 0 Z " fill="#557AA5" transform="translate(37,119)"/>
<path d="M0 0 C0.66 0 1.32 0 2 0 C2 1.65 2 3.3 2 5 C1.01 5.33 0.02 5.66 -1 6 C-1.33 6.66 -1.66 7.32 -2 8 C-2.66 7.67 -3.32 7.34 -4 7 C-2.68 4.69 -1.36 2.38 0 0 Z " fill="#32455A" transform="translate(188,102)"/>
<path d="M0 0 C2.31 0 4.62 0 7 0 C7 0.66 7 1.32 7 2 C8.32 2.66 9.64 3.32 11 4 C9.35232753 3.71890887 7.70686855 3.42481474 6.0625 3.125 C4.68771484 2.88136719 4.68771484 2.88136719 3.28515625 2.6328125 C2.53105469 2.42398437 1.77695313 2.21515625 1 2 C0.67 1.34 0.34 0.68 0 0 Z " fill="#5B6F82" transform="translate(128,309)"/>
<path d="M0 0 C0.33 0.66 0.66 1.32 1 2 C1.99 2.33 2.98 2.66 4 3 C2 5 2 5 -1.125 5.125 C-2.548125 5.063125 -2.548125 5.063125 -4 5 C-2.68 3.35 -1.36 1.7 0 0 Z " fill="#1F3858" transform="translate(183,238)"/>
<path d="M0 0 C0.99 0.33 1.98 0.66 3 1 C3.33 2.98 3.66 4.96 4 7 C3.01 7.495 3.01 7.495 2 8 C0.23537317 4.91190305 0 3.76687864 0 0 Z " fill="#48719F" transform="translate(34,222)"/>
<path d="M0 0 C1.32 0.66 2.64 1.32 4 2 C3.34 3.32 2.68 4.64 2 6 C1.34 5.34 0.68 4.68 0 4 C-0.99 4.495 -0.99 4.495 -2 5 C-1.34 3.35 -0.68 1.7 0 0 Z " fill="#031E46" transform="translate(212,73)"/>
<path d="M0 0 C0.99 0.33 1.98 0.66 3 1 C1.02 3.97 1.02 3.97 -1 7 C-1 4 -1 4 0 2 C-0.66 1.67 -1.32 1.34 -2 1 C-1.34 0.67 -0.68 0.34 0 0 Z M-4 7 C-3.34 7.33 -2.68 7.66 -2 8 C-2.99 8.66 -3.98 9.32 -5 10 C-4.67 9.01 -4.34 8.02 -4 7 Z " fill="#E1DEE3" transform="translate(241,1)"/>
<path d="M0 0 C0.66 0.66 1.32 1.32 2 2 C-1.625 7.875 -1.625 7.875 -5 9 C-5 8.34 -5 7.68 -5 7 C-4.34 7 -3.68 7 -3 7 C-2.690625 6.030625 -2.38125 5.06125 -2.0625 4.0625 C-1 1 -1 1 0 0 Z " fill="#315D92" transform="translate(118,269)"/>
<path d="M0 0 C0.66 0 1.32 0 2 0 C1.25 6.625 1.25 6.625 -1 10 C-2.23076923 4.58461538 -2.23076923 4.58461538 -1.0625 1.625 C-0.5365625 0.820625 -0.5365625 0.820625 0 0 Z " fill="#0C223F" transform="translate(301,198)"/>
<path d="M0 0 C0.99 0.33 1.98 0.66 3 1 C3.33 3.64 3.66 6.28 4 9 C3.01 8.34 2.02 7.68 1 7 C0.3125 3.375 0.3125 3.375 0 0 Z " fill="#0C2340" transform="translate(283,103)"/>
<path d="M0 0 C0.66 0 1.32 0 2 0 C3.6875 2.375 3.6875 2.375 5 5 C4.67 5.66 4.34 6.32 4 7 C3.34 6.67 2.68 6.34 2 6 C1.67 6.66 1.34 7.32 1 8 C0.67 5.36 0.34 2.72 0 0 Z " fill="#607488" transform="translate(281,97)"/>
<path d="M0 0 C3.36179774 1.44077046 5.59156268 3.24750021 8 6 C8 6.66 8 7.32 8 8 C7.34 8 6.68 8 6 8 C6 7.34 6 6.68 6 6 C5.38125 5.7525 4.7625 5.505 4.125 5.25 C1.64931313 3.79371361 1.04874998 2.62187494 0 0 Z " fill="#0B223C" transform="translate(264,79)"/>
<path d="M0 0 C1.32 0.33 2.64 0.66 4 1 C2.35 2.98 0.7 4.96 -1 7 C-2 4 -2 4 -1.0625 1.8125 C-0.5365625 0.9153125 -0.5365625 0.9153125 0 0 Z " fill="#325F92" transform="translate(124,262)"/>
<path d="M0 0 C0.99 0 1.98 0 3 0 C3 1.65 3 3.3 3 5 C1.02 5.99 1.02 5.99 -1 7 C-0.67 4.69 -0.34 2.38 0 0 Z " fill="#0B2241" transform="translate(285,238)"/>
<path d="M0 0 C-0.99 0.66 -1.98 1.32 -3 2 C-4.20450304 4.55183404 -4.20450304 4.55183404 -5 7 C-5.99 6.67 -6.98 6.34 -8 6 C-7.34 5.67 -6.68 5.34 -6 5 C-6 3.35 -6 1.7 -6 0 C-2.25 -1.125 -2.25 -1.125 0 0 Z " fill="#114E8B" transform="translate(161,224)"/>
<path d="M0 0 C0.66 0.99 1.32 1.98 2 3 C0.625 5.5 0.625 5.5 -1 8 C-1.66 8 -2.32 8 -3 8 C-1.125 2.25 -1.125 2.25 0 0 Z " fill="#6182AA" transform="translate(41,110)"/>
<path d="M0 0 C1.32 0.33 2.64 0.66 4 1 C4.33 2.98 4.66 4.96 5 7 C4.01 6.67 3.02 6.34 2 6 C2 4.68 2 3.36 2 2 C1.34 2 0.68 2 0 2 C0 1.34 0 0.68 0 0 Z " fill="#18334F" transform="translate(237,56)"/>
<path d="M0 0 C0 0.66 0 1.32 0 2 C-0.99 2 -1.98 2 -3 2 C-3 2.66 -3 3.32 -3 4 C-4.32 3.67 -5.64 3.34 -7 3 C-7 2.34 -7 1.68 -7 1 C-4.50935112 0.31292445 -2.62113708 0 0 0 Z " fill="#0A2140" transform="translate(258,278)"/>
<path d="M0 0 C0.33 0 0.66 0 1 0 C1.36923077 6.52307692 1.36923077 6.52307692 -0.5 8.9375 C-0.995 9.288125 -1.49 9.63875 -2 10 C-1.125 2.25 -1.125 2.25 0 0 Z " fill="#708EB4" transform="translate(31,135)"/>
<path d="M0 0 C0.66 0 1.32 0 2 0 C5 3.46153846 5 3.46153846 5 6 C3.68 6 2.36 6 1 6 C0.67 4.02 0.34 2.04 0 0 Z " fill="#526577" transform="translate(271,84)"/>
<path d="M0 0 C1.125 3.75 1.125 3.75 0 6 C-1.32 5.67 -2.64 5.34 -4 5 C-2.68 3.35 -1.36 1.7 0 0 Z " fill="#557BA6" transform="translate(64,78)"/>
<path d="M0 0 C0.99 0.33 1.98 0.66 3 1 C3 1.66 3 2.32 3 3 C2.34 3 1.68 3 1 3 C1 3.99 1 4.98 1 6 C0.01 6 -0.98 6 -2 6 C-2 5.01 -2 4.02 -2 3 C-1.34 3 -0.68 3 0 3 C0 2.01 0 1.02 0 0 Z " fill="#062148" transform="translate(208,78)"/>
<path d="M0 0 C0.66 0 1.32 0 2 0 C1.75 1.875 1.75 1.875 1 4 C-1.0625 5.25 -1.0625 5.25 -3 6 C-2.67 4.68 -2.34 3.36 -2 2 C-1.34 2 -0.68 2 0 2 C0 1.34 0 0.68 0 0 Z " fill="#1F5387" transform="translate(176,74)"/>
<path d="M0 0 C0.99 0 1.98 0 3 0 C2.75 1.875 2.75 1.875 2 4 C-0.0625 5.25 -0.0625 5.25 -2 6 C-1.34 4.02 -0.68 2.04 0 0 Z " fill="#26578D" transform="translate(198,48)"/>
<path d="M0 0 C2.01822917 0.06510417 4.03645833 0.13020833 6.0546875 0.1953125 C5.0646875 0.6903125 5.0646875 0.6903125 4.0546875 1.1953125 C4.0546875 1.8553125 4.0546875 2.5153125 4.0546875 3.1953125 C1.4146875 2.8653125 -1.2253125 2.5353125 -3.9453125 2.1953125 C-1.9453125 0.1953125 -1.9453125 0.1953125 0 0 Z " fill="#7190B3" transform="translate(145.9453125,35.8046875)"/>
<path d="M0 0 C1.32 0 2.64 0 4 0 C3.67 1.32 3.34 2.64 3 4 C1.68 4 0.36 4 -1 4 C-0.67 2.68 -0.34 1.36 0 0 Z " fill="#0F4D87" transform="translate(225,14)"/>
</svg>
